<?xml version="1.0" encoding="utf-8"?>
<!-- Generator: Adobe Illustrator 16.0.0, SVG Export Plug-In . SVG Version: 6.00 Build 0)  -->
<!DOCTYPE svg PUBLIC "-//W3C//DTD SVG 1.1//EN" "http://www.w3.org/Graphics/SVG/1.1/DTD/svg11.dtd">
<svg version="1.1"
	 id="svg1306" xmlns:sodipodi="http://sodipodi.sourceforge.net/DTD/sodipodi-0.dtd" xmlns:inkscape="http://www.inkscape.org/namespaces/inkscape" xmlns:dc="http://purl.org/dc/elements/1.1/" xmlns:svg="http://www.w3.org/2000/svg" xmlns:rdf="http://www.w3.org/1999/02/22-rdf-syntax-ns#" xmlns:cc="http://creativecommons.org/ns#" sodipodi:version="0.32" sodipodi:docname="dialog-error.svg" inkscape:version="0.46" sodipodi:docbase="/home/garrett/Source/tango-icon-theme/scalable/status" inkscape:output_extension="org.inkscape.output.svg.inkscape"
	 xmlns="http://www.w3.org/2000/svg" xmlns:xlink="http://www.w3.org/1999/xlink" x="0px" y="0px" width="48px" height="48px"
	 viewBox="0 0 48 48" enable-background="new 0 0 48 48" xml:space="preserve">
<defs>
	
	
		<inkscape:perspective  inkscape:vp_x="0 : 24 : 1" inkscape:vp_y="0 : 1000 : 0" inkscape:vp_z="48 : 24 : 1" id="perspective40" sodipodi:type="inkscape:persp3d" inkscape:persp3d-origin="24 : 16 : 1">
		</inkscape:perspective>
</defs>
<sodipodi:namedview  fill="#ef2929" inkscape:cx="-134.9567" inkscape:cy="20.463852" inkscape:zoom="1" showgrid="true" borderopacity="0.21568627" pagecolor="#ffffff" bordercolor="#666666" id="base" inkscape:window-y="30" inkscape:window-x="234" inkscape:window-height="818" inkscape:window-width="925" inkscape:showpageshadow="false" inkscape:document-units="px" inkscape:grid-bbox="true" inkscape:current-layer="layer2" inkscape:pageshadow="2" inkscape:pageopacity="0.0">
	
		<inkscape:grid  color="#0000ff" empopacity="0.4" spacingx="1px" empspacing="4" spacingy="1px" opacity="0.2" empcolor="#0000ff" type="xygrid" originx="0px" originy="0px" id="GridFromPre046Settings">
		</inkscape:grid>
</sodipodi:namedview>
<g>
	<path id="path5333" sodipodi:nodetypes="czzzzsz" fill="#A6A700" d="M19.724,6.084L1.928,36.828
		c-2.341,4.044-0.022,7.355,4.356,7.355h35.618c4.345,0,6.404-3.873,4.383-7.355L28.463,6.084
		C26.081,1.975,22.125,1.938,19.724,6.084z"/>
	
		<linearGradient id="path5335_1_" gradientUnits="userSpaceOnUse" x1="267.1855" y1="965.9961" x2="290.9363" y2="997.6304" gradientTransform="matrix(1.0614 0 0 0.9421 -278.003 -897.3318)">
		<stop  offset="0" style="stop-color:#FFFD26"/>
		<stop  offset="1" style="stop-color:#967F00"/>
	</linearGradient>
	<path id="path5335" sodipodi:nodetypes="czzzzsz" fill="url(#path5335_1_)" stroke="#FFFFFF" stroke-width="0.6859" d="
		M20.034,7.927L3.774,36.018c-2.613,4.514-1.13,6.721,3.979,6.721h32.546c4.857,0,6.724-2.03,4.005-6.721L28.019,7.927
		C25.573,3.708,22.51,3.65,20.034,7.927z"/>
	
		<linearGradient id="path5337_1_" gradientUnits="userSpaceOnUse" x1="408.1611" y1="814.4111" x2="434.6514" y2="840.498" gradientTransform="matrix(0.9017 0 0 1.109 -367.9156 -897.3481)">
		<stop  offset="0" style="stop-color:#FFFFFF"/>
		<stop  offset="1" style="stop-color:#FFFFFF;stop-opacity:0"/>
	</linearGradient>
	<path id="path5337" fill="url(#path5337_1_)" d="M24.043,4.736c-1.381-0.008-2.773,1.063-4.01,3.201L3.777,36.011
		c-2.613,4.512-1.126,6.721,3.984,6.721h2.524c-0.001-0.1-0.027-0.191-0.027-0.291c0-12.96,10.193-23.535,23.268-25.03l-5.497-9.473
		C26.805,5.829,25.424,4.744,24.043,4.736z"/>
	
		<linearGradient id="text5339_1_" gradientUnits="userSpaceOnUse" x1="569.6563" y1="923.4004" x2="596.5513" y2="954.1752" gradientTransform="matrix(0.6458 0 0 0.8758 -350.844 -793.5967)">
		<stop  offset="0" style="stop-color:#FFFFFF;stop-opacity:0.7266"/>
		<stop  offset="1" style="stop-color:#FFFFFF"/>
	</linearGradient>
	<path id="text5339" fill="url(#text5339_1_)" d="M23.95,34.904c-1.435,0-2.59,1.152-2.59,2.541c0,1.428,1.155,2.578,2.59,2.578
		c1.394,0,2.55-1.15,2.55-2.578C26.498,36.056,25.344,34.904,23.95,34.904 M24.587,32.602v-1.229c0-1.508,0.318-4.443,0.677-6.31
		l1.116-5.396c0.358-1.826,0.558-3.214,0.558-4.047c0-2.301-1.075-3.649-2.868-3.649c-1.912,0-2.869,1.309-2.869,4.006
		c0,0.873,0,0.873,0.479,3.572l0.876,5.198c0.319,1.706,0.597,5.077,0.597,6.588v1.268H24.587"/>
</g>
</svg>
