<?xml version="1.0" encoding="utf-8"?>
<!-- Generator: Adobe Illustrator 16.0.0, SVG Export Plug-In . SVG Version: 6.00 Build 0)  -->
<!DOCTYPE svg PUBLIC "-//W3C//DTD SVG 1.1//EN" "http://www.w3.org/Graphics/SVG/1.1/DTD/svg11.dtd">
<svg version="1.1"
	 id="svg2913" xmlns:sodipodi="http://sodipodi.sourceforge.net/DTD/sodipodi-0.dtd" xmlns:inkscape="http://www.inkscape.org/namespaces/inkscape" xmlns:dc="http://purl.org/dc/elements/1.1/" xmlns:svg="http://www.w3.org/2000/svg" xmlns:rdf="http://www.w3.org/1999/02/22-rdf-syntax-ns#" xmlns:cc="http://creativecommons.org/ns#" sodipodi:version="0.32" sodipodi:docname="document-save.svg" inkscape:version="0.46" sodipodi:docbase="/home/jimmac/src/cvs/tango-icon-theme/scalable/actions" inkscape:output_extension="org.inkscape.output.svg.inkscape"
	 xmlns="http://www.w3.org/2000/svg" xmlns:xlink="http://www.w3.org/1999/xlink" x="0px" y="0px" width="48px" height="48px"
	 viewBox="0 0 48 48" enable-background="new 0 0 48 48" xml:space="preserve">
<defs>
	
	
		<inkscape:perspective  inkscape:vp_x="0 : 24 : 1" inkscape:vp_y="0 : 1000 : 0" inkscape:vp_z="48 : 24 : 1" id="perspective104" sodipodi:type="inkscape:persp3d" inkscape:persp3d-origin="24 : 16 : 1">
		</inkscape:perspective>
</defs>
<sodipodi:namedview  stroke="#204a87" fill="#3465a4" inkscape:cx="-133.68151" inkscape:cy="11.891468" inkscape:zoom="1" showgrid="false" borderopacity="0.22745098" pagecolor="#ffffff" bordercolor="#666666" id="base" inkscape:window-y="30" inkscape:window-x="0" inkscape:window-height="818" inkscape:window-width="999" inkscape:showpageshadow="false" inkscape:document-units="px" inkscape:grid-bbox="true" inkscape:current-layer="layer2" inkscape:pageshadow="2" inkscape:pageopacity="0.0">
	</sodipodi:namedview>
<path id="path862" sodipodi:nodetypes="cccccc" sodipodi:stroke-cmyk="(0.0000000 0.0000000 0.0000000 0.80000001)" fill="none" stroke="#333333" stroke-width="4.3453" stroke-linecap="round" stroke-linejoin="round" d="
	M35.199,5.005h9.979 M40.426,5.005v33.824 M35.199,39.743h10.213"/>
<path id="path837" fill="#333333" d="M2.26,31.587l6.9-18.762c0.619-1.654,1.128-2.877,1.531-3.667
	c0.403-0.806,0.957-1.48,1.66-2.026c0.705-0.562,1.625-0.841,2.762-0.841c1.164,0,2.106,0.279,2.825,0.841
	c0.732,0.561,1.308,1.266,1.726,2.112c0.431,0.835,0.935,2.027,1.51,3.581l6.878,18.762c0.432,1.135,0.709,2.013,0.842,2.629
	c0.145,0.605,0.217,1.218,0.217,1.833c0,0.893-0.316,1.611-0.951,2.158c-0.619,0.532-1.443,0.798-2.479,0.798
	c-0.721,0-1.323-0.144-1.813-0.432c-0.489-0.287-0.885-0.691-1.186-1.207c-0.288-0.518-0.548-1.152-0.776-1.9l-0.863-2.822H9.292
	l-0.885,2.822c-0.373,1.167-0.827,2.05-1.358,2.654c-0.516,0.59-1.315,0.886-2.395,0.886c-1.02,0-1.854-0.267-2.501-0.799
	c-0.633-0.546-0.948-1.265-0.948-2.156c0-0.532,0.057-1.085,0.172-1.658C1.505,33.801,1.8,32.865,2.26,31.587z M18.909,25.935
	l-3.58-11.621h-0.085l-3.839,11.621H18.909z"/>
</svg>
