<?xml version="1.0" encoding="utf-8"?>
<!-- Generator: Adobe Illustrator 16.0.0, SVG Export Plug-In . SVG Version: 6.00 Build 0)  -->
<!DOCTYPE svg PUBLIC "-//W3C//DTD SVG 1.1//EN" "http://www.w3.org/Graphics/SVG/1.1/DTD/svg11.dtd">
<svg version="1.1"
	 id="svg2" xmlns:dc="http://purl.org/dc/elements/1.1/" xmlns:cc="http://creativecommons.org/ns#" xmlns:rdf="http://www.w3.org/1999/02/22-rdf-syntax-ns#" xmlns:svg="http://www.w3.org/2000/svg" xmlns:sodipodi="http://sodipodi.sourceforge.net/DTD/sodipodi-0.dtd" xmlns:inkscape="http://www.inkscape.org/namespaces/inkscape" inkscape:output_extension="org.inkscape.output.svg.inkscape" sodipodi:docname="Gmail_Logo.svg" inkscape:version="0.47pre1 r21720"
	 xmlns="http://www.w3.org/2000/svg" xmlns:xlink="http://www.w3.org/1999/xlink" x="0px" y="0px" width="499.735px"
	 height="235.34px" viewBox="0 0 499.735 235.34" enable-background="new 0 0 499.735 235.34" xml:space="preserve">
<sodipodi:namedview  id="namedview24" borderopacity="1" bordercolor="#666666" showgrid="false" pagecolor="#ffffff" guidetolerance="10" inkscape:cy="135" gridtolerance="10" inkscape:cx="265" objecttolerance="10" inkscape:zoom="0.94074074" inkscape:window-maximized="0" inkscape:current-layer="g2571" inkscape:window-y="0" inkscape:window-x="0" inkscape:window-height="480" inkscape:window-width="640" inkscape:pageshadow="2" inkscape:pageopacity="0">
	</sodipodi:namedview>
<defs>
	
	
		<inkscape:perspective  id="perspective28" inkscape:vp_z="530 : 135 : 1" inkscape:vp_y="0 : 1000 : 0" inkscape:vp_x="0 : 135 : 1" sodipodi:type="inkscape:persp3d" inkscape:persp3d-origin="265 : 90 : 1">
		</inkscape:perspective>
</defs>
<g id="layer1" transform="translate(-101.629, -310.01)">
	<g id="g2571" transform="matrix(0.862679, 0, 0, 0.862679, 30.2203, 60.9008)">
		<path id="path2398" fill="#008BCA" d="M609.059,335.163l-1.23-1.057l-1.229-0.797c-14.869-8.218-30.409,5.81-21.758,20.898
			l0.876,1.145l1.142,1.148v0.263c3.92,3.727,8.729,4.59,13.949,3.704l1.49-0.351l1.581-0.443l0.614-0.354l0.702-0.262l1.405-0.617
			l1.229-0.794l1.23-0.882l0.964-1.233l0.88-1.234l0.787-1.41l0.703-1.499v-10.931l-0.703-1.588l-0.787-1.322l-0.88-1.326
			L609.059,335.163"/>
		<path id="path2400" fill="#008BCA" d="M586.071,488.132h25.622v-111.97h-25.622V488.132z"/>
		<path id="path2404" fill="#F9CD66" d="M481.388,385.509l4.124,14.107l2.809-1.677l2.982-1.41
			c7.703-3.478,23.228-5.016,31.239-1.762l1.844,0.968l1.666,1.148c6.188,4.511,7.51,12.214,7.021,19.395l-0.177,0.529l-0.525,1.06
			h-0.266v0.088l-0.173,0.174l-0.352,0.266l-0.878,0.177c-6.253-0.151-12.513,0.387-18.687,1.322l-2.809,0.528l-2.631,0.705
			c-5.486,1.135-11.463,3.691-16.325,6.522l-1.841,1.327l-1.844,1.233l-1.666,1.412c-11.279,9.527-13.798,28.498-8.158,41.612
			l1.315,2.559l1.489,2.377l1.844,2.293l2.107,2.202c9.228,8.455,22.732,9.225,33.87,4.674l0.876-0.441l0.968-0.349l1.578-0.971
			c2.952-1.883,5.144-3.638,7.545-6.259l1.315-1.588l1.317-1.587l0.265-0.529l0.44-0.266l0.524-0.174h1.142l0.876,0.088l0.878,0.352
			l0.351,0.794l0.349,0.968l1.67,10.142h19.392l-0.352-2.561l-0.261-2.555l-0.178-2.91c-1.24-20.865,0.321-41.803-0.614-62.683
			l-0.263-2.644l-0.177-2.471c-0.961-6.525-1.979-11.056-4.915-17.014l-0.964-1.765l-0.964-1.588l-1.141-1.588
			c-12.066-16.122-42.239-14.458-58.266-7.933l-3.772,1.677L481.388,385.509z M505.343,437.789l2.195-1.322l2.631-1.144l2.809-0.97
			l3.248-0.709l3.334-0.618l3.773-0.263l3.946-0.173l4.39,0.089l0.348-0.089l0.527,0.089l0.352,0.261l0.439,0.44l0.525,0.616
			l0.177,0.444l0.085,0.616v15.341l-0.085,0.878v0.971l-0.177,1.854c-0.67,5.242-3.225,10.137-6.932,13.931l-0.702,0.616
			l-0.614,0.706l-1.578,0.97c-22.884,13.352-38.033-11.715-22.113-30.242l1.054-0.797L505.343,437.789"/>
		<path id="path2408" fill="#EB2D2E" d="M299.145,485.662h147.497V375.545H299.145V485.662z M425.498,463.091v21.423H321.956
			v-20.275h0.177l0.525-0.178l38.873-31.3l11.758,9.964l10.438-9.17L425.498,463.091z M425.498,459.298l-39.575-27.682
			l39.575-34.296V459.298z M418.916,376.69l-5.353,5.115c-13.274,12.85-26.417,26.738-40.363,38.702l-0.439,0.351l-44.575-44.345
			L418.916,376.69z M359.248,430.822l-37.292,29.798l0.088-61.447L359.248,430.822"/>
		<path id="path2412" fill="#0094D2" d="M245.53,335.341l21.761-21.6l-1.227-0.971l-1.23-0.88l-0.702-0.531
			c-16.672-12.791-46.566-19.642-66.772-20.189l-5.266-0.088h-3.248c-42.101,1.591-71.703,17.814-92.22,54.929l-2.106,4.318
			l-1.841,4.498l-1.756,4.409l-1.49,4.583c-9.747,37.062-1.637,69.262,22.286,98.834l3.245,3.704l1.67,1.673
			c26.645,25.509,67.342,26.866,101.694,21.338l5.529-0.883l5.616-0.971l37.817-8.993v-33.236l0.088-6.792l0.439-6.344l0.263-1.41
			l0.525-1.148l0.702-1.057l0.968-0.795l7.106-6.879h-55.715l-21.325,11.728l39.838-2.205v43.995l-2.983,1.06l-1.581,0.529h-0.262
			l-0.178,0.089c-4.449,1.721-11.485,4.021-16.233,4.32h-0.173l-0.089,0.086l-0.528,0.177l-2.631,0.181l-1.405,0.084l-1.315,0.178
			h-1.493l-1.4,0.085l-2.985,0.178l-5.439-0.351l-5.178-0.443l-5.177-0.706l-4.826-0.878l-4.826-1.234l-4.563-1.322
			c-35.124-10.698-60.312-49.539-62.563-85.255l-0.263-4.852L114,381.451v-4.584l0.261-4.409
			c1.336-29.881,20.695-59.725,50.103-68.415l3.422-0.971l3.599-0.794c28.067-4.911,50.179,1.709,69.758,22.306l0.351,0.443
			l0.439,0.529l0.876,1.056l-6.582,10.935L245.53,335.341"/>
		<path id="path2414" fill="#00A651" d="M639.33,488.132h22.729V319.121H639.33V488.132z"/>
		<path id="path2434" fill="#9EA4AB" d="M177.175,522.517v-1.939l0.266-1.675c0.745-6.516,6.053-12.427,12.808-12.871h2.986
			c2.631-0.322,6.777,1.992,8.599,3.702l0.964,0.792l0.702,0.881l-1.315,2.207l1.929-0.444l4.389-4.582l-0.528-0.354
			c-41.137-21.672-53.043,44.546-7.195,35.972l7.723-1.941v-9.521l0.086-0.439l0.528-0.265l1.317-1.408h-11.407l-4.036,2.112
			l8.071-0.263v8.993l-0.703,0.174c-12.384,4.274-24.07-4.367-25.183-17.191V522.517"/>
		<path id="path2438" fill="#9EA4AB" d="M162.085,526.661h-5.265l-2.72,9.959l-0.351,1.146l-0.263,0.974l-0.173,0.79l-0.089,0.706
			h-0.354l-0.348-1.146l-0.177-0.971l-0.263-0.882l-0.178-0.617l-3.07-9.959h-5.529l6.758,17.542l0.174,0.971l-0.085,0.263
			l-0.089,0.441l-0.612,0.706l-0.529,0.705l-0.702,0.617l-0.351,0.265l-0.263,0.351l-1.493,0.795l-1.139,0.705l0.966,4.144
			l0.612-0.179c6.483-1.413,8.455-9.142,10.968-14.369L162.085,526.661"/>
		<path id="path2442" fill="#9EA4AB" d="M128.477,518.196h-5.088v27.42h4.124l0.263-2.647h0.263l0.351,0.617l0.528,0.619
			l1.315,1.057l1.493,0.532l1.841,0.351l1.578-0.267l0.702-0.263l0.354-0.177l0.174-0.088h0.262l1.405-0.878l0.617-0.532
			l0.702-0.528l0.174-0.352l0.088-0.18l0.177-0.086l0.525-0.531l0.614-1.407v-0.266l0.088-0.178l0.178-0.351l0.348-0.705
			l0.088-0.882c0.804-2.869,0.151-7.323-1.841-9.61l-0.614-0.705l-0.528-0.532l-0.705-0.528l-0.614-0.351l-0.791-0.355l-0.702-0.173
			h-1.578l-1.841,0.085l-0.878,0.178l-0.703,0.354l-1.315,0.878l-0.614,0.618l-0.439,0.794V518.196z M132.601,530.098l0.876,0.089
			c2.634,0.774,3.96,4.658,3.421,7.23l-0.173,0.529h-0.089v0.617l-0.436,1.056l-0.177,0.178h-0.089v0.265l-0.173,0.529l-0.703,0.617
			l-0.702,0.439l-0.878,0.266l-0.876,0.088l-0.964-0.088l-0.791-0.266l-0.702-0.439l-0.439-0.439l-0.614-0.706
			c-1.303-2.192-1.139-8.221,1.755-9.609l0.791-0.266L132.601,530.098"/>
		<path id="path2446" fill="#9EA4AB" d="M238.158,522.163l-0.966-0.967l-0.964-0.795c-17.141-9.534-30.569,13.775-13.949,23.365
			l1.227,0.439l1.404,0.351c11.473,2.429,20.428-8.762,15.265-19.305l-0.614-1.057L238.158,522.163z M231.839,521.369l0.702,0.794
			l0.702,0.971l0.617,1.06c1.187,2.522,2.064,5.04,2.368,7.845v2.204l-0.088,1.588l-0.177,1.675l-0.525,1.585l-0.614,1.588
			l-0.351,0.178l-0.178,0.085l-0.085,0.18l-0.529,0.525l-1.226,0.971l-1.581,0.528l-0.876,0.178l-0.702,0.089
			c-10.718-0.648-13.727-26.672,0.351-23.1l1.053,0.439L231.839,521.369"/>
		<path id="path2450" fill="#9EA4AB" d="M284.927,519.43l-1.227,0.263c-10.911,4.212-8.746,18.999,2.893,18.605l1.142-0.173
			l-0.44,1.053c0.066,2.389-0.534,1.532,0.791,4.147l0.79,0.88l-2.283,0.092l-1.315,0.088l-1.404,0.173
			c-5.866,0.47-12.621,6.419-8.95,12.52l0.614,0.705l1.404,1.237c5.351,4.071,13.926,2.873,19.126-0.883l0.79-0.883l0.703-0.794
			l0.616-0.88l0.525-0.883c3.593-9.28-2.861-9.733-6.492-14.723l-0.088-0.443l0.088-0.354v-0.88l0.439-0.794l0.876-1.057l0.79-0.792
			l0.876-0.618l1.405-1.587l0.177-0.617l0.263-0.529l0.351-1.144l0.263-1.237l0.088-1.234l-0.177-1.675l-0.174-1.411l-0.529-1.146
			l-0.524-0.795l-0.614-1.06l-0.529-0.616l-0.525-0.617l-0.527-0.263h3.248l3.422-2.204h-11.145l-2.369,0.085L284.927,519.43z
			 M282.559,522.78l0.79-0.88l0.964-0.616c1.86-0.833,4.124-0.47,5.528,1.055l0.525,0.618l1.053,1.587
			c1.004,1.772,2.261,7.621,1.23,9.52l-0.177,0.178h-0.089v0.266l-0.173,0.528l-0.529,0.263l-0.436,0.355l-0.88,0.616l-1.053,0.263
			l-0.525,0.088l-0.439,0.181l-0.876-0.181l-0.791-0.263l-0.702-0.353l-0.702-0.44c-2.828-1.906-4.727-7.903-3.684-11.02
			l0.351-0.967L282.559,522.78z M289.228,545.616h1.054c2.43,1.92,5.673,4.17,5.787,7.582l-0.085,0.529h-0.089v0.619l-0.351,1.054
			l-0.351,0.443l-0.263,0.532l-0.263,0.174l-0.177,0.265l-0.351,0.525l-0.351,0.092l-0.263,0.178l-0.614,0.351l-0.702,0.265
			l-0.702,0.351l-0.88,0.088l-0.788,0.178h-0.79l-0.174,0.089l-0.878,0.088l-2.018-0.178l-0.964-0.178l-0.79-0.177l-0.876-0.351
			c-8.49-3.478-5.151-12.645,4.911-12.52H289.228"/>
		<path id="path2454" fill="#9EA4AB" d="M269.219,522.163l-0.964-0.967l-0.964-0.795c-15.901-8.995-30.15,11.43-15.269,22.744
			l1.23,0.62l1.227,0.439c11.305,3.527,21.583-6.731,17.198-17.811l-1.054-2.201L269.219,522.163z M258.341,519.962l1.138,0.085
			l1.23,0.266l1.053,0.439l1.142,0.617l0.698,0.794l0.617,0.971l1.053,2.201l0.437,1.06l0.177,0.532v0.088l0.086,0.174l0.177,0.354
			l0.614,2.293l0.178,1.056l0.173,1.146v1.85l0.088,0.354l-0.088,1.588l-0.173,1.675l-0.44,1.585l-0.614,1.588l-1.229,0.968
			l-0.703,0.444l-0.614,0.528h-0.262c-10.647,4.987-16.476-18.776-7.283-22.217l1.141-0.354L258.341,519.962"/>
		<path id="path2458" fill="#9EA4AB" d="M338.979,525.335l-0.439-1.233l-0.263-0.705c-3.822-8.418-18.824-6.013-20.622,4.76
			l-0.259,1.412l-0.089,1.675l0.089,1.41c0.482,4.274,2.781,8.37,6.404,10.754l0.964,0.532l1.929,0.878
			c2.686-0.029,4.344,0.568,7.197-0.439l1.227-0.439l0.178-0.177v-0.089h0.263l0.528-0.178l0.174-0.177v-0.086h0.263l0.528-0.177
			l2.72-2.821l-2.72,1.234l-0.528,0.088l-0.437,0.177l-0.88,0.266l-1.053,0.173h-0.79l-0.174,0.089l-0.964-0.089l-0.88-0.173
			c-3.339-0.741-5.853-3.504-7.372-6.437l-0.964-2.119l-0.614-2.202l3.861-0.616L338.979,525.335z M324.324,521.724l0.44-0.444
			l0.524-0.263c1.726-0.625,1.398-1.447,3.865-0.882l1.054,0.44l0.876,0.441l0.964,0.706l0.528,0.616l0.437,0.791l0.265,0.882
			l0.086,0.971l-0.086,0.351l-0.177,0.178h-0.088v0.266l-0.437,0.354l-0.528,0.351l-10.004,4.318v-3.085
			c-0.173-1.893,0.302-3.53,1.405-5.026L324.324,521.724"/>
		<path id="path2462" fill="#9EA4AB" d="M311.603,508.406l0.262-1.499l0.178-0.617l0.351-0.262l0.614-0.53l1.053-0.531h-7.457
			l-4.127,1.939h4.127l-0.088,2.031v2.205l-0.178,4.757l-0.174,4.408l-0.088,4.234l-0.088,3.969v12.697l-0.085,0.704l-0.178,0.706
			l-0.263,0.174l-0.177,0.353l-0.348,0.44l-0.266,0.617h9.389l1.929-1.146l-2.807-0.265l-0.966-0.351l-0.612-0.44l-0.178-0.266
			l-0.085-0.439l-0.089-0.617v-13.402l-0.177-3.087c-0.023-4.084,0.036-8.172,0.177-12.256l0.174-1.85L311.603,508.406"/>
	</g>
</g>
</svg>
