<?xml version="1.0" encoding="utf-8"?>
<!-- Generator: Adobe Illustrator 16.0.0, SVG Export Plug-In . SVG Version: 6.00 Build 0)  -->
<!DOCTYPE svg PUBLIC "-//W3C//DTD SVG 1.1//EN" "http://www.w3.org/Graphics/SVG/1.1/DTD/svg11.dtd">
<svg version="1.1"
	 id="svg249" xmlns:sodipodi="http://sodipodi.sourceforge.net/DTD/sodipodi-0.dtd" xmlns:inkscape="http://www.inkscape.org/namespaces/inkscape" xmlns:dc="http://purl.org/dc/elements/1.1/" xmlns:svg="http://www.w3.org/2000/svg" xmlns:rdf="http://www.w3.org/1999/02/22-rdf-syntax-ns#" xmlns:cc="http://creativecommons.org/ns#" sodipodi:version="0.32" sodipodi:docname="edit-find.svg" inkscape:version="0.46" sodipodi:docbase="/home/jimmac/src/cvs/tango-icon-theme/scalable/actions" inkscape:output_extension="org.inkscape.output.svg.inkscape" inkscape:export-ydpi="90.000000" inkscape:export-xdpi="90.000000" inkscape:export-filename="/home/steven/edit-find-48.png"
	 xmlns="http://www.w3.org/2000/svg" xmlns:xlink="http://www.w3.org/1999/xlink" x="0px" y="0px" width="48px" height="48px"
	 viewBox="0 0 48 48" enable-background="new 0 0 48 48" xml:space="preserve">
<defs>
	
	
		<inkscape:perspective  inkscape:vp_x="0 : 24 : 1" inkscape:vp_y="0 : 1000 : 0" inkscape:vp_z="48 : 24 : 1" id="perspective113" sodipodi:type="inkscape:persp3d" inkscape:persp3d-origin="24 : 16 : 1">
		</inkscape:perspective>
</defs>
<sodipodi:namedview  inkscape:cx="25.938708" inkscape:cy="14.980943" inkscape:zoom="1" showgrid="true" borderopacity="0.25490196" pagecolor="#ffffff" bordercolor="#666666" id="base" inkscape:window-y="30" inkscape:window-x="418" inkscape:window-height="818" inkscape:window-width="1016" inkscape:showpageshadow="false" inkscape:document-units="px" inkscape:grid-bbox="true" inkscape:current-layer="layer6" inkscape:pageshadow="2" inkscape:pageopacity="0.0">
	</sodipodi:namedview>
<g id="layer1" inkscape:label="Base" inkscape:groupmode="layer">
	
		<radialGradient id="rect15391_1_" cx="45.5449" cy="27.9395" r="86.7088" gradientTransform="matrix(0.9605 0 0 -1.0411 -11.1212 66.297)" gradientUnits="userSpaceOnUse">
		<stop  offset="0" style="stop-color:#FAFAFA"/>
		<stop  offset="1" style="stop-color:#BBBBBB"/>
	</radialGradient>
	
		<radialGradient id="rect15391_2_" cx="18.0488" cy="57.0303" r="37.7517" gradientTransform="matrix(0.9683 0 0 -1.0328 -5.5776 63.426)" gradientUnits="userSpaceOnUse">
		<stop  offset="0" style="stop-color:#A3A3A3"/>
		<stop  offset="1" style="stop-color:#4C4C4C"/>
	</radialGradient>
	<path id="rect15391" fill="url(#rect15391_1_)" stroke="url(#rect15391_2_)" stroke-linecap="round" stroke-linejoin="round" d="
		M7.752,3.646H40.33c0.634,0,1.148,0.515,1.148,1.149v38.623c0,0.635-0.515,1.148-1.148,1.148H7.752
		c-0.634,0-1.149-0.514-1.149-1.148V4.795C6.604,4.161,7.118,3.646,7.752,3.646z"/>
	
		<radialGradient id="rect15660_1_" cx="17.3677" cy="53.5195" r="38.1587" gradientTransform="matrix(0.9683 0 0 -1.0328 -5.5776 63.426)" gradientUnits="userSpaceOnUse">
		<stop  offset="0" style="stop-color:#FFFFFF"/>
		<stop  offset="1" style="stop-color:#F8F8F8"/>
	</radialGradient>
	<path id="rect15660" fill="none" stroke="url(#rect15660_1_)" stroke-linecap="round" stroke-linejoin="round" d="M7.815,4.584
		h32.478c0.082,0,0.148,0.067,0.148,0.149v38.648c0,0.083-0.066,0.149-0.148,0.149H7.815c-0.082,0-0.149-0.066-0.149-0.149V4.733
		C7.666,4.651,7.733,4.584,7.815,4.584z"/>
	<g id="g2270" transform="translate(0.646447,-3.798933e-2)">
		<g id="g1440" transform="matrix(0.229703,0.000000,0.000000,0.229703,4.967081,4.244972)">
			<path id="path1448" fill="#FFFFFF" d="M23.428,113.071c0,1.973-1.601,3.571-3.573,3.571c-1.975,0-3.573-1.599-3.573-3.571
				s1.601-3.571,3.573-3.571S23.428,111.098,23.428,113.071z"/>
			<path id="path1456" fill="#FFFFFF" d="M23.428,63.07c0,1.973-1.601,3.573-3.573,3.573c-1.975,0-3.573-1.601-3.573-3.573
				s1.601-3.573,3.573-3.573S23.428,61.097,23.428,63.07z"/>
		</g>
		
			<radialGradient id="path15570_1_" cx="964.2422" cy="-1311.3359" r="5.2534" gradientTransform="matrix(0.2297 0 0 -0.2297 -212.077 -270.9216)" gradientUnits="userSpaceOnUse">
			<stop  offset="0" style="stop-color:#F0F0F0"/>
			<stop  offset="1" style="stop-color:#9A9A9A"/>
		</radialGradient>
		<path id="path15570" fill="url(#path15570_1_)" d="M9.995,29.952c0,0.453-0.368,0.82-0.821,0.82c-0.454,0-0.821-0.367-0.821-0.82
			s0.368-0.82,0.821-0.82S9.995,29.499,9.995,29.952z"/>
		
			<radialGradient id="path15577_1_" cx="964.2422" cy="-1261.335" r="5.2568" gradientTransform="matrix(0.2297 0 0 -0.2297 -212.077 -270.9216)" gradientUnits="userSpaceOnUse">
			<stop  offset="0" style="stop-color:#F0F0F0"/>
			<stop  offset="1" style="stop-color:#9A9A9A"/>
		</radialGradient>
		<path id="path15577" fill="url(#path15577_1_)" d="M9.995,18.467c0,0.453-0.368,0.821-0.821,0.821
			c-0.454,0-0.821-0.368-0.821-0.821c0-0.454,0.368-0.821,0.821-0.821S9.995,18.014,9.995,18.467z"/>
	</g>
	<path id="path15672" sodipodi:nodetypes="cc" fill="none" stroke="#000000" stroke-width="0.9886" stroke-opacity="0.0175" d="
		M11.506,5.494V43.4"/>
	<path id="path15674" sodipodi:nodetypes="cc" fill="none" stroke="#FFFFFF" stroke-opacity="0.2047" d="M12.5,5.021v38.018"/>
</g>
<g id="g2253" transform="matrix(0.909091,0.000000,0.000000,1.000000,2.363628,0.000000)">
	<path id="rect15686" fill="#9B9B9B" fill-opacity="0.5497" d="M15.151,9h21.697C36.932,9,37,9.029,37,9.065v0.869
		C37,9.971,36.932,10,36.849,10H15.151C15.068,10,15,9.971,15,9.935V9.065C15,9.029,15.068,9,15.151,9z"/>
	<path id="rect15688" fill="#9B9B9B" fill-opacity="0.5497" d="M15.151,11h21.697C36.932,11,37,11.029,37,11.065v0.869
		C37,11.971,36.932,12,36.849,12H15.151C15.068,12,15,11.971,15,11.935v-0.869C15,11.029,15.068,11,15.151,11z"/>
	<path id="rect15690" fill="#9B9B9B" fill-opacity="0.5497" d="M15.151,13h21.697C36.932,13,37,13.029,37,13.065v0.869
		C37,13.971,36.932,14,36.849,14H15.151C15.068,14,15,13.971,15,13.935v-0.869C15,13.029,15.068,13,15.151,13z"/>
	<path id="rect15692" fill="#9B9B9B" fill-opacity="0.5497" d="M15.151,15h21.697C36.932,15,37,15.029,37,15.065v0.869
		C37,15.971,36.932,16,36.849,16H15.151C15.068,16,15,15.971,15,15.935v-0.869C15,15.029,15.068,15,15.151,15z"/>
	<path id="rect15694" fill="#9B9B9B" fill-opacity="0.5497" d="M15.151,17h21.697C36.932,17,37,17.029,37,17.065v0.869
		C37,17.971,36.932,18,36.849,18H15.151C15.068,18,15,17.971,15,17.935v-0.869C15,17.029,15.068,17,15.151,17z"/>
	<path id="rect15696" fill="#9B9B9B" fill-opacity="0.5497" d="M15.151,19h21.697C36.932,19,37,19.029,37,19.065v0.869
		C37,19.971,36.932,20,36.849,20H15.151C15.068,20,15,19.971,15,19.935v-0.869C15,19.029,15.068,19,15.151,19z"/>
	<path id="rect15698" fill="#9B9B9B" fill-opacity="0.5497" d="M15.151,21h21.697C36.932,21,37,21.029,37,21.065v0.869
		C37,21.971,36.932,22,36.849,22H15.151C15.068,22,15,21.971,15,21.935v-0.869C15,21.029,15.068,21,15.151,21z"/>
	<path id="rect15700" fill="#9B9B9B" fill-opacity="0.5497" d="M15.151,23h21.697C36.932,23,37,23.029,37,23.065v0.869
		C37,23.971,36.932,24,36.849,24H15.151C15.068,24,15,23.971,15,23.935v-0.869C15,23.029,15.068,23,15.151,23z"/>
	<path id="rect15732" fill="#9B9B9B" fill-opacity="0.5497" d="M15.068,25h9.763c0.039,0,0.069,0.029,0.069,0.065v0.869
		c0,0.036-0.03,0.065-0.069,0.065h-9.763C15.031,26,15,25.971,15,25.935v-0.869C15,25.029,15.031,25,15.068,25z"/>
	<path id="rect15736" fill="#9B9B9B" fill-opacity="0.5497" d="M15.151,29h21.697C36.932,29,37,29.029,37,29.065v0.869
		C37,29.971,36.932,30,36.849,30H15.151C15.068,30,15,29.971,15,29.935v-0.869C15,29.029,15.068,29,15.151,29z"/>
	<path id="rect15738" fill="#9B9B9B" fill-opacity="0.5497" d="M15.151,31h21.697C36.932,31,37,31.029,37,31.065v0.869
		C37,31.971,36.932,32,36.849,32H15.151C15.068,32,15,31.971,15,31.935v-0.869C15,31.029,15.068,31,15.151,31z"/>
	<path id="rect15740" fill="#9B9B9B" fill-opacity="0.5497" d="M15.151,33h21.697C36.932,33,37,33.029,37,33.065v0.869
		C37,33.971,36.932,34,36.849,34H15.151C15.068,34,15,33.971,15,33.935v-0.869C15,33.029,15.068,33,15.151,33z"/>
	<path id="rect15742" fill="#9B9B9B" fill-opacity="0.5497" d="M15.151,35h21.697C36.932,35,37,35.029,37,35.065v0.869
		C37,35.971,36.932,36,36.849,36H15.151C15.068,36,15,35.971,15,35.935v-0.869C15,35.029,15.068,35,15.151,35z"/>
	<path id="rect15744" fill="#9B9B9B" fill-opacity="0.5497" d="M15.106,37h15.187c0.059,0,0.106,0.029,0.106,0.065v0.869
		c0,0.036-0.047,0.065-0.106,0.065H15.106C15.047,38,15,37.971,15,37.935v-0.869C15,37.029,15.047,37,15.106,37z"/>
</g>
<linearGradient id="path2844_1_" gradientUnits="userSpaceOnUse" x1="168.9013" y1="-164.4419" x2="172.871" y2="-168.4193" gradientTransform="matrix(0.6654 0 0 -0.6654 -78.2101 -73.8007)">
	<stop  offset="0" style="stop-color:#8A8A8A"/>
	<stop  offset="1" style="stop-color:#484848"/>
</linearGradient>
<path id="path2844" sodipodi:nodetypes="csscccscccscczzzz" fill="#DCDCDC" stroke="url(#path2844_1_)" stroke-width="3.0058" stroke-linecap="round" stroke-miterlimit="10" d="
	M28.381,20c-5.416,0-9.811,4.396-9.811,9.811c0,5.416,4.396,9.811,9.811,9.811c2.314,0,4.359-0.92,6.037-2.264
	c-0.137,0.67-0.052,1.354,0.504,1.836l7.295,6.34c0.82,0.713,2.055,0.619,2.768-0.201s0.619-2.055-0.201-2.768l-7.296-6.339
	c-0.446-0.388-0.993-0.503-1.534-0.428c1.322-1.671,2.238-3.692,2.238-5.987C38.191,24.396,33.797,20,28.381,20z M28.33,20.816
	c5.084,0,8.844,3.187,8.844,8.844c0,5.771-3.869,8.844-8.844,8.844c-4.859,0-8.844-3.645-8.844-8.844
	C19.486,24.348,23.362,20.816,28.33,20.816z"/>
<path id="path4430" fill="#DCDCDC" d="M28.364,19.958c-5.433,0-9.842,4.409-9.842,9.843c0,5.433,4.409,9.842,9.842,9.842
	c2.323,0,4.373-0.924,6.058-2.271c-0.138,0.673-0.053,1.359,0.504,1.843l7.319,6.36c0.823,0.715,2.061,0.621,2.776-0.202
	c0.715-0.823,0.621-2.062-0.202-2.776L37.5,36.236c-0.447-0.39-0.996-0.505-1.539-0.43c1.326-1.677,2.246-3.703,2.246-6.006
	C38.207,24.367,33.797,19.958,28.364,19.958z M28.314,22.078c4.179,0,7.57,3.392,7.57,7.57c0,4.18-3.392,7.572-7.57,7.572
	c-4.18,0-7.572-3.393-7.572-7.572C20.743,25.47,24.135,22.078,28.314,22.078z"/>
<linearGradient id="path4438_1_" gradientUnits="userSpaceOnUse" x1="65.8642" y1="-45.6255" x2="68.4267" y2="-42.688" gradientTransform="matrix(0.888 0 0 -0.8592 -20.1797 2.7363)">
	<stop  offset="0" style="stop-color:#7D7D7D"/>
	<stop  offset="0.5" style="stop-color:#B1B1B1"/>
	<stop  offset="1" style="stop-color:#686868"/>
</linearGradient>
<path id="path4438" sodipodi:nodetypes="ccccc" fill="url(#path4438_1_)" d="M42.273,45.573c-0.318-1.513,0.93-3.202,2.385-3.187
	l-7.16-6.16c-1.959-0.037-2.84,1.513-2.513,3.061L42.273,45.573z"/>
<linearGradient id="path4450_1_" gradientUnits="userSpaceOnUse" x1="75.9599" y1="-41.2627" x2="75.1682" y2="-53.404" gradientTransform="matrix(0.8289 0 0 -0.8289 -34.4603 -9.1539)">
	<stop  offset="0" style="stop-color:#FFFFFF"/>
	<stop  offset="0.5" style="stop-color:#FFFFFF;stop-opacity:0.219"/>
	<stop  offset="1" style="stop-color:#FFFFFF"/>
</linearGradient>
<path id="path4450" sodipodi:type="arc" sodipodi:rx="11.048544" sodipodi:cx="17.500893" sodipodi:ry="11.048544" sodipodi:cy="18.920233" fill="none" stroke="url(#path4450_1_)" stroke-width="1.2064" stroke-linecap="round" stroke-miterlimit="10" d="
	M37.371,29.48c0,5.059-4.1,9.158-9.158,9.158c-5.057,0-9.157-4.1-9.157-9.158c0-5.057,4.1-9.157,9.157-9.157
	C33.271,20.323,37.371,24.423,37.371,29.48z"/>
<path id="rect4495" opacity="0.4332" fill="none" stroke="#FFFFFF" stroke-width="1.503" stroke-linecap="round" stroke-miterlimit="10" enable-background="new    " d="
	M37.762,37.063l6.326,5.528c0.889,0.776,1.18,1.909,0.65,2.53l0,0c-0.529,0.621-1.679,0.494-2.567-0.282l-6.325-5.528
	c-0.889-0.776-1.18-1.909-0.65-2.529l0,0C35.725,36.16,36.874,36.286,37.762,37.063z"/>
<radialGradient id="path4452_1_" cx="39.2324" cy="-0.521" r="8.3086" gradientTransform="matrix(0.9306 0 0 -0.9306 -7.6898 32.206)" gradientUnits="userSpaceOnUse">
	<stop  offset="0" style="stop-color:#729FCF;stop-opacity:0.2078"/>
	<stop  offset="1" style="stop-color:#729FCF;stop-opacity:0.6762"/>
</radialGradient>
<path id="path4452" sodipodi:type="arc" sodipodi:rx="8.3085051" sodipodi:cx="17.589281" sodipodi:ry="8.3085051" sodipodi:cy="18.478292" fill="url(#path4452_1_)" stroke="#3063A3" stroke-width="1.0746" stroke-linecap="round" stroke-miterlimit="10" d="
	M35.945,29.582c0.002,4.271-3.459,7.733-7.729,7.735c-4.271,0.001-7.733-3.459-7.735-7.729c0-0.002,0-0.004,0-0.006
	c-0.001-4.27,3.459-7.733,7.729-7.734c4.27-0.001,7.732,3.459,7.734,7.729C35.945,29.578,35.945,29.58,35.945,29.582z"/>
<radialGradient id="path4462_1_" cx="-102.9248" cy="159.5059" r="6.6563" gradientTransform="matrix(1.7253 0 0 -1.4985 203.4839 263.9253)" gradientUnits="userSpaceOnUse">
	<stop  offset="0" style="stop-color:#FFFFFF"/>
	<stop  offset="1" style="stop-color:#FFFFFF;stop-opacity:0.2476"/>
</radialGradient>
<path id="path4462" opacity="0.8342" fill="url(#path4462_1_)" enable-background="new    " d="M28.068,22.83
	c-3.466,0-6.271,2.806-6.271,6.271c0,1.001,0.28,1.922,0.697,2.762c0.833,0.307,1.718,0.516,2.658,0.516
	c4.106,0,7.386-3.234,7.639-7.277C31.639,23.74,29.988,22.83,28.068,22.83z"/>
</svg>
