<?xml version="1.0" encoding="utf-8"?>
<!-- Generator: Adobe Illustrator 16.0.0, SVG Export Plug-In . SVG Version: 6.00 Build 0)  -->
<!DOCTYPE svg PUBLIC "-//W3C//DTD SVG 1.1//EN" "http://www.w3.org/Graphics/SVG/1.1/DTD/svg11.dtd">
<svg version="1.1"
	 id="svg2327" xmlns:sodipodi="http://sodipodi.sourceforge.net/DTD/sodipodi-0.dtd" xmlns:inkscape="http://www.inkscape.org/namespaces/inkscape" xmlns:dc="http://purl.org/dc/elements/1.1/" xmlns:svg="http://www.w3.org/2000/svg" xmlns:rdf="http://www.w3.org/1999/02/22-rdf-syntax-ns#" xmlns:cc="http://creativecommons.org/ns#" sodipodi:version="0.32" sodipodi:docname="network-transmit-receive.svg" inkscape:version="0.46" sodipodi:docbase="/home/jimmac/src/cvs/tango-icon-theme/scalable/status" inkscape:output_extension="org.inkscape.output.svg.inkscape"
	 xmlns="http://www.w3.org/2000/svg" xmlns:xlink="http://www.w3.org/1999/xlink" x="0px" y="0px" width="48px" height="48px"
	 viewBox="0 0 48 48" enable-background="new 0 0 48 48" xml:space="preserve">
<defs>
	
	
		<inkscape:perspective  inkscape:vp_x="0 : 24 : 1" inkscape:vp_y="0 : 1000 : 0" inkscape:vp_z="48 : 24 : 1" id="perspective144" sodipodi:type="inkscape:persp3d" inkscape:persp3d-origin="24 : 16 : 1">
		</inkscape:perspective>
</defs>
<sodipodi:namedview  inkscape:cx="83.297457" inkscape:cy="44.12705" inkscape:zoom="4" showgrid="true" borderopacity="0.12156863" pagecolor="#ffffff" bordercolor="#666666" id="base" inkscape:window-y="30" inkscape:window-x="612" inkscape:window-height="818" inkscape:window-width="822" inkscape:showpageshadow="false" inkscape:document-units="px" inkscape:grid-bbox="true" inkscape:current-layer="layer1" inkscape:pageshadow="2" inkscape:pageopacity="0.0">
	</sodipodi:namedview>
<path id="path3959" sodipodi:type="arc" sodipodi:rx="9.3944187" sodipodi:cx="-35.658386" sodipodi:ry="3.9395950" sodipodi:cy="29.716238" fill="#ADB0AA" stroke="#4B4D4A" stroke-width="1.2831" d="
	M31.806,33.146c0,2.164-4.182,3.917-9.341,3.917c-5.158,0-9.34-1.753-9.34-3.917l0,0c0-2.163,4.183-3.917,9.34-3.917
	C27.624,29.229,31.806,30.983,31.806,33.146z"/>
<path id="path3961" sodipodi:type="arc" sodipodi:rx="9.3944187" sodipodi:cx="-35.658386" sodipodi:ry="3.9395950" sodipodi:cy="29.716238" fill="none" stroke="#7B7F7A" stroke-width="1.2831" d="
	M31.246,32.443c0,2.034-3.932,3.683-8.781,3.683s-8.781-1.648-8.781-3.683l0,0c0-2.034,3.932-3.684,8.781-3.684
	S31.246,30.409,31.246,32.443z"/>
<linearGradient id="path3963_1_" gradientUnits="userSpaceOnUse" x1="-15.4082" y1="1959.2422" x2="-15.4082" y2="1952.8618" gradientTransform="matrix(0.8526 0 0 0.3826 35.6015 -714.397)">
	<stop  offset="0" style="stop-color:#D8DFD6"/>
	<stop  offset="1" style="stop-color:#D8DFD6;stop-opacity:0"/>
</linearGradient>
<path id="path3963" sodipodi:type="arc" sodipodi:rx="9.3944187" sodipodi:cx="-35.658386" sodipodi:ry="3.9395950" sodipodi:cy="29.716238" fill="none" stroke="url(#path3963_1_)" stroke-width="0.8734" d="
	M31.246,31.696c0,2.035-3.932,3.684-8.781,3.684s-8.781-1.648-8.781-3.684l0,0c0-2.034,3.932-3.683,8.781-3.683
	S31.246,29.662,31.246,31.696z"/>
<path id="path3965" sodipodi:nodetypes="ccccccccccccccccc" fill="#D0D0D0" stroke="#979797" stroke-width="0.5133" stroke-linejoin="round" d="
	M26.256,29.017l-0.063,0.994c0,0,4.298,3.579,8.949,4.178c2.323,0.302,4.725,0.699,6.71,1.181c1.985,0.484,3.568,1.114,4.102,1.647
	c0.308,0.31,0.447,0.57,0.496,0.777c0.05,0.207,0.039,0.353-0.092,0.558c-0.263,0.414-1.075,0.964-2.455,1.398
	c-2.76,0.874-7.676,1.43-14.48,1.43v0.994c6.856,0,11.795-0.524,14.759-1.46c1.482-0.468,2.511-1.009,3.015-1.803
	c0.251-0.396,0.353-0.884,0.247-1.335c-0.105-0.453-0.384-0.88-0.777-1.275c-0.872-0.872-2.522-1.396-4.567-1.893
	c-2.045-0.499-4.489-0.911-6.835-1.215C30.574,32.589,26.256,29.017,26.256,29.017z"/>
<radialGradient id="path3967_1_" cx="-146.7715" cy="1750.9023" r="11.1917" gradientTransform="matrix(1.1697 0 0 0.4318 194.5072 -726.7495)" gradientUnits="userSpaceOnUse">
	<stop  offset="0" style="stop-color:#000000"/>
	<stop  offset="1" style="stop-color:#000000;stop-opacity:0"/>
</radialGradient>
<path id="path3967" sodipodi:type="arc" sodipodi:rx="16.882174" sodipodi:cx="24.218407" sodipodi:ry="4.5520000" sodipodi:cy="35.051105" fill="url(#path3967_1_)" d="
	M39.613,29.209c0.002,3.423-7.51,6.198-16.78,6.199c-9.271,0-16.787-2.772-16.79-6.193c0-0.002,0-0.004,0-0.006
	c-0.004-3.421,7.509-6.194,16.779-6.196c9.271-0.003,16.787,2.773,16.791,6.193V29.209z"/>
<linearGradient id="rect3969_1_" gradientUnits="userSpaceOnUse" x1="-118.4883" y1="2248.6328" x2="-118.5891" y2="2263.1196" gradientTransform="matrix(1.1032 0 0 0.3344 153.3601 -722.2374)">
	<stop  offset="0" style="stop-color:#585956"/>
	<stop  offset="1" style="stop-color:#BBBEB8"/>
</linearGradient>
<rect id="rect3969" x="18.088" y="30.944" fill="url(#rect3969_1_)" width="8.987" height="2.723"/>
<linearGradient id="path3971_1_" gradientUnits="userSpaceOnUse" x1="180.6572" y1="1316.2412" x2="214.0474" y2="1349.5518" gradientTransform="matrix(0.6862 0 0 0.5376 -115.6642 -701.7416)">
	<stop  offset="0" style="stop-color:#DDE1D9"/>
	<stop  offset="1" style="stop-color:#CACDC6"/>
</linearGradient>
<linearGradient id="path3971_2_" gradientUnits="userSpaceOnUse" x1="201.8457" y1="1282.8242" x2="229.9291" y2="1315.6226" gradientTransform="matrix(0.6708 0 0 0.55 -124.3191 -699.4117)">
	<stop  offset="0" style="stop-color:#8F8F8F"/>
	<stop  offset="1" style="stop-color:#494949"/>
</linearGradient>
<path id="path3971" sodipodi:nodetypes="cssssssss" fill="url(#path3971_1_)" stroke="url(#path3971_2_)" stroke-width="1.2831" d="
	M7.756,2.103h29.417c0.906,0,1.614,0.58,1.657,1.394l1.324,25.43c0.061,1.111-0.896,2.008-2.006,2.008H6.783
	c-1.113,0-2.066-0.896-2.009-2.008l1.323-25.43C6.139,2.727,6.643,2.103,7.756,2.103z"/>
<linearGradient id="path3973_1_" gradientUnits="userSpaceOnUse" x1="454.8066" y1="1556.084" x2="454.8728" y2="1526.3208" gradientTransform="matrix(0.4734 0 0 0.4734 -193.6991 -712.1571)">
	<stop  offset="0" style="stop-color:#416DB4"/>
	<stop  offset="1" style="stop-color:#385E9B"/>
</linearGradient>
<path id="path3973" sodipodi:nodetypes="ccccc" fill="url(#path3973_1_)" stroke="#4263A8" stroke-width="0.6416" stroke-linejoin="round" d="
	M9.078,4.697l-1.235,21.92h27.49L34.007,4.79L9.078,4.697z"/>
<linearGradient id="path3975_1_" gradientUnits="userSpaceOnUse" x1="-475.687" y1="7292.5078" x2="-475.687" y2="7283.6602" gradientTransform="matrix(3.4652 0 0 0.1065 1670.8191 -746.8922)">
	<stop  offset="0" style="stop-color:#000000"/>
	<stop  offset="1" style="stop-color:#000000;stop-opacity:0"/>
</linearGradient>
<path id="path3975" fill="none" stroke="url(#path3975_1_)" stroke-width="1.2782" stroke-linecap="round" stroke-opacity="0.2484" d="
	M6.857,28.985h31.246"/>
<linearGradient id="path3977_1_" gradientUnits="userSpaceOnUse" x1="211.6162" y1="1299.3682" x2="233.5075" y2="1352.8363" gradientTransform="matrix(0.673 0 0 0.5481 -122.0993 -698.8049)">
	<stop  offset="0" style="stop-color:#FFFFFF"/>
	<stop  offset="1" style="stop-color:#FFFFFF;stop-opacity:0"/>
</linearGradient>
<path id="path3977" sodipodi:nodetypes="cssssssss" fill="none" stroke="url(#path3977_1_)" stroke-width="1.2831" stroke-opacity="0.7006" d="
	M7.591,3.107l29.672-0.038c0.283-0.001,0.559,0.235,0.581,0.649l1.354,24.66c0.057,1.05-0.538,1.775-1.59,1.775H7.26
	c-1.053,0-1.584-0.726-1.526-1.775L7.049,4.025C7.087,3.313,7.215,3.107,7.591,3.107z"/>
<linearGradient id="path3979_1_" gradientUnits="userSpaceOnUse" x1="117.0234" y1="1288.8984" x2="124.3047" y2="1320.8899" gradientTransform="matrix(0.7525 0 0 0.5442 -71.3677 -701.0662)">
	<stop  offset="0" style="stop-color:#FFFFFF"/>
	<stop  offset="1" style="stop-color:#FCFCFF;stop-opacity:0"/>
</linearGradient>
<path id="path3979" sodipodi:nodetypes="ccccc" opacity="0.5314" fill="url(#path3979_1_)" enable-background="new    " d="
	M9.376,5.135L8.578,22.903c10.982-2.388,11.356-10.433,25.01-13.072L33.428,5.2L9.376,5.135z"/>
<radialGradient id="path3981_1_" cx="-246.6646" cy="1863.8291" r="11.1843" gradientTransform="matrix(1.479 0 0 0.4073 389.7844 -717.6471)" gradientUnits="userSpaceOnUse">
	<stop  offset="0" style="stop-color:#000000"/>
	<stop  offset="1" style="stop-color:#000000;stop-opacity:0"/>
</radialGradient>
<path id="path3981" sodipodi:type="arc" sodipodi:rx="16.882174" sodipodi:cx="24.218407" sodipodi:ry="4.5520000" sodipodi:cy="35.051105" fill="url(#path3981_1_)" d="
	M46.202,41.438c0.007,3.229-9.493,5.845-21.215,5.847c-11.721,0-21.227-2.614-21.23-5.842v-0.005
	c-0.003-3.228,9.495-5.844,21.216-5.844c11.723-0.003,21.228,2.614,21.229,5.84C46.202,41.436,46.202,41.438,46.202,41.438z"/>
<linearGradient id="path3983_1_" gradientUnits="userSpaceOnUse" x1="199.7715" y1="1311.1924" x2="199.5926" y2="1316.1589" gradientTransform="matrix(0.6862 0 0 0.5664 -114.3976 -699.6394)">
	<stop  offset="0" style="stop-color:#DDE1D9"/>
	<stop  offset="1" style="stop-color:#CACDC6"/>
</linearGradient>
<linearGradient id="path3983_2_" gradientUnits="userSpaceOnUse" x1="178.6445" y1="1232.1436" x2="206.6467" y2="1264.8469" gradientTransform="matrix(0.6708 0 0 0.5794 -124.3191 -698.2382)">
	<stop  offset="0" style="stop-color:#8F8F8F"/>
	<stop  offset="1" style="stop-color:#494949"/>
</linearGradient>
<path id="path3983" sodipodi:nodetypes="cssssssss" fill="url(#path3983_1_)" stroke="url(#path3983_2_)" stroke-width="1.2831" d="
	M7.141,36.473h30.824c1.111,0,0.972,0.285,1.087,0.643l2.817,8.825c0.115,0.356,0.026,0.64-1.085,0.64H4.321
	c-1.112,0-1.199-0.283-1.085-0.64l2.818-8.825C6.169,36.758,6.028,36.473,7.141,36.473z"/>
<path id="path3985" sodipodi:nodetypes="ccccccccc" fill="#7A7D77" d="M7.071,39.022l-1.758,5.096h5.448l0.527-2.022h14.765
	l0.546,2.063h6.131l-1.669-5.137H7.071z"/>
<path id="path3987" fill="#777874" d="M11.728,42.449l-0.439,1.669h14.677l-0.44-1.758L11.728,42.449z"/>
<path id="path3989" fill="#777A75" d="M38.092,39.022l1.669,5.008l-5.449-0.086l-1.49-4.834L38.092,39.022z"/>
<linearGradient id="path3991_1_" gradientUnits="userSpaceOnUse" x1="-220.6318" y1="2921.8838" x2="-220.6318" y2="2936.8" gradientTransform="matrix(1.403 0 0 0.2629 345.83 -729.7941)">
	<stop  offset="0" style="stop-color:#9D9D9D"/>
	<stop  offset="1" style="stop-color:#B9B9B9"/>
</linearGradient>
<path id="path3991" fill="url(#path3991_1_)" d="M38.092,38.493l1.669,5.01l-5.449-0.088l-1.49-4.832L38.092,38.493z"/>
<linearGradient id="path3993_1_" gradientUnits="userSpaceOnUse" x1="-232.9404" y1="2921.8896" x2="-232.9404" y2="2936.7969" gradientTransform="matrix(1.403 0 0 0.2629 345.83 -729.7941)">
	<stop  offset="0" style="stop-color:#9D9D9D"/>
	<stop  offset="1" style="stop-color:#B9B9B9"/>
</linearGradient>
<path id="path3993" sodipodi:nodetypes="ccccccccc" fill="url(#path3993_1_)" d="M7.071,38.407l-1.758,5.096h5.448l0.527-2.022
	h14.765l0.546,2.063h6.131l-1.669-5.137H7.071z"/>
<linearGradient id="path3995_1_" gradientUnits="userSpaceOnUse" x1="-233.2222" y1="2921.9014" x2="-233.2222" y2="2936.8042" gradientTransform="matrix(1.403 0 0 0.2629 345.83 -729.7941)">
	<stop  offset="0" style="stop-color:#9D9D9D"/>
	<stop  offset="1" style="stop-color:#B9B9B9"/>
</linearGradient>
<path id="path3995" fill="url(#path3995_1_)" d="M11.728,41.922l-0.439,1.669h14.677l-0.44-1.757L11.728,41.922z"/>
<linearGradient id="path3997_1_" gradientUnits="userSpaceOnUse" x1="-191.7598" y1="2692.6396" x2="-198.0723" y2="2658.1802" gradientTransform="matrix(1.2872 0 0 0.2879 272.377 -728.2264)">
	<stop  offset="0" style="stop-color:#F9FFF5"/>
	<stop  offset="1" style="stop-color:#F9FFF5;stop-opacity:0"/>
</linearGradient>
<path id="path3997" sodipodi:nodetypes="ccccc" fill="none" stroke="url(#path3997_1_)" stroke-width="0.6416" stroke-linejoin="round" d="
	M6.91,37.522h31.282l2.592,8.175H4.16L6.91,37.522z"/>
<linearGradient id="path3999_1_" gradientUnits="userSpaceOnUse" x1="98.5977" y1="1797.5303" x2="100.1535" y2="1797.4113" gradientTransform="matrix(0.8086 0 0 0.4 -43.966 -713.0792)">
	<stop  offset="0" style="stop-color:#909090"/>
	<stop  offset="1" style="stop-color:#BEBEBE;stop-opacity:0"/>
</linearGradient>
<path id="path3999" sodipodi:type="arc" sodipodi:rx="0.83968931" sodipodi:cx="34.780815" sodipodi:ry="0.83968931" sodipodi:cy="3.9384086" fill="url(#path3999_1_)" d="
	M37.501,5.832c0.004,0.305-0.494,0.55-1.107,0.552c-0.613,0.001-1.111-0.245-1.113-0.55c0,0,0-0.001,0-0.002
	c0-0.305,0.494-0.55,1.107-0.552c0.615-0.001,1.113,0.245,1.113,0.55C37.501,5.83,37.501,5.83,37.501,5.832z"/>
<linearGradient id="path4001_1_" gradientUnits="userSpaceOnUse" x1="98.6279" y1="1798.6602" x2="100.1857" y2="1798.5411" gradientTransform="matrix(0.8086 0 0 0.4 -43.8776 -711.4376)">
	<stop  offset="0" style="stop-color:#909090"/>
	<stop  offset="1" style="stop-color:#BEBEBE;stop-opacity:0"/>
</linearGradient>
<path id="path4001" sodipodi:type="arc" sodipodi:rx="0.83968931" sodipodi:cx="34.780815" sodipodi:ry="0.83968931" sodipodi:cy="3.9384086" fill="url(#path4001_1_)" d="
	M37.616,7.925c0,0.305-0.495,0.552-1.11,0.552c-0.612,0.001-1.111-0.244-1.113-0.548c0-0.001,0-0.001,0-0.003
	c-0.002-0.302,0.494-0.549,1.109-0.551C37.115,7.374,37.613,7.62,37.616,7.925L37.616,7.925z"/>
<linearGradient id="path4003_1_" gradientUnits="userSpaceOnUse" x1="98.6582" y1="1799.7363" x2="100.2142" y2="1799.6174" gradientTransform="matrix(0.8086 0 0 0.4 -43.7893 -709.879)">
	<stop  offset="0" style="stop-color:#909090"/>
	<stop  offset="1" style="stop-color:#BEBEBE;stop-opacity:0"/>
</linearGradient>
<path id="path4003" sodipodi:type="arc" sodipodi:rx="0.83968931" sodipodi:cx="34.780815" sodipodi:ry="0.83968931" sodipodi:cy="3.9384086" fill="url(#path4003_1_)" d="
	M37.729,9.915c0.002,0.303-0.496,0.55-1.109,0.551c-0.613,0-1.111-0.245-1.113-0.55c0-0.001,0-0.001,0-0.001
	c-0.002-0.305,0.496-0.552,1.109-0.552s1.111,0.245,1.113,0.548C37.729,9.912,37.729,9.913,37.729,9.915z"/>
<linearGradient id="path4005_1_" gradientUnits="userSpaceOnUse" x1="98.6875" y1="1800.8076" x2="100.2451" y2="1800.6885" gradientTransform="matrix(0.8086 0 0 0.4 -43.7004 -708.3204)">
	<stop  offset="0" style="stop-color:#909090"/>
	<stop  offset="1" style="stop-color:#BEBEBE;stop-opacity:0"/>
</linearGradient>
<path id="path4005" sodipodi:type="arc" sodipodi:rx="0.83968931" sodipodi:cx="34.780815" sodipodi:ry="0.83968931" sodipodi:cy="3.9384086" fill="url(#path4005_1_)" d="
	M37.842,11.902c0.002,0.303-0.497,0.55-1.11,0.551s-1.111-0.245-1.113-0.549c0,0,0-0.001,0-0.002c0-0.305,0.495-0.55,1.106-0.552
	c0.617,0,1.116,0.245,1.116,0.55C37.842,11.9,37.842,11.902,37.842,11.902z"/>
<linearGradient id="path4007_1_" gradientUnits="userSpaceOnUse" x1="98.7207" y1="1801.8818" x2="100.2767" y2="1801.7628" gradientTransform="matrix(0.8086 0 0 0.4 -43.612 -706.7618)">
	<stop  offset="0" style="stop-color:#909090"/>
	<stop  offset="1" style="stop-color:#BEBEBE;stop-opacity:0"/>
</linearGradient>
<path id="path4007" sodipodi:type="arc" sodipodi:rx="0.83968931" sodipodi:cx="34.780815" sodipodi:ry="0.83968931" sodipodi:cy="3.9384086" fill="url(#path4007_1_)" d="
	M37.954,13.891c0,0.304-0.494,0.55-1.109,0.551c-0.613,0.001-1.111-0.244-1.113-0.548c0-0.001,0-0.003,0-0.003
	c-0.003-0.303,0.495-0.55,1.109-0.551c0.613-0.001,1.111,0.245,1.113,0.549C37.954,13.89,37.954,13.89,37.954,13.891z"/>
<path id="path4009" fill="#4A4A4A" d="M20.601,27.576h0.279c0.084,0,0.147,0.019,0.191,0.056c0.045,0.037,0.067,0.091,0.067,0.158
	c0,0.069-0.022,0.121-0.067,0.158c-0.044,0.036-0.107,0.056-0.191,0.056h-0.11v0.228h-0.169V27.576 M20.77,27.697v0.186h0.094
	c0.031,0,0.058-0.008,0.074-0.024c0.019-0.017,0.027-0.04,0.027-0.068c0-0.031-0.01-0.054-0.027-0.067
	c-0.018-0.015-0.043-0.025-0.074-0.025H20.77 M21.557,27.688c-0.051,0-0.091,0.019-0.119,0.058c-0.028,0.036-0.043,0.09-0.043,0.159
	c0,0.068,0.015,0.121,0.043,0.159c0.028,0.037,0.068,0.057,0.119,0.057c0.052,0,0.092-0.02,0.12-0.057
	c0.028-0.039,0.043-0.092,0.043-0.159c0-0.069-0.015-0.123-0.043-0.159C21.648,27.706,21.608,27.688,21.557,27.688 M21.557,27.566
	c0.105,0,0.188,0.028,0.248,0.088c0.06,0.06,0.089,0.144,0.089,0.25c0,0.105-0.029,0.189-0.089,0.249
	c-0.06,0.059-0.143,0.09-0.248,0.09c-0.104,0-0.188-0.031-0.247-0.09c-0.059-0.06-0.089-0.144-0.089-0.249
	c0-0.106,0.03-0.19,0.089-0.25C21.369,27.595,21.452,27.566,21.557,27.566 M22.021,27.576h0.188l0.238,0.449v-0.449h0.16v0.654
	h-0.188l-0.238-0.449v0.449h-0.159V27.576 M22.681,27.576h0.185l0.149,0.232l0.148-0.232h0.185l-0.25,0.378v0.276h-0.169v-0.276
	L22.681,27.576"/>
</svg>
