<?xml version="1.0" encoding="utf-8"?>
<!-- Generator: Adobe Illustrator 16.0.0, SVG Export Plug-In . SVG Version: 6.00 Build 0)  -->
<!DOCTYPE svg PUBLIC "-//W3C//DTD SVG 1.1//EN" "http://www.w3.org/Graphics/SVG/1.1/DTD/svg11.dtd">
<svg version="1.1"
	 id="svg97" xmlns:sodipodi="http://sodipodi.sourceforge.net/DTD/sodipodi-0.dtd" xmlns:inkscape="http://www.inkscape.org/namespaces/inkscape" xmlns:dc="http://purl.org/dc/elements/1.1/" xmlns:svg="http://www.w3.org/2000/svg" xmlns:rdf="http://www.w3.org/1999/02/22-rdf-syntax-ns#" xmlns:cc="http://creativecommons.org/ns#" sodipodi:version="0.32" sodipodi:docname="folder.svg" inkscape:version="0.46" sodipodi:docbase="/home/jimmac/src/cvs/tango-icon-theme/scalable/places" inkscape:output_extension="org.inkscape.output.svg.inkscape" inkscape:export-ydpi="90.000000" inkscape:export-xdpi="90.000000" inkscape:export-filename="/home/jimmac/Desktop/horlander-style3.png"
	 xmlns="http://www.w3.org/2000/svg" xmlns:xlink="http://www.w3.org/1999/xlink" x="0px" y="0px" width="48px" height="48px"
	 viewBox="0 0 48 48" enable-background="new 0 0 48 48" xml:space="preserve">
<defs>
	
	
		<inkscape:perspective  inkscape:vp_x="0 : 24 : 1" inkscape:vp_y="0 : 1000 : 0" inkscape:vp_z="48 : 24 : 1" id="perspective68" sodipodi:type="inkscape:persp3d" inkscape:persp3d-origin="24 : 16 : 1">
		</inkscape:perspective>
</defs>
<sodipodi:namedview  stroke="#3465a4" fill="#729fcf" inkscape:cx="54.359127" inkscape:cy="-13.803699" inkscape:zoom="4" showgrid="false" borderopacity="0.10196078" pagecolor="#ffffff" bordercolor="#666666" id="base" inkscape:window-y="30" inkscape:window-x="169" inkscape:window-height="818" inkscape:window-width="1026" inkscape:showpageshadow="false" inkscape:document-units="px" inkscape:grid-bbox="true" inkscape:current-layer="layer1" inkscape:pageshadow="2" inkscape:pageopacity="0.0">
	</sodipodi:namedview>
<radialGradient id="path216_1_" cx="-47.1646" cy="63.2686" r="35.7766" gradientTransform="matrix(1.055 -0.0273 -0.1777 -1.1909 86.6406 114.4621)" gradientUnits="userSpaceOnUse">
	<stop  offset="0" style="stop-color:#202020"/>
	<stop  offset="1" style="stop-color:#B9B9B9"/>
</radialGradient>
<linearGradient id="path216_2_" gradientUnits="userSpaceOnUse" x1="21.2666" y1="15.5034" x2="18.2701" y2="44.5562" gradientTransform="matrix(1 0 0 -1 0 49)">
	<stop  offset="0" style="stop-color:#424242"/>
	<stop  offset="1" style="stop-color:#777777"/>
</linearGradient>
<path id="path216" sodipodi:nodetypes="ccccccssssccc" fill="url(#path216_1_)" stroke="url(#path216_2_)" stroke-linecap="round" stroke-linejoin="round" d="
	M2.001,42.372c0.024,0.482,0.531,0.962,1.013,0.962H39.28c0.48,0,0.938-0.479,0.912-0.962L39.11,10.854
	c-0.027-0.481-0.533-0.964-1.016-0.964H22.732c-0.563,0-1.43-0.365-1.622-1.281l-0.709-3.35c-0.179-0.852-1.021-1.202-1.502-1.202
	H1.791c-0.482,0-0.939,0.483-0.914,0.964L2.001,42.372z"/>
<path id="path9788" sodipodi:nodetypes="cc" opacity="0.1136" fill="#729FCF" stroke="#000000" stroke-width="1" stroke-linecap="round" stroke-linejoin="round" enable-background="new    " d="
	M2.816,23.705h35.037"/>
<path id="path9784" sodipodi:nodetypes="cc" opacity="0.1136" fill="#729FCF" stroke="#000000" stroke-width="1" stroke-linecap="round" stroke-linejoin="round" enable-background="new    " d="
	M2.602,19.075h35.247"/>
<path id="path9778" sodipodi:nodetypes="cc" opacity="0.1136" fill="#729FCF" stroke="#000000" stroke-linecap="round" stroke-linejoin="round" enable-background="new    " d="
	M2.532,12.129h35.317"/>
<path id="path9798" sodipodi:nodetypes="cc" opacity="0.1136" fill="#729FCF" stroke="#000000" stroke-width="1" stroke-linecap="round" stroke-linejoin="round" enable-background="new    " d="
	M3.001,35.28h34.855"/>
<path id="path9800" sodipodi:nodetypes="cc" opacity="0.1136" fill="#729FCF" stroke="#000000" stroke-width="1" stroke-linecap="round" stroke-linejoin="round" enable-background="new    " d="
	M3.144,37.596h34.714"/>
<path id="path9782" sodipodi:nodetypes="cc" opacity="0.1136" fill="#729FCF" stroke="#000000" stroke-width="1" stroke-linecap="round" stroke-linejoin="round" enable-background="new    " d="
	M2.602,16.76h35.247"/>
<path id="path9780" sodipodi:nodetypes="cc" opacity="0.1136" fill="#729FCF" stroke="#000000" stroke-width="1" stroke-linecap="round" stroke-linejoin="round" enable-background="new    " d="
	M2.568,14.444h35.281"/>
<path id="path9776" sodipodi:nodetypes="cc" opacity="0.1136" fill="#729FCF" stroke="#000000" stroke-width="1" stroke-linecap="round" stroke-linejoin="round" enable-background="new    " d="
	M2.463,9.813h17.69"/>
<path id="path9774" sodipodi:nodetypes="cc" opacity="0.1136" fill="#729FCF" stroke="#000000" stroke-width="1" stroke-linecap="round" stroke-linejoin="round" enable-background="new    " d="
	M2.408,7.498h17.114"/>
<path id="path9794" sodipodi:nodetypes="cc" opacity="0.1136" fill="#729FCF" stroke="#000000" stroke-width="1" stroke-linecap="round" stroke-linejoin="round" enable-background="new    " d="
	M2.93,30.649h34.924"/>
<path id="path9792" sodipodi:nodetypes="cc" opacity="0.1136" fill="#729FCF" stroke="#000000" stroke-linecap="round" stroke-linejoin="round" enable-background="new    " d="
	M2.887,28.337h34.965"/>
<path id="path9790" sodipodi:nodetypes="cc" opacity="0.1136" fill="#729FCF" stroke="#000000" stroke-width="1" stroke-linecap="round" stroke-linejoin="round" enable-background="new    " d="
	M2.816,26.02h35.037"/>
<path id="path9786" sodipodi:nodetypes="cc" opacity="0.1136" fill="#729FCF" stroke="#000000" stroke-width="1" stroke-linecap="round" stroke-linejoin="round" enable-background="new    " d="
	M2.781,21.389h35.072"/>
<path id="path9796" sodipodi:nodetypes="cc" opacity="0.1136" fill="#729FCF" stroke="#000000" stroke-width="1" stroke-linecap="round" stroke-linejoin="round" enable-background="new    " d="
	M2.93,32.965h34.924"/>
<path id="path9802" sodipodi:nodetypes="cc" opacity="0.1136" fill="#729FCF" stroke="#000000" stroke-width="1" stroke-linecap="round" stroke-linejoin="round" enable-background="new    " d="
	M3.144,39.911h34.714"/>
<linearGradient id="path219_1_" gradientUnits="userSpaceOnUse" x1="-89.4775" y1="-115.6387" x2="-85.231" y2="-177.0639" gradientTransform="matrix(1.5168 0 0 -0.709 144.6127 -74.6931)">
	<stop  offset="0" style="stop-color:#FFFFFF;stop-opacity:0.8763"/>
	<stop  offset="1" style="stop-color:#FFFFFE;stop-opacity:0"/>
</linearGradient>
<path id="path219" sodipodi:nodetypes="cccccccccscccccc" opacity="0.4514" fill="url(#path219_1_)" enable-background="new    " d="
	M3.791,42.575c0.02,0.361-0.209,0.603-0.577,0.484l0,0c-0.367-0.123-0.621-0.361-0.641-0.725L1.475,5.217
	c-0.019-0.362,0.192-0.58,0.554-0.58l16.694-0.055c0.362,0,1.08,0.348,1.313,1.531L20.7,9.371c-0.494-0.538-0.485-0.556-0.737-1.339
	l-0.471-1.458c-0.254-0.842-0.81-0.962-1.171-0.962H3.403c-0.361,0-0.591,0.241-0.572,0.602l1.087,36.484L3.791,42.575z"/>
<g id="g220" transform="matrix(1.040764,0.000000,5.449252e-2,1.040764,-8.670199,2.670594)" inkscape:export-ydpi="74.800003" inkscape:export-xdpi="74.800003" inkscape:export-filename="/home/jimmac/ximian_art/icons/nautilus/suse93/gnome-fs-directory.png">
	<path id="path221" sodipodi:nodetypes="cscscs" fill="#FFFFFF" fill-opacity="0.5085" d="M44.782,7.943
		c0.006-0.114-0.146-0.287-0.272-0.287L29.425,7.654c0,0,1.056,0.681,2.548,0.69L44.77,8.426C44.783,8.181,44.772,8.13,44.782,7.943
		z"/>
</g>
<linearGradient id="path233_1_" gradientUnits="userSpaceOnUse" x1="25.2178" y1="8.6558" x2="25.0897" y2="14.3721" gradientTransform="matrix(1 0 0 -1 0 49)">
	<stop  offset="0" style="stop-color:#6194CB"/>
	<stop  offset="1" style="stop-color:#729FCF"/>
</linearGradient>
<path id="path233" inkscape:export-ydpi="74.800003" inkscape:export-xdpi="74.800003" inkscape:export-filename="/home/jimmac/ximian_art/icons/nautilus/suse93/gnome-fs-directory.png" sodipodi:nodetypes="cscccscc" fill="url(#path233_1_)" stroke="#3465A4" stroke-linejoin="round" d="
	M42.819,43.326c1.324-0.052,2.273-1.271,2.369-2.689C46.106,27.269,47.11,16.06,47.11,16.06c0.084-0.287-0.193-0.573-0.555-0.573
	H6.766L4.624,40.801c-0.133,1.135-0.54,2.088-1.794,2.527L42.819,43.326z"/>
<linearGradient id="path304_1_" gradientUnits="userSpaceOnUse" x1="-47.7568" y1="-69.2251" x2="-47.9664" y2="-85.4924" gradientTransform="matrix(1.3175 0 0 -0.8163 88.4943 -29.5832)">
	<stop  offset="0" style="stop-color:#FFFFFF"/>
	<stop  offset="1" style="stop-color:#FFFFFF;stop-opacity:0"/>
</linearGradient>
<path id="path304" sodipodi:nodetypes="ccsscsc" opacity="0.4659" fill="none" stroke="url(#path304_1_)" stroke-width="1" stroke-linecap="round" enable-background="new    " d="
	M7.903,16.646L45.86,16.72l-1.82,23.156c-0.1,1.239-0.521,1.653-2.168,1.653c-2.166,0-33.199-0.039-36.343-0.039
	c0.271-0.371,0.387-1.145,0.388-1.163L7.903,16.646z"/>
<path id="path323" sodipodi:nodetypes="ccccc" fill="#FFFFFF" fill-opacity="0.0893" d="M7.903,16.367L6.552,34.475
	c0,0,9.604-4.801,21.609-4.801c12.004,0,18.008-13.307,18.008-13.307H7.903z"/>
<g id="layer2" inkscape:label="pattern" inkscape:groupmode="layer">
</g>
</svg>
