<?xml version="1.0" encoding="utf-8"?>
<!-- Generator: Adobe Illustrator 16.0.0, SVG Export Plug-In . SVG Version: 6.00 Build 0)  -->
<!DOCTYPE svg PUBLIC "-//W3C//DTD SVG 1.1//EN" "http://www.w3.org/Graphics/SVG/1.1/DTD/svg11.dtd">
<svg version="1.1"
	 id="svg2108" xmlns:sodipodi="http://sodipodi.sourceforge.net/DTD/sodipodi-0.dtd" xmlns:inkscape="http://www.inkscape.org/namespaces/inkscape" xmlns:dc="http://purl.org/dc/elements/1.1/" xmlns:svg="http://www.w3.org/2000/svg" xmlns:rdf="http://www.w3.org/1999/02/22-rdf-syntax-ns#" xmlns:cc="http://creativecommons.org/ns#" sodipodi:version="0.32" sodipodi:docname="system-users.svg" inkscape:version="0.46" sodipodi:docbase="/home/jimmac/src/cvs/tango-icon-theme/scalable/apps" inkscape:output_extension="org.inkscape.output.svg.inkscape"
	 xmlns="http://www.w3.org/2000/svg" xmlns:xlink="http://www.w3.org/1999/xlink" x="0px" y="0px" width="48px" height="48px"
	 viewBox="0 0 48 48" enable-background="new 0 0 48 48" xml:space="preserve">
<defs>
	
	
		<inkscape:perspective  inkscape:vp_x="0 : 24 : 1" inkscape:vp_y="0 : 1000 : 0" inkscape:vp_z="48 : 24 : 1" id="perspective72" sodipodi:type="inkscape:persp3d" inkscape:persp3d-origin="24 : 16 : 1">
		</inkscape:perspective>
</defs>
<sodipodi:namedview  stroke="#727e0a" fill="#9db029" inkscape:cx="-130.79856" inkscape:cy="13.86274" inkscape:zoom="1" showgrid="false" borderopacity="1.0" pagecolor="#ffffff" bordercolor="#666666" id="base" inkscape:window-y="33" inkscape:window-x="265" inkscape:window-height="815" inkscape:window-width="872" inkscape:showpageshadow="false" inkscape:document-units="px" inkscape:grid-bbox="true" inkscape:current-layer="layer2" inkscape:pageshadow="2" inkscape:pageopacity="0.0">
	</sodipodi:namedview>
<g>
	
		<radialGradient id="path2329_1_" cx="14.1567" cy="-145.4312" r="15.6004" gradientTransform="matrix(1.0185 0 0 -0.6935 -0.0186 -77.8484)" gradientUnits="userSpaceOnUse">
		<stop  offset="0" style="stop-color:#727E0A"/>
		<stop  offset="1" style="stop-color:#5B6508"/>
	</radialGradient>
	
		<path id="path2329" sodipodi:nodetypes="cczcczc" fill="url(#path2329_1_)" stroke="#404604" stroke-linecap="round" stroke-linejoin="round" d="
		M10.471,38.072h12.422c3.521,0,7.005-1.289,8.283-4.963c1.213-3.488,0.207-10.131-7.661-15.507h-14.7
		c-7.868,4.962-8.851,11.749-7.04,15.713C3.62,37.354,6.744,38.072,10.471,38.072z"/>
	<path id="path3812" sodipodi:nodetypes="cccc" fill="#9DB029" d="M16.411,20.704c0,0-2.52,1.941-2.303,4.28
		c-2.391-2.105-2.459-6.142-2.459-6.142L16.411,20.704z"/>
	
		<path id="path3838" sodipodi:nodetypes="cczcczc" opacity="0.2152" fill="none" stroke="#FFFFFF" stroke-width="1" stroke-linecap="round" stroke-linejoin="round" enable-background="new    " d="
		M10.595,36.826h12.082c3.092,0,6.153-1.132,7.275-4.357c1.066-3.064-0.109-8.9-7.022-13.622H9.433
		c-6.912,4.359-8.067,10.319-6.477,13.803C4.577,36.197,7.321,36.826,10.595,36.826z"/>
	<path id="path3810" sodipodi:nodetypes="cccc" fill="#9DB029" d="M17.556,20.704c0,0,2.52,1.941,2.304,4.28
		c2.39-2.105,2.458-6.142,2.458-6.142L17.556,20.704z"/>
	
		<radialGradient id="path3814_1_" cx="29.3027" cy="30.0381" r="9.9644" gradientTransform="matrix(1.0185 0 0 -1.017 -13.5132 46.2493)" gradientUnits="userSpaceOnUse">
		<stop  offset="0" style="stop-color:#000000"/>
		<stop  offset="1" style="stop-color:#000000;stop-opacity:0"/>
	</radialGradient>
	
		<path id="path3814" sodipodi:type="arc" sodipodi:rx="8.6620579" sodipodi:cx="31.112698" sodipodi:ry="8.6620579" sodipodi:cy="19.008621" fill="url(#path3814_1_)" d="
		M26.476,15.7c0.002,5.595-4.539,10.134-10.142,10.137C10.73,25.84,6.186,21.306,6.184,15.71c0-0.003,0-0.007,0-0.01
		c-0.003-5.596,4.537-10.134,10.14-10.137c5.603-0.003,10.147,4.531,10.151,10.126C26.476,15.693,26.476,15.697,26.476,15.7z"/>
	
		<radialGradient id="path2327_1_" cx="102.4668" cy="-66.916" r="10.5359" gradientTransform="matrix(0.8025 0 0 -0.8014 -67.8296 -44.2952)" gradientUnits="userSpaceOnUse">
		<stop  offset="0" style="stop-color:#E9B15E"/>
		<stop  offset="1" style="stop-color:#966416"/>
	</radialGradient>
	
		<path id="path2327" sodipodi:type="arc" sodipodi:rx="8.6620579" sodipodi:cx="31.112698" sodipodi:ry="8.6620579" sodipodi:cy="19.008621" fill="url(#path2327_1_)" stroke="#6F4709" stroke-linecap="round" stroke-linejoin="round" d="
		M26.62,11.606c0.004,5.596-4.537,10.133-10.14,10.136c-5.602,0.003-10.146-4.531-10.149-10.125c0-0.004,0-0.007,0-0.011
		C6.328,6.012,10.867,1.474,16.47,1.471C22.073,1.468,26.618,6,26.62,11.595C26.62,11.599,26.62,11.604,26.62,11.606z"/>
	
		<path id="path3834" sodipodi:type="arc" sodipodi:rx="8.6620579" sodipodi:cx="31.112698" sodipodi:ry="8.6620579" sodipodi:cy="19.008621" opacity="0.1266" fill="none" stroke="#FFFFFF" stroke-width="1.1401" stroke-linecap="round" stroke-linejoin="round" enable-background="new    " d="
		M25.373,11.606c0.004,4.907-3.979,8.888-8.893,8.89c-4.914,0.003-8.9-3.973-8.903-8.88c0-0.004,0-0.007,0-0.01
		c-0.002-4.908,3.98-8.888,8.895-8.89c4.914-0.003,8.9,3.974,8.902,8.881C25.373,11.6,25.373,11.604,25.373,11.606z"/>
	
		<linearGradient id="path4173_1_" gradientUnits="userSpaceOnUse" x1="36.7598" y1="18.061" x2="36.7598" y2="10.7486" gradientTransform="matrix(1 0 0 -1 -12.418 42)">
		<stop  offset="0" style="stop-color:#FFFFFF"/>
		<stop  offset="1" style="stop-color:#C9C9C9"/>
	</linearGradient>
	<path id="path4173" fill="url(#path4173_1_)" d="M21.859,29.181h4.968l-2.898-2.688l-0.621,0.827l-0.622-0.62L21.859,29.181z"/>
	
		<linearGradient id="path4368_1_" gradientUnits="userSpaceOnUse" x1="80.7588" y1="68.5742" x2="83.0585" y2="68.1064" gradientTransform="matrix(0.9834 0.1816 0.1816 -0.9834 -88.11 83.301)">
		<stop  offset="0" style="stop-color:#000000"/>
		<stop  offset="1" style="stop-color:#000000;stop-opacity:0"/>
	</linearGradient>
	<path id="path4368" sodipodi:nodetypes="cccc" opacity="0.2278" fill="url(#path4368_1_)" enable-background="new    " d="
		M5.419,36.861c-1.461-0.638-2.116-2.172-2.116-2.172c0.986-4.762,4.357-8.243,4.357-8.243S4.992,33.946,5.419,36.861z"/>
	
		<linearGradient id="path4370_1_" gradientUnits="userSpaceOnUse" x1="-454.8823" y1="-39.4341" x2="-456.3772" y2="-38.6731" gradientTransform="matrix(-0.9777 0.2101 -0.2101 -0.9777 -426.5771 87.6335)">
		<stop  offset="0" style="stop-color:#000000"/>
		<stop  offset="1" style="stop-color:#000000;stop-opacity:0"/>
	</linearGradient>
	<path id="path4370" sodipodi:nodetypes="cccc" opacity="0.2278" fill="url(#path4370_1_)" enable-background="new    " d="
		M27.562,35.857c1.444-0.68,2.114-2.342,2.114-2.342c-1.124-4.729-4.658-8.003-4.658-8.003S27.905,32.93,27.562,35.857z"/>
	
		<radialGradient id="path4308_1_" cx="-36.6782" cy="-28.7925" r="15.6004" gradientTransform="matrix(1.3215 0 0 -0.8999 76.7786 5.5809)" gradientUnits="userSpaceOnUse">
		<stop  offset="0" style="stop-color:#3B74BC"/>
		<stop  offset="1" style="stop-color:#2D5990"/>
	</radialGradient>
	
		<path id="path4308" sodipodi:nodetypes="cczcczc" fill="url(#path4308_1_)" stroke="#204A87" stroke-linecap="round" stroke-linejoin="round" d="
		M25.843,46.259h12.422c3.521,0,7.006-1.289,8.283-4.963c1.214-3.488,0.207-10.131-7.66-15.507H24.187
		c-7.868,4.963-8.851,11.748-7.04,15.714C18.993,45.542,22.117,46.259,25.843,46.259z"/>
	
		<linearGradient id="path4310_1_" gradientUnits="userSpaceOnUse" x1="31.6406" y1="16.8726" x2="31.6406" y2="9.5619" gradientTransform="matrix(1 0 0 -1 0 49)">
		<stop  offset="0" style="stop-color:#FFFFFF"/>
		<stop  offset="1" style="stop-color:#C9C9C9"/>
	</linearGradient>
	<path id="path4310" sodipodi:nodetypes="cccc" fill="url(#path4310_1_)" d="M26.672,27.65c3.726,3.309,5.383,15.3,5.383,15.3
		s1.655-11.991,4.556-15.508L26.672,27.65z"/>
	<path id="path4312" sodipodi:nodetypes="cccc" fill="#729FCF" d="M29.342,28.891c0,0-2.521,1.941-2.304,4.281
		c-2.392-2.105-2.46-6.143-2.46-6.143L29.342,28.891z"/>
	
		<path id="path4314" sodipodi:nodetypes="cczcczc" opacity="0.2152" fill="none" stroke="#FFFFFF" stroke-width="1" stroke-linecap="round" stroke-linejoin="round" enable-background="new    " d="
		M25.759,45.039l12.291-0.024c3.092,0,6.153-1.134,7.274-4.359c1.066-3.064-0.109-8.9-7.021-13.622l-13.498-0.284
		c-6.911,4.36-8.249,10.319-6.632,14.087C19.79,44.604,22.149,45.015,25.759,45.039z"/>
	<path id="path4316" sodipodi:nodetypes="cccc" fill="#729FCF" d="M34.539,28.891c0,0,2.521,1.941,2.304,4.281
		c2.389-2.105,2.459-6.143,2.459-6.143L34.539,28.891z"/>
	
		<radialGradient id="path4318_1_" cx="31.2705" cy="28.9902" r="9.9644" gradientTransform="matrix(1.0185 0 0 -1.017 -0.1461 53.3704)" gradientUnits="userSpaceOnUse">
		<stop  offset="0" style="stop-color:#000000"/>
		<stop  offset="1" style="stop-color:#000000;stop-opacity:0"/>
	</radialGradient>
	
		<path id="path4318" sodipodi:type="arc" sodipodi:rx="8.6620579" sodipodi:cx="31.112698" sodipodi:ry="8.6620579" sodipodi:cy="19.008621" fill="url(#path4318_1_)" d="
		M41.848,23.887c0.002,5.595-4.539,10.133-10.141,10.136c-5.604,0.003-10.148-4.531-10.15-10.125c0-0.004,0-0.007,0-0.011
		c-0.003-5.596,4.537-10.134,10.141-10.137c5.603-0.002,10.146,4.531,10.15,10.125C41.848,23.88,41.848,23.884,41.848,23.887z"/>
	
		<radialGradient id="path4320_1_" cx="104.9658" cy="-68.2495" r="10.536" gradientTransform="matrix(0.8025 0 0 -0.8014 -54.4624 -37.175)" gradientUnits="userSpaceOnUse">
		<stop  offset="0" style="stop-color:#F4D9B1"/>
		<stop  offset="1" style="stop-color:#DF9725"/>
	</radialGradient>
	
		<path id="path4320" sodipodi:type="arc" sodipodi:rx="8.6620579" sodipodi:cx="31.112698" sodipodi:ry="8.6620579" sodipodi:cy="19.008621" fill="url(#path4320_1_)" stroke="#C17D11" stroke-linecap="round" stroke-linejoin="round" d="
		M41.993,19.794c0.004,5.595-4.538,10.133-10.142,10.137c-5.602,0.002-10.146-4.532-10.149-10.126c0-0.004,0-0.007,0-0.01
		C21.7,14.198,26.238,9.661,31.842,9.658s10.148,4.53,10.151,10.125C41.993,19.787,41.993,19.79,41.993,19.794z"/>
	
		<path id="path4322" sodipodi:type="arc" sodipodi:rx="8.6620579" sodipodi:cx="31.112698" sodipodi:ry="8.6620579" sodipodi:cy="19.008621" opacity="0.1962" fill="none" stroke="#FFFFFF" stroke-width="1.1401" stroke-linecap="round" stroke-linejoin="round" enable-background="new    " d="
		M40.745,19.794c0.004,4.907-3.978,8.888-8.894,8.89c-4.913,0.003-8.899-3.973-8.903-8.88c0-0.004,0-0.007,0-0.009
		c-0.002-4.908,3.98-8.889,8.895-8.891c4.913-0.002,8.899,3.974,8.901,8.881C40.745,19.787,40.745,19.79,40.745,19.794z"/>
	
		<linearGradient id="path4354_1_" gradientUnits="userSpaceOnUse" x1="83.2188" y1="67.791" x2="85.5185" y2="67.3232" gradientTransform="matrix(0.9834 0.1816 0.1816 -0.9834 -74.8053 90.4749)">
		<stop  offset="0" style="stop-color:#000000"/>
		<stop  offset="1" style="stop-color:#000000;stop-opacity:0"/>
	</linearGradient>
	<path id="path4354" sodipodi:nodetypes="cccc" opacity="0.2278" fill="url(#path4354_1_)" enable-background="new    " d="
		M21,45.252c-1.461-0.638-2.114-2.175-2.114-2.175c0.985-4.759,4.356-8.24,4.356-8.24S20.573,42.336,21,45.252z"/>
	
		<linearGradient id="path4364_1_" gradientUnits="userSpaceOnUse" x1="-456.8535" y1="-41.0991" x2="-458.3481" y2="-40.3382" gradientTransform="matrix(-0.9777 0.2101 -0.2101 -0.9777 -413.2724 94.8073)">
		<stop  offset="0" style="stop-color:#000000"/>
		<stop  offset="1" style="stop-color:#000000;stop-opacity:0"/>
	</linearGradient>
	<path id="path4364" sodipodi:nodetypes="cccc" opacity="0.2278" fill="url(#path4364_1_)" enable-background="new    " d="
		M43.145,44.248c1.44-0.68,2.112-2.344,2.112-2.344c-1.124-4.729-4.656-8.002-4.656-8.002S43.486,41.32,43.145,44.248z"/>
</g>
</svg>
