<?xml version="1.0" encoding="utf-8"?>
<!-- Generator: Adobe Illustrator 16.0.0, SVG Export Plug-In . SVG Version: 6.00 Build 0)  -->
<!DOCTYPE svg PUBLIC "-//W3C//DTD SVG 1.1//EN" "http://www.w3.org/Graphics/SVG/1.1/DTD/svg11.dtd">
<svg version="1.1"
	 id="svg1306" xmlns:sodipodi="http://sodipodi.sourceforge.net/DTD/sodipodi-0.dtd" xmlns:inkscape="http://www.inkscape.org/namespaces/inkscape" xmlns:dc="http://purl.org/dc/elements/1.1/" xmlns:svg="http://www.w3.org/2000/svg" xmlns:rdf="http://www.w3.org/1999/02/22-rdf-syntax-ns#" xmlns:cc="http://creativecommons.org/ns#" sodipodi:version="0.32" sodipodi:docname="tab-new.svg" inkscape:version="0.46" sodipodi:docbase="/home/jimmac/src/cvs/tango-icon-theme/scalable/actions" inkscape:output_extension="org.inkscape.output.svg.inkscape"
	 xmlns="http://www.w3.org/2000/svg" xmlns:xlink="http://www.w3.org/1999/xlink" x="0px" y="0px" width="48px" height="48px"
	 viewBox="0 0 48 48" enable-background="new 0 0 48 48" xml:space="preserve">
<defs>
	
	
		<inkscape:perspective  inkscape:vp_x="0 : 24 : 1" inkscape:vp_y="0 : 1000 : 0" inkscape:vp_z="48 : 24 : 1" id="perspective51" sodipodi:type="inkscape:persp3d" inkscape:persp3d-origin="24 : 16 : 1">
		</inkscape:perspective>
</defs>
<sodipodi:namedview  showguides="true" inkscape:cx="-138.5506" inkscape:cy="18.6481" inkscape:zoom="1" showgrid="false" borderopacity="0.27843137" pagecolor="#ffffff" bordercolor="#666666" id="base" inkscape:window-y="73" inkscape:window-x="336" inkscape:window-height="775" inkscape:window-width="872" inkscape:showpageshadow="false" inkscape:document-units="px" inkscape:grid-bbox="true" inkscape:current-layer="layer1" inkscape:pageshadow="2" inkscape:pageopacity="0.0" inkscape:guide-bbox="true">
	</sodipodi:namedview>
<linearGradient id="rect1316_1_" gradientUnits="userSpaceOnUse" x1="24.0576" y1="15.9004" x2="24.2084" y2="32.0075" gradientTransform="matrix(1 0 0 -1 0 45)">
	<stop  offset="0" style="stop-color:#E5E5E5"/>
	<stop  offset="1" style="stop-color:#C8C8C8"/>
</linearGradient>
<path id="rect1316" sodipodi:nodetypes="ccccccccccccccc" fill="url(#rect1316_1_)" stroke="#888A85" stroke-width="1" d="
	M8.993,10.471c-1.92,0-3.493,1.599-3.493,3.54v15.493H2.063c-0.302,0-0.531,0.26-0.531,0.563v6.871c0,0.303,0.229,0.563,0.531,0.563
	h43.875c0.303,0,0.563-0.26,0.563-0.563v-6.871c0-0.303-0.26-0.563-0.563-0.563h-4.406V14.957c-0.042-1.941-1.545-4.515-3.443-4.515
	L8.993,10.471z"/>
<linearGradient id="path1331_1_" gradientUnits="userSpaceOnUse" x1="22.2656" y1="25.71" x2="24.9953" y2="3.4603" gradientTransform="matrix(1 0 0 -1 0 45)">
	<stop  offset="0" style="stop-color:#FFFFFF"/>
	<stop  offset="1" style="stop-color:#FFFFFF;stop-opacity:0"/>
</linearGradient>
<path id="path1331" sodipodi:nodetypes="ccccccccccc" fill="none" stroke="url(#path1331_1_)" stroke-width="1" stroke-linecap="round" stroke-linejoin="round" d="
	M8.878,11.497c-1.157,0-2.363,0.964-2.363,2.538l-0.06,16.582l-3.917-0.069l0.092,5.986h42.887l-0.115-5.927l-4.934-0.06V15.689
	c-0.041-1.812-1.238-4.163-3.057-4.163L8.878,11.497z"/>
<radialGradient id="path12511_1_" cx="234.125" cy="-312.3926" r="14.375" gradientTransform="matrix(0.6111 0 0 -0.6111 -105.5449 -178.4464)" gradientUnits="userSpaceOnUse">
	<stop  offset="0" style="stop-color:#FFFFFF"/>
	<stop  offset="0.5" style="stop-color:#FFF520;stop-opacity:0.8911"/>
	<stop  offset="1" style="stop-color:#FFF300;stop-opacity:0"/>
</radialGradient>
<path id="path12511" sodipodi:type="arc" sodipodi:rx="14.375" sodipodi:cx="55" sodipodi:ry="14.375" sodipodi:cy="125" inkscape:export-ydpi="33.852203" inkscape:export-xdpi="33.852203" inkscape:export-filename="/home/jimmac/ximian_art/icons/nautilus/suse93/stock_new-16.png" fill="url(#path12511_1_)" d="
	M46.32,12.465c0,4.852-3.934,8.785-8.785,8.785s-8.785-3.933-8.785-8.785c0-4.852,3.934-8.785,8.785-8.785S46.32,7.613,46.32,12.465
	z"/>
</svg>
