<?xml version="1.0" encoding="utf-8"?>
<!-- Generator: Adobe Illustrator 16.0.0, SVG Export Plug-In . SVG Version: 6.00 Build 0)  -->
<!DOCTYPE svg PUBLIC "-//W3C//DTD SVG 1.1//EN" "http://www.w3.org/Graphics/SVG/1.1/DTD/svg11.dtd">
<svg version="1.1"
	 id="svg6431" xmlns:sodipodi="http://sodipodi.sourceforge.net/DTD/sodipodi-0.dtd" xmlns:inkscape="http://www.inkscape.org/namespaces/inkscape" xmlns:dc="http://purl.org/dc/elements/1.1/" xmlns:svg="http://www.w3.org/2000/svg" xmlns:rdf="http://www.w3.org/1999/02/22-rdf-syntax-ns#" xmlns:cc="http://creativecommons.org/ns#" sodipodi:version="0.32" sodipodi:docname="list-add.svg" inkscape:version="0.46" sodipodi:docbase="/home/jimmac/src/cvs/tango-icon-theme/scalable/actions" inkscape:output_extension="org.inkscape.output.svg.inkscape"
	 xmlns="http://www.w3.org/2000/svg" xmlns:xlink="http://www.w3.org/1999/xlink" x="0px" y="0px" width="48px" height="48px"
	 viewBox="0 0 48 48" enable-background="new 0 0 48 48" xml:space="preserve">
<sodipodi:namedview  showguides="true" inkscape:cx="-123.56934" inkscape:cy="0.031886897" inkscape:zoom="1" showgrid="false" borderopacity="0.15686275" pagecolor="#ffffff" bordercolor="#666666" id="base" inkscape:window-y="30" inkscape:window-x="0" inkscape:window-height="818" inkscape:window-width="1280" inkscape:showpageshadow="false" inkscape:document-units="px" inkscape:grid-bbox="true" inkscape:current-layer="layer1" inkscape:pageshadow="2" inkscape:pageopacity="0.0" inkscape:guide-bbox="true">
	</sodipodi:namedview>
<g>
	
		<radialGradient id="SVGID_1_" cx="24" cy="25" r="22.6016" gradientTransform="matrix(1 0 0 -1 0 49)" gradientUnits="userSpaceOnUse">
		<stop  offset="0" style="stop-color:#545454"/>
		<stop  offset="1" style="stop-color:#121212"/>
	</radialGradient>
	<polygon fill="url(#SVGID_1_)" points="41.965,46.602 23.942,28.658 6.042,46.602 1.399,46.602 1.399,41.77 19.101,23.853 
		1.399,6.214 1.399,1.399 6.19,1.399 24.01,19.136 41.799,1.399 46.602,1.399 46.602,6.194 28.855,24.027 46.602,41.717 
		46.602,46.602 	"/>
	<polygon fill="none" stroke="#565656" points="41.965,46.602 23.942,28.658 6.042,46.602 1.399,46.602 1.399,41.77 19.101,23.853 
		1.399,6.214 1.399,1.399 6.19,1.399 24.01,19.136 41.799,1.399 46.602,1.399 46.602,6.194 28.855,24.027 46.602,41.717 
		46.602,46.602 	"/>
</g>
</svg>
