<?xml version="1.0" encoding="utf-8"?>
<!-- Generator: Adobe Illustrator 16.0.0, SVG Export Plug-In . SVG Version: 6.00 Build 0)  -->
<!DOCTYPE svg PUBLIC "-//W3C//DTD SVG 1.1//EN" "http://www.w3.org/Graphics/SVG/1.1/DTD/svg11.dtd">
<svg version="1.1"
	 id="svg1307" xmlns:sodipodi="http://sodipodi.sourceforge.net/DTD/sodipodi-0.dtd" xmlns:dc="http://purl.org/dc/elements/1.1/" xmlns:rdf="http://www.w3.org/1999/02/22-rdf-syntax-ns#" xmlns:inkscape="http://www.inkscape.org/namespaces/inkscape" xmlns:svg="http://www.w3.org/2000/svg" xmlns:cc="http://creativecommons.org/ns#" inkscape:export-xdpi="90" inkscape:export-ydpi="90" inkscape:export-filename="/home/lapo/Desktop/Grafica/Icone/media-actions-outlines.png" sodipodi:version="0.32" sodipodi:docname="media-record.svg" inkscape:version="0.46" sodipodi:docbase="/home/jimmac/src/cvs/tango-icon-theme/scalable/actions" inkscape:output_extension="org.inkscape.output.svg.inkscape"
	 xmlns="http://www.w3.org/2000/svg" xmlns:xlink="http://www.w3.org/1999/xlink" x="0px" y="0px" width="48px" height="48px"
	 viewBox="0 0 48 48" enable-background="new 0 0 48 48" xml:space="preserve">
<defs>
	
	
		<inkscape:perspective  inkscape:vp_y="0 : 1000 : 0" id="perspective47" inkscape:vp_z="48 : 24 : 1" inkscape:vp_x="0 : 24 : 1" sodipodi:type="inkscape:persp3d" inkscape:persp3d-origin="24 : 16 : 1">
		</inkscape:perspective>
</defs>
<sodipodi:namedview  stroke="#ef2929" fill="#ef2929" guidetolerance="1px" showguides="false" showborder="true" inkscape:zoom="1" inkscape:cy="34.59508" inkscape:cx="-125.50077" bordercolor="#666666" pagecolor="#ffffff" id="base" borderopacity="0.11372549" showgrid="false" inkscape:window-y="160" inkscape:window-x="494" inkscape:window-height="688" inkscape:window-width="872" inkscape:showpageshadow="false" inkscape:document-units="px" inkscape:grid-bbox="true" inkscape:current-layer="layer1" inkscape:pageshadow="2" inkscape:pageopacity="0.0" inkscape:guide-bbox="true" inkscape:grid-points="true">
	<sodipodi:guide  position="38.996647" orientation="horizontal" id="guide2194"></sodipodi:guide>
	<sodipodi:guide  position="9.0140845" orientation="horizontal" id="guide2196"></sodipodi:guide>
	<sodipodi:guide  position="9.0140845" orientation="vertical" id="guide2198"></sodipodi:guide>
	<sodipodi:guide  position="38.975184" orientation="vertical" id="guide2200"></sodipodi:guide>
	<sodipodi:guide  position="22.988281" orientation="horizontal" id="guide2202"></sodipodi:guide>
	<sodipodi:guide  position="23.908786" orientation="vertical" id="guide2204"></sodipodi:guide>
	<sodipodi:guide  position="157.99417" orientation="vertical" id="guide4332"></sodipodi:guide>
	<sodipodi:guide  position="-36.062446" orientation="horizontal" id="guide4334"></sodipodi:guide>
	<sodipodi:guide  position="-58.02695" orientation="horizontal" id="guide4336"></sodipodi:guide>
	<sodipodi:guide  position="180.00287" orientation="vertical" id="guide4338"></sodipodi:guide>
	<sodipodi:guide  position="107.92217" orientation="vertical" id="guide4417"></sodipodi:guide>
	<sodipodi:guide  position="129.93087" orientation="vertical" id="guide4419"></sodipodi:guide>
	<sodipodi:guide  position="19.996875" orientation="horizontal" id="guide5106"></sodipodi:guide>
	<sodipodi:guide  position="63.039674" orientation="horizontal" id="guide5119"></sodipodi:guide>
	<sodipodi:guide  position="49.066305" orientation="horizontal" id="guide5121"></sodipodi:guide>
	<sodipodi:guide  position="-86.007168" orientation="horizontal" id="guide5307"></sodipodi:guide>
	<sodipodi:guide  position="-108.09009" orientation="horizontal" id="guide5309"></sodipodi:guide>
	<sodipodi:guide  position="-100.15429" orientation="horizontal" id="guide3111"></sodipodi:guide>
	
		<inkscape:grid  color="#0000ff" empspacing="2" originy="0px" spacingx="0.5px" spacingy="0.5px" empopacity="0.4" empcolor="#0000ff" originx="0px" opacity="0.2" type="xygrid" id="GridFromPre046Settings">
		</inkscape:grid>
</sodipodi:namedview>
<g id="layer1" transform="translate(111.82696,-146.98173)" inkscape:label="Capa 1" inkscape:groupmode="layer">
	<g id="g3119" transform="translate(-20.203051,26.263966)">
		
			<radialGradient id="path3057_1_" cx="-128.0165" cy="309.9238" r="16.306" gradientTransform="matrix(1.4742 -0.3263 -0.3055 -1.0741 227.1791 432.9513)" gradientUnits="userSpaceOnUse">
			<stop  offset="0" style="stop-color:#73D216"/>
			<stop  offset="1" style="stop-color:#4E9A06"/>
		</radialGradient>
		
			<path id="path3057_9_" inkscape:connector-curvature="0" sodipodi:nodetypes="cccscccssccccc" fill="url(#path3057_1_)" stroke="#3A7304" stroke-linecap="round" d="
			M-61.159,139.782l-5.286,5.304l7.263-0.006c-0.003,4.439-3.604,8.035-8.046,8.035c-2.658,0-5.018-1.295-6.482-3.284l-0.243-0.304
			l-4.866,4.674c2.7,3.427,6.885,5.631,11.591,5.633c8.149,0.004,14.761-6.604,14.768-14.753c0-0.004,0-0.011,0-0.014l5.999-0.013
			l-9.209-9.176l-0.728-0.647L-61.159,139.782z"/>
		
			<radialGradient id="path3101_1_" cx="-24.3778" cy="23.1699" r="16.3144" gradientTransform="matrix(1.5624 -0.3458 -0.2438 -1.1016 -35.1019 163.817)" gradientUnits="userSpaceOnUse">
			<stop  offset="0" style="stop-color:#73D216"/>
			<stop  offset="1" style="stop-color:#4E9A06"/>
		</radialGradient>
		
			<path id="path3101_9_" inkscape:connector-curvature="0" sodipodi:nodetypes="cccscccssccccc" fill="url(#path3101_1_)" stroke="#3A7304" stroke-linecap="round" d="
			M-74.089,149.646l5.282-5.298l-7.263,0.006c0.003-4.438,3.604-8.04,8.05-8.037c2.658,0,5.017,1.296,6.479,3.285l0.231,0.326
			l4.898-4.688c-2.705-3.428-6.908-5.637-11.608-5.64c-8.152-0.003-14.764,6.604-14.768,14.753c0,0.003,0,0.01,0,0.013l-5.999,0.011
			l9.208,9.175l0.728,0.651L-74.089,149.646z"/>
	</g>
</g>
<g id="layer1_1_" transform="translate(111.82696,-146.98173)" inkscape:label="Capa 1" inkscape:groupmode="layer" opacity="0.48">
	<g>
		<g id="g3119_9_" transform="translate(-20.203051,26.263966)">
			<g id="path3057_11_" inkscape:connector-curvature="0" sodipodi:nodetypes="cccscccssccccc">
				<path fill="none" stroke="#FFFFFF" stroke-linecap="round" d="M-67.227,158.833c-3.937-0.002-7.614-1.652-10.224-4.56
					l3.401-3.268c1.692,1.949,4.2,3.108,6.822,3.108c4.984,0,9.043-4.053,9.046-9.034l0.001-1.002l-5.853,0.005l3.583-3.595
					l4.077-3.899l7.498,7.468l-4.585,0.011v0.998c-0.007,7.598-6.18,13.768-13.761,13.768H-67.227z"/>
			</g>
			<g id="path3101_11_" inkscape:connector-curvature="0" sodipodi:nodetypes="cccscccssccccc">
				<path fill="none" stroke="#FFFFFF" stroke-linecap="round" d="M-86.37,145.374l4.583-0.008v-0.998
					c0.004-7.597,6.178-13.767,13.761-13.767c3.946,0.002,7.63,1.656,10.246,4.566l-3.416,3.269
					c-1.716-1.969-4.212-3.119-6.823-3.119c-4.989,0-9.046,4.053-9.05,9.036l-0.001,1.002l5.853-0.005l-3.579,3.59l-4.076,3.902
					L-86.37,145.374z"/>
			</g>
		</g>
	</g>
</g>
</svg>
