<?xml version="1.0" encoding="utf-8"?>
<!-- Generator: Adobe Illustrator 16.0.0, SVG Export Plug-In . SVG Version: 6.00 Build 0)  -->
<!DOCTYPE svg PUBLIC "-//W3C//DTD SVG 1.1//EN" "http://www.w3.org/Graphics/SVG/1.1/DTD/svg11.dtd">
<svg version="1.1" id="Layer_1" xmlns="http://www.w3.org/2000/svg" xmlns:xlink="http://www.w3.org/1999/xlink" x="0px" y="0px"
	 width="311.436px" height="311.44px" viewBox="-0.269 -0.021 311.436 311.44"
	 enable-background="new -0.269 -0.021 311.436 311.44" xml:space="preserve">
<g>
	
		<linearGradient id="SVGID_1_" gradientUnits="userSpaceOnUse" x1="59.4956" y1="95.874" x2="232.8496" y2="95.874" gradientTransform="matrix(0.3697 -0.5276 -0.8189 -0.5739 282.8366 167.7426)">
		<stop  offset="0.0056" style="stop-color:#080A0C"/>
		<stop  offset="0.073" style="stop-color:#0B0F17"/>
		<stop  offset="0.5" style="stop-color:#828790"/>
		<stop  offset="0.618" style="stop-color:#697485"/>
		<stop  offset="0.6744" style="stop-color:#667183"/>
		<stop  offset="0.7305" style="stop-color:#5B6A7E"/>
		<stop  offset="0.7863" style="stop-color:#4A5D76"/>
		<stop  offset="0.809" style="stop-color:#415772"/>
		<stop  offset="1" style="stop-color:#030406"/>
	</linearGradient>
	<polyline fill="url(#SVGID_1_)" stroke="#000000" stroke-width="0.5" stroke-miterlimit="10" points="225.011,80.413 
		272.267,12.978 259.181,14.198 290.597,-10 278.2,27.525 275.491,16.313 228.742,83.027 	"/>
	
		<linearGradient id="SVGID_2_" gradientUnits="userSpaceOnUse" x1="-111.8286" y1="94.6084" x2="77.7554" y2="94.6084" gradientTransform="matrix(0.4578 -0.6533 -0.8189 -0.5739 195.765 292.1686)">
		<stop  offset="0.0056" style="stop-color:#080A0C"/>
		<stop  offset="0.073" style="stop-color:#0B0F17"/>
		<stop  offset="0.5" style="stop-color:#828790"/>
		<stop  offset="0.618" style="stop-color:#697485"/>
		<stop  offset="0.6744" style="stop-color:#667183"/>
		<stop  offset="0.7305" style="stop-color:#5B6A7E"/>
		<stop  offset="0.7863" style="stop-color:#4A5D76"/>
		<stop  offset="0.809" style="stop-color:#415772"/>
		<stop  offset="1" style="stop-color:#030406"/>
	</linearGradient>
	<polyline fill="url(#SVGID_2_)" stroke="#000000" stroke-width="0.5" stroke-miterlimit="10" points="155.19,187.988 
		110.304,252.045 111.08,270.775 101.944,283.814 100.476,275.078 100.099,275.615 99.89,275.912 99.85,275.969 99.473,276.508 
		99.444,276.547 99.306,276.746 99.264,276.805 98.929,277.283 98.819,277.439 98.72,277.582 98.68,277.641 98.304,278.176 
		98.274,278.215 98.094,278.475 97.649,279.109 98.946,288.09 94.476,294.471 93.179,285.49 92.801,286.027 92.593,286.326 
		92.345,286.68 92.147,286.959 92.01,287.158 91.968,287.217 91.76,287.514 91.631,287.695 91.422,287.994 91.313,288.15 
		91.174,288.35 90.979,288.629 90.797,288.887 90.589,289.186 90.145,289.818 91.442,298.801 87.769,304.043 86.298,295.307 
		85.921,295.846 85.712,296.143 85.672,296.201 85.296,296.738 85.269,296.777 85.129,296.977 85.087,297.035 84.751,297.514 
		84.642,297.67 84.543,297.813 84.502,297.869 84.126,298.406 84.099,298.445 83.918,298.705 83.473,299.34 84.771,308.32 
		78.558,317.188 75.903,301.133 72.174,298.518 56.466,303.48 63.269,293.775 71.979,292.17 72.422,291.535 72.632,291.238 
		72.812,290.982 73.008,290.701 73.147,290.502 73.256,290.348 73.465,290.049 73.593,289.867 73.802,289.57 73.841,289.512 
		73.981,289.313 74.178,289.033 74.427,288.678 74.635,288.381 75.012,287.842 66.128,289.691 69.977,284.201 78.857,282.354 
		79.303,281.719 79.513,281.422 79.692,281.164 79.888,280.885 80.027,280.686 80.137,280.529 80.346,280.232 80.473,280.051 
		80.682,279.752 80.723,279.693 80.861,279.494 81.058,279.213 81.308,278.859 81.516,278.563 81.892,278.023 73.008,279.873 
		77.689,273.195 86.571,271.346 87.016,270.711 87.196,270.453 87.226,270.412 87.602,269.877 87.642,269.818 87.742,269.676 
		87.851,269.521 88.186,269.041 88.228,268.982 88.368,268.785 88.395,268.744 88.771,268.207 88.811,268.148 89.021,267.852 
		89.396,267.314 80.515,269.164 89.823,255.879 106.99,248.836 151.459,185.374 	"/>
</g>
<g>
	
		<linearGradient id="SVGID_3_" gradientUnits="userSpaceOnUse" x1="-80.9941" y1="225.0303" x2="92.3574" y2="225.0303" gradientTransform="matrix(-0.3697 -0.5276 0.8189 -0.5739 -136.1442 167.7426)">
		<stop  offset="0.0056" style="stop-color:#080A0C"/>
		<stop  offset="0.073" style="stop-color:#0B0F17"/>
		<stop  offset="0.5" style="stop-color:#828790"/>
		<stop  offset="0.618" style="stop-color:#697485"/>
		<stop  offset="0.6744" style="stop-color:#667183"/>
		<stop  offset="0.7305" style="stop-color:#5B6A7E"/>
		<stop  offset="0.7863" style="stop-color:#4A5D76"/>
		<stop  offset="0.809" style="stop-color:#415772"/>
		<stop  offset="1" style="stop-color:#030406"/>
	</linearGradient>
	<polyline fill="url(#SVGID_3_)" stroke="#000000" stroke-width="0.5" stroke-miterlimit="10" points="79.387,80.413 32.129,12.978 
		45.215,14.198 13.802,-10 26.198,27.525 28.907,16.313 75.657,83.027 	"/>
	
		<linearGradient id="SVGID_4_" gradientUnits="userSpaceOnUse" x1="-225.2871" y1="223.7627" x2="-35.7012" y2="223.7627" gradientTransform="matrix(-0.4578 -0.6533 0.8189 -0.5739 -49.0726 292.1686)">
		<stop  offset="0.0056" style="stop-color:#080A0C"/>
		<stop  offset="0.073" style="stop-color:#0B0F17"/>
		<stop  offset="0.5" style="stop-color:#828790"/>
		<stop  offset="0.618" style="stop-color:#697485"/>
		<stop  offset="0.6744" style="stop-color:#667183"/>
		<stop  offset="0.7305" style="stop-color:#5B6A7E"/>
		<stop  offset="0.7863" style="stop-color:#4A5D76"/>
		<stop  offset="0.809" style="stop-color:#415772"/>
		<stop  offset="1" style="stop-color:#030406"/>
	</linearGradient>
	<polyline fill="url(#SVGID_4_)" stroke="#000000" stroke-width="0.5" stroke-miterlimit="10" points="149.208,187.988 
		194.096,252.045 193.317,270.775 202.453,283.814 203.922,275.078 204.299,275.615 204.508,275.912 204.549,275.969 
		204.926,276.508 204.953,276.547 205.094,276.746 205.135,276.805 205.469,277.283 205.578,277.439 205.68,277.582 
		205.719,277.641 206.096,278.176 206.123,278.215 206.305,278.475 206.748,279.109 205.451,288.09 209.922,294.471 211.219,285.49 
		211.598,286.027 211.805,286.326 212.055,286.68 212.25,286.959 212.389,287.158 212.43,287.217 212.639,287.514 212.766,287.695 
		212.975,287.994 213.084,288.15 213.225,288.35 213.42,288.629 213.6,288.887 213.809,289.186 214.254,289.818 212.954,298.801 
		216.63,304.043 218.099,295.307 218.476,295.846 218.685,296.143 218.726,296.201 219.101,296.738 219.128,296.777 
		219.269,296.977 219.31,297.035 219.646,297.514 219.755,297.67 219.853,297.813 219.894,297.869 220.271,298.406 220.298,298.445 
		220.478,298.705 220.925,299.34 219.626,308.32 225.841,317.188 228.494,301.133 232.224,298.518 247.932,303.48 241.131,293.775 
		232.419,292.17 231.976,291.535 231.765,291.238 231.585,290.982 231.388,290.701 231.25,290.502 231.142,290.348 230.931,290.049 
		230.804,289.867 230.597,289.57 230.556,289.512 230.416,289.313 230.22,289.033 229.972,288.678 229.763,288.381 229.386,287.842 
		238.269,289.691 234.421,284.201 225.539,282.354 225.095,281.719 224.886,281.422 224.705,281.164 224.509,280.885 
		224.371,280.686 224.261,280.529 224.052,280.232 223.925,280.051 223.716,279.752 223.675,279.693 223.535,279.494 
		223.341,279.213 223.091,278.859 222.882,278.563 222.507,278.023 231.388,279.873 226.707,273.195 217.826,271.346 
		217.382,270.711 217.201,270.453 217.171,270.412 216.796,269.877 216.757,269.818 216.656,269.676 216.546,269.521 
		216.212,269.041 216.171,268.982 216.03,268.785 216.004,268.744 215.627,268.207 215.588,268.148 215.377,267.852 
		215.002,267.314 223.884,269.164 214.575,255.879 197.408,248.836 152.937,185.374 	"/>
</g>
<g>
	<g>
		
			<linearGradient id="SVGID_5_" gradientUnits="userSpaceOnUse" x1="183.5059" y1="550.2539" x2="200.2461" y2="550.2539" gradientTransform="matrix(1 0 0 1 0 -291)">
			<stop  offset="0.0165" style="stop-color:#621312"/>
			<stop  offset="1" style="stop-color:#220A0A"/>
		</linearGradient>
		<path fill="url(#SVGID_5_)" d="M183.528,244.074h-0.022l1.713,30.359l0.043-0.021l2.521-0.994
			c6.565-2.816,11.159-6.648,12.463-11.611c-0.601-6.242-7.652-5.996-12.447-10.189
			C184.748,248.945,183.506,246.381,183.528,244.074L183.528,244.074z"/>
		
			<linearGradient id="SVGID_6_" gradientUnits="userSpaceOnUse" x1="274.3057" y1="552.834" x2="294.1865" y2="552.834" gradientTransform="matrix(1 0 0 1 0 -291)">
			<stop  offset="0.0165" style="stop-color:#621312"/>
			<stop  offset="1" style="stop-color:#220A0A"/>
		</linearGradient>
		<path fill="url(#SVGID_6_)" d="M282.55,247.25c-3.332,6.873-5,22.344-8.244,28.979c6.176,1.615,13.873-7.512,17.979-10.732
			c0.318-0.295,0.639-0.604,0.965-0.936C297.843,256.127,284.142,252.996,282.55,247.25L282.55,247.25z"/>
		
			<linearGradient id="SVGID_7_" gradientUnits="userSpaceOnUse" x1="-1843.9678" y1="536.6211" x2="-1909.2916" y2="551.968" gradientTransform="matrix(-1 0 0 1 -1677.125 -291)">
			<stop  offset="0" style="stop-color:#85171C"/>
			<stop  offset="0.6593" style="stop-color:#391110"/>
		</linearGradient>
		<path fill="url(#SVGID_7_)" d="M197.42,233.729c13.506-1.477,30.392,8.074,45.865,17.22c-3.734,5.498-7.639,10.961-10.583,16.926
			c-1.32,2.686-2.604,5.447-3.438,8.332c-0.445,1.551-0.549,3.143-0.693,4.725c-8.832-5.334-16.704-10.178-22.865-11.539
			c-1.734-0.381-3.322-0.492-4.76-0.271l-0.861-7.484l-0.033,0.123c-0.604-6.244-7.654-6-12.447-10.188
			C177.299,242.561,187.646,234.793,197.42,233.729z"/>
		<path fill="#391110" d="M197.42,233.729c2.83-0.311,5.813-0.127,8.895,0.423c-2.375,11.465-1.902,23.727-5.133,34.948
			c-0.076,0.008-0.156,0.008-0.232,0.021l-0.863-7.484l-0.032,0.123c-0.603-6.246-7.654-6-12.447-10.188
			C177.299,242.561,187.646,234.793,197.42,233.729z"/>
		
			<linearGradient id="SVGID_8_" gradientUnits="userSpaceOnUse" x1="212.166" y1="546.1621" x2="256.2126" y2="563.867" gradientTransform="matrix(1 0 0 1 0 -291)">
			<stop  offset="0.2418" style="stop-color:#391110"/>
			<stop  offset="0.4121" style="stop-color:#621312"/>
			<stop  offset="0.5385" style="stop-color:#85171C"/>
			<stop  offset="0.7692" style="stop-color:#85171C"/>
		</linearGradient>
		<path fill="url(#SVGID_8_)" d="M269.374,264.783c-11.486-4.148-27.052-15.246-42.38-23.01
			c-1.895,11.572-5.553,22.893-5.775,34.688c12.75,7.438,28.362,18.189,44.07,21.045c9.344,1.695,13.207,0.262,14.146-7.039
			c1.684-13.152,6.313-18.227,13.154-25.234C287.681,269.602,275.144,266.867,269.374,264.783z"/>
		
			<linearGradient id="SVGID_9_" gradientUnits="userSpaceOnUse" x1="283.2236" y1="574.3105" x2="255.5877" y2="564.3789" gradientTransform="matrix(1 0 0 1 0 -291)">
			<stop  offset="0.1264" style="stop-color:#942436"/>
			<stop  offset="0.1978" style="stop-color:#621312"/>
			<stop  offset="0.2418" style="stop-color:#391110"/>
			<stop  offset="0.4176" style="stop-color:#621312"/>
			<stop  offset="0.5824" style="stop-color:#85171C"/>
		</linearGradient>
		<path fill="url(#SVGID_9_)" d="M269.374,264.783c-2.963-1.074-6.199-2.607-9.633-4.426l-12.003,31.162
			c5.74,2.715,11.636,4.912,17.548,5.984c9.346,1.697,13.209,0.262,14.146-7.037c1.684-13.152,6.313-18.227,13.154-25.234
			C287.681,269.602,275.144,266.867,269.374,264.783z"/>
		
			<linearGradient id="SVGID_10_" gradientUnits="userSpaceOnUse" x1="185.4106" y1="544.3633" x2="272.3496" y2="539.757" gradientTransform="matrix(1 0 0 1 0 -291)">
			<stop  offset="0.1264" style="stop-color:#952438"/>
			<stop  offset="0.1978" style="stop-color:#621312"/>
			<stop  offset="0.2418" style="stop-color:#391110"/>
			<stop  offset="0.4176" style="stop-color:#621312"/>
			<stop  offset="0.5824" style="stop-color:#85171C"/>
		</linearGradient>
		<path fill="url(#SVGID_10_)" d="M197.615,233.774c21.839-2.384,52.521,24.062,71.759,31.009c5.273,1.902,16.201,4.354,21.789,1.43
			c0.467-0.482,0.938-0.973,1.424-1.469c-4.906,4.369-17.441,1.631-23.211-0.451c-19.237-6.945-49.919-33.393-71.759-31.01
			c-7.046,0.771-14.382,5.021-14.076,10.704C183.666,238.551,190.774,234.522,197.615,233.774z"/>
		
			<linearGradient id="SVGID_11_" gradientUnits="userSpaceOnUse" x1="273.3311" y1="555.252" x2="294.1846" y2="555.252" gradientTransform="matrix(1 0 0 1 0 -291)">
			<stop  offset="0.1264" style="stop-color:#952438"/>
			<stop  offset="0.1978" style="stop-color:#621312"/>
			<stop  offset="0.2418" style="stop-color:#391110"/>
			<stop  offset="0.4176" style="stop-color:#621312"/>
			<stop  offset="0.5824" style="stop-color:#85171C"/>
		</linearGradient>
		<path fill="url(#SVGID_11_)" d="M293.249,264.068c-0.328,0.332-0.646,0.639-0.965,0.936c-4.061,3.186-12.576,2.143-18.74,0.557
			c-0.07,0.146-0.141,0.287-0.213,0.438c6.178,1.617,14.85,2.721,18.955-0.502c0.318-0.295,0.637-0.604,0.965-0.936
			c0.723-1.332,0.99-2.525,0.924-3.625C294.146,261.896,293.866,262.932,293.249,264.068z"/>
		
			<linearGradient id="SVGID_12_" gradientUnits="userSpaceOnUse" x1="191.7563" y1="544.9775" x2="187.821" y2="578.4285" gradientTransform="matrix(1 0 0 1 0 -291)">
			<stop  offset="0.1264" style="stop-color:#952438"/>
			<stop  offset="0.1978" style="stop-color:#621312"/>
			<stop  offset="0.2418" style="stop-color:#391110"/>
			<stop  offset="0.4176" style="stop-color:#621312"/>
			<stop  offset="0.5824" style="stop-color:#85171C"/>
		</linearGradient>
		<path fill="url(#SVGID_12_)" d="M187.799,252.105c4.711,4.119,11.582,3.969,12.393,9.875c0.02-0.061,0.039-0.119,0.057-0.176
			c-0.602-6.24-7.653-5.996-12.447-10.188c-3.051-2.67-4.293-5.234-4.271-7.543h-0.021l0.08,1.389
			C183.856,247.531,185.139,249.777,187.799,252.105z"/>
		<g>
			
				<linearGradient id="SVGID_13_" gradientUnits="userSpaceOnUse" x1="200.5596" y1="570.4063" x2="279.5127" y2="570.4063" gradientTransform="matrix(1 0 0 1 0 -291)">
				<stop  offset="0.1264" style="stop-color:#D8E9F4"/>
				<stop  offset="0.1978" style="stop-color:#B2B7C8"/>
				<stop  offset="0.2418" style="stop-color:#8692AB"/>
				<stop  offset="0.3407" style="stop-color:#B2B7C8"/>
				<stop  offset="0.5275" style="stop-color:#EDF5FA"/>
				<stop  offset="0.8571" style="stop-color:#D8E9F4"/>
			</linearGradient>
			<path fill="url(#SVGID_13_)" d="M271.517,293.225c-1.799,0-3.842-0.225-6.096-0.633c-14.788-2.676-29.662-12.551-42.101-19.934
				c-0.467-0.275-0.93-0.549-1.391-0.818c-0.002-0.021-0.008-0.049-0.02-0.084c-0.068-0.016-0.893-0.512-0.959-0.488
				c-0.725-0.418-1.438-0.826-2.145-1.221c-4.698-2.629-8.976-4.674-12.743-5.512c-0.558-0.125-1.094-0.213-1.619-0.277
				c-0.09-0.01-0.146-0.014-0.168-0.018c-0.502-0.055-0.991-0.09-1.469-0.094c-0.06-0.004-0.134-0.002-0.195-0.002
				c-0.149,0-1.141-0.02-2.053-0.031l0.192,1.674l0.5-0.076c0.422-0.066,0.879-0.094,1.359-0.094c0.063,0,0.109,0.004,0.156,0.004
				c0.441,0.006,0.883,0.035,1.332,0.086c0.082,0.008,0.139,0.012,0.158,0.016c0.484,0.061,0.977,0.141,1.482,0.252
				c4.1,0.9,9.13,3.463,14.746,6.727v0.002l0.357,0.207c12.721,7.412,28.375,18.23,44.31,21.131
				c2.318,0.424,4.445,0.654,6.361,0.654c0.1,0.002,0.199,0.004,0.301,0.004c2.906,0,5.375-0.668,7.197-2.072
				c0.174-0.658,0.314-1.369,0.418-2.16c0.023-0.191,0.055-0.365,0.082-0.555C278.034,292.229,275.431,293.162,271.517,293.225z"/>
		</g>
	</g>
	<g>
		
			<linearGradient id="SVGID_14_" gradientUnits="userSpaceOnUse" x1="126.1436" y1="556.7178" x2="93.8749" y2="536.648" gradientTransform="matrix(1 0 0 1 0 -291)">
			<stop  offset="0.0165" style="stop-color:#621312"/>
			<stop  offset="1" style="stop-color:#220A0A"/>
		</linearGradient>
		<path fill="url(#SVGID_14_)" d="M117.389,244.025l0.021,0.002l-1.708,30.354l-0.048-0.01l-2.517-1.002
			c-6.564-2.816-11.161-6.645-12.467-11.609c0.603-6.244,7.653-6,12.448-10.188C116.167,248.9,117.409,246.338,117.389,244.025
			L117.389,244.025z"/>
		
			<linearGradient id="SVGID_15_" gradientUnits="userSpaceOnUse" x1="6.7314" y1="553.4473" x2="27.7305" y2="553.4473" gradientTransform="matrix(1 0 0 1 0 -291)">
			<stop  offset="0.0165" style="stop-color:#621312"/>
			<stop  offset="1" style="stop-color:#220A0A"/>
		</linearGradient>
		<path fill="url(#SVGID_15_)" d="M18.367,247.203c3.337,6.871,6.117,23.689,9.364,30.32c-6.177,1.621-14.993-8.857-19.099-12.078
			c-0.316-0.293-0.637-0.598-0.963-0.936C3.075,256.078,16.777,252.945,18.367,247.203L18.367,247.203z"/>
		<path fill="#85171C" d="M103.301,233.729c-21.836-2.387-52.523,24.058-71.758,31.003c-0.228,0.084-0.472,0.168-0.721,0.254
			c2.475,5.732,4.21,11.729,7.503,17.125c1.887,3.088,4.292,6.328,5.353,9.836c0.311,1.033,0.577,2.074,0.835,3.115
			c19.686-6.877,38.388-22.988,50.502-25.67c1.731-0.381,3.321-0.492,4.758-0.271l0.86-7.484l0.034,0.123
			c0.603-6.244,7.653-6,12.448-10.188C123.42,242.561,113.073,234.793,103.301,233.729z"/>
		
			<linearGradient id="SVGID_16_" gradientUnits="userSpaceOnUse" x1="18.0723" y1="574.3154" x2="62.5384" y2="557.3947" gradientTransform="matrix(1 0 0 1 0 -291)">
			<stop  offset="0.1264" style="stop-color:#952438"/>
			<stop  offset="0.1978" style="stop-color:#621312"/>
			<stop  offset="0.2418" style="stop-color:#391110"/>
			<stop  offset="0.4176" style="stop-color:#621312"/>
			<stop  offset="0.5824" style="stop-color:#85171C"/>
		</linearGradient>
		<path fill="url(#SVGID_16_)" d="M69.787,276.662c-1.199-3.66-2.754-7.182-4.66-10.533c-2.806-4.934-6.011-9.6-9.182-14.295
			c-8.989,5.324-17.447,10.391-24.403,12.898c-5.769,2.086-18.313,4.818-23.218,0.451c6.839,7.008,11.472,12.082,13.162,25.232
			c0.937,7.305,4.799,8.736,14.14,7.041c12.127-2.199,24.197-9.113,34.939-15.572C70.411,280.137,70.349,278.377,69.787,276.662z"/>
		
			<linearGradient id="SVGID_17_" gradientUnits="userSpaceOnUse" x1="133.876" y1="536.6221" x2="68.5545" y2="551.9685" gradientTransform="matrix(1 0 0 1 0 -291)">
			<stop  offset="0.1264" style="stop-color:#621312"/>
			<stop  offset="0.1978" style="stop-color:#621312"/>
			<stop  offset="0.2418" style="stop-color:#391110"/>
			<stop  offset="0.4121" style="stop-color:#621312"/>
			<stop  offset="0.6154" style="stop-color:#621312"/>
			<stop  offset="0.7692" style="stop-color:#85171C"/>
		</linearGradient>
		<path fill="url(#SVGID_17_)" d="M103.301,233.729c-13.505-1.477-30.393,8.074-45.864,17.22c3.734,5.498,7.639,10.961,10.58,16.926
			c1.322,2.686,2.604,5.447,3.438,8.332c0.447,1.551,0.549,3.143,0.692,4.725c8.836-5.334,16.705-10.178,22.869-11.539
			c1.731-0.381,3.321-0.492,4.758-0.271l0.86-7.484l0.034,0.123c0.603-6.244,7.653-6,12.448-10.188
			C123.42,242.561,113.073,234.793,103.301,233.729z"/>
		
			<linearGradient id="SVGID_18_" gradientUnits="userSpaceOnUse" x1="133.8291" y1="540.7783" x2="82.6761" y2="543.1389" gradientTransform="matrix(1 0 0 1 0 -291)">
			<stop  offset="0.1264" style="stop-color:#952438"/>
			<stop  offset="0.1978" style="stop-color:#621312"/>
			<stop  offset="0.2418" style="stop-color:#391110"/>
			<stop  offset="0.7857" style="stop-color:#621312"/>
		</linearGradient>
		<path fill="url(#SVGID_18_)" d="M103.301,233.729c-2.829-0.311-5.811-0.127-8.894,0.423c2.377,11.465,1.903,23.727,5.131,34.948
			c0.077,0.008,0.158,0.008,0.236,0.021l0.86-7.484l0.034,0.123c0.603-6.246,7.653-6,12.448-10.188
			C123.42,242.561,113.073,234.793,103.301,233.729z"/>
		
			<linearGradient id="SVGID_19_" gradientUnits="userSpaceOnUse" x1="8.3247" y1="541.3018" x2="117.3867" y2="541.3018" gradientTransform="matrix(1 0 0 1 0 -291)">
			<stop  offset="0.1264" style="stop-color:#952438"/>
			<stop  offset="0.1978" style="stop-color:#621312"/>
			<stop  offset="0.2418" style="stop-color:#391110"/>
			<stop  offset="0.4176" style="stop-color:#621312"/>
			<stop  offset="0.5824" style="stop-color:#85171C"/>
		</linearGradient>
		<path fill="url(#SVGID_19_)" d="M103.301,233.24c-21.836-2.387-52.523,24.057-71.758,31.002
			c-5.769,2.084-18.313,4.82-23.218,0.451c0.488,0.498,0.96,0.986,1.425,1.469c5.589,2.924,16.521,0.477,21.793-1.43
			c19.235-6.945,49.922-33.39,71.758-31.004c6.837,0.746,13.948,4.776,14.077,10.211
			C117.683,238.254,110.343,234.006,103.301,233.24z"/>
		
			<linearGradient id="SVGID_20_" gradientUnits="userSpaceOnUse" x1="6.7314" y1="555.2012" x2="27.5903" y2="555.2012" gradientTransform="matrix(1 0 0 1 0 -291)">
			<stop  offset="0.1264" style="stop-color:#952438"/>
			<stop  offset="0.1978" style="stop-color:#621312"/>
			<stop  offset="0.2418" style="stop-color:#391110"/>
			<stop  offset="0.4176" style="stop-color:#621312"/>
			<stop  offset="0.5824" style="stop-color:#85171C"/>
		</linearGradient>
		<path fill="url(#SVGID_20_)" d="M7.667,264.51c0.327,0.338,0.647,0.643,0.963,0.936c4.106,3.221,12.779,2.123,18.96,0.5
			c-0.074-0.15-0.143-0.287-0.215-0.438c-6.166,1.594-14.685,2.631-18.745-0.551c-0.316-0.293-0.637-0.602-0.963-0.938
			c-0.617-1.139-0.897-2.172-0.926-3.135C6.673,261.982,6.943,263.182,7.667,264.51z"/>
		
			<linearGradient id="SVGID_21_" gradientUnits="userSpaceOnUse" x1="128.8506" y1="517.791" x2="106.4211" y2="548.0904" gradientTransform="matrix(1 0 0 1 0 -291)">
			<stop  offset="0.1264" style="stop-color:#952438"/>
			<stop  offset="0.1978" style="stop-color:#621312"/>
			<stop  offset="0.2418" style="stop-color:#391110"/>
			<stop  offset="0.4176" style="stop-color:#621312"/>
			<stop  offset="0.5824" style="stop-color:#85171C"/>
		</linearGradient>
		<path fill="url(#SVGID_21_)" d="M117.389,244.025c0.021,2.313-1.222,4.875-4.272,7.545c-4.795,4.188-11.845,3.943-12.448,10.188
			c0.017,0.063,0.041,0.117,0.055,0.174c0.815-5.902,7.686-5.758,12.393-9.871c2.658-2.324,3.941-4.568,4.215-6.637l0.078-1.395
			L117.389,244.025z"/>
		<g>
			
				<linearGradient id="SVGID_22_" gradientUnits="userSpaceOnUse" x1="21.4067" y1="570.373" x2="100.3037" y2="570.373" gradientTransform="matrix(1 0 0 1 0 -291)">
				<stop  offset="0.1264" style="stop-color:#D8E9F4"/>
				<stop  offset="0.1978" style="stop-color:#B2B7C8"/>
				<stop  offset="0.2418" style="stop-color:#8692AB"/>
				<stop  offset="0.3407" style="stop-color:#B2B7C8"/>
				<stop  offset="0.5275" style="stop-color:#EDF5FA"/>
				<stop  offset="0.8571" style="stop-color:#D8E9F4"/>
			</linearGradient>
			<path fill="url(#SVGID_22_)" d="M94.854,264.482c-6.749,1.51-15.192,6.889-24.668,12.578l-0.416,0.246l0.001,0.008
				c-3.574,2.145-7.289,4.328-11.092,6.361l-0.04,0.023c-3.483,1.861-7.037,3.592-10.633,5.059c-0.06,0.023-0.125,0.051-0.2,0.082
				c-4.074,1.648-8.198,2.963-12.31,3.707c-2.258,0.406-4.299,0.629-6.094,0.629c-3.912-0.063-6.517-0.992-7.995-3.303
				c0.024,0.188,0.056,0.355,0.079,0.543c0.104,0.797,0.246,1.512,0.421,2.17c1.825,1.402,4.295,2.068,7.206,2.068
				c0.096,0,0.192,0,0.289-0.002c1.915,0,4.037-0.234,6.355-0.654c4.243-0.77,8.462-2.111,12.606-3.791
				c0.063-0.025,0.13-0.055,0.205-0.084c3.652-1.486,7.25-3.24,10.762-5.119l0.046-0.023c3.985-2.133,7.861-4.418,11.567-6.646
				l0.412-0.25v-0.002c9.307-5.613,17.609-10.795,23.818-12.156c1.078-0.236,2.087-0.361,3.025-0.357
				c0.269-0.002,0.531,0.008,0.786,0.029l0.003,0.008l0.479,0.045c0.127,0.008,0.185,0.01,0.185,0.01l0.509,0.088l0.144-1.252
				c-0.808-0.168-1.901-0.404-2.106-0.404C97.136,264.09,96.022,264.229,94.854,264.482z"/>
		</g>
	</g>
	
		<linearGradient id="SVGID_23_" gradientUnits="userSpaceOnUse" x1="13.4253" y1="545.7568" x2="287.4854" y2="545.7568" gradientTransform="matrix(1 0 0 1 0 -291)">
		<stop  offset="0.1264" style="stop-color:#D8E9F4"/>
		<stop  offset="0.1978" style="stop-color:#B2B7C8"/>
		<stop  offset="0.2418" style="stop-color:#8692AB"/>
		<stop  offset="0.3407" style="stop-color:#B2B7C8"/>
		<stop  offset="0.5275" style="stop-color:#EDF5FA"/>
		<stop  offset="0.8571" style="stop-color:#D8E9F4"/>
	</linearGradient>
	<path fill="url(#SVGID_23_)" d="M284.194,271.006c-5.145,0.006-11.133-1.49-14.568-2.732
		c-10.752-3.875-25.372-14.078-39.996-21.773l0.002-0.01l-0.518-0.266c-0.27-0.145-0.533-0.273-0.787-0.406
		c-0.326-0.166-0.662-0.344-1.004-0.52l-0.867-0.436v0.01c-5.225-2.602-10.422-4.792-15.445-6.184v-0.021l-0.547-0.146
		c-0.283-0.077-0.549-0.137-0.806-0.202l-0.028-0.009l-0.933-0.251v0.028c-2.829-0.648-5.6-1.02-8.274-1.02
		c-0.977,0-1.939,0.047-2.893,0.154c-5.734,0.656-11.791,3.455-13.935,7.81c0.104,0.754,0.346,1.531,0.737,2.326
		c0.728-4.383,7.074-8.015,13.359-8.669c0.891-0.1,1.801-0.146,2.729-0.146c2.813,0,5.773,0.434,8.837,1.197l0.272,0.068v0.01
		l0.547,0.146c5.324,1.414,10.927,3.796,16.574,6.656l0.689,0.35c0.104,0.055,0.205,0.105,0.309,0.16
		c0.107,0.055,0.209,0.105,0.313,0.158l0.469,0.244c14.698,7.666,29.484,18.068,40.691,22.127c3.59,1.287,9.652,2.816,15.07,2.822
		c0.678-0.002,1.346-0.035,2-0.086c0.414-0.557,0.848-1.1,1.293-1.639C286.46,270.928,285.353,271.01,284.194,271.006z
		 M103.378,237.178c-0.721-0.078-1.448-0.123-2.183-0.144c-0.003,0-0.035-0.004-0.09-0.004c-0.127,0-0.233,0.004-0.319,0.004
		c-0.021,0-0.043,0-0.064,0.003c-0.153-0.003-0.313-0.003-0.473-0.003c-0.431,0-0.868,0.007-1.315,0.029
		c-0.136,0.006-0.249,0.021-0.323,0.022c-0.643,0.039-1.298,0.092-1.964,0.168c-0.133,0.019-0.239,0.035-0.314,0.045
		c-0.651,0.082-1.31,0.179-1.975,0.297c-0.011,0.004-0.012,0-0.09,0.013l-0.732,0.142v0.002
		c-13.502,2.678-28.66,12.16-42.179,20.119c-0.632,0.373-1.263,0.744-1.889,1.111c-0.378,0.219-0.755,0.438-1.13,0.656
		c-0.628,0.363-1.251,0.725-1.872,1.078c-0.329,0.188-0.66,0.375-0.983,0.561c-0.879,0.5-1.748,0.982-2.604,1.455
		c-0.242,0.135-0.486,0.264-0.735,0.396c-0.681,0.371-1.355,0.73-2.023,1.078c-0.264,0.141-0.527,0.277-0.786,0.41
		c-0.854,0.439-1.695,0.859-2.518,1.25c-0.131,0.063-0.271,0.125-0.427,0.201c-0.704,0.33-1.393,0.641-2.074,0.936
		c-0.225,0.1-0.454,0.195-0.677,0.289c-0.802,0.338-1.59,0.656-2.346,0.928c-3.439,1.246-9.429,2.74-14.577,2.738
		c-1.158,0-2.264-0.082-3.291-0.248c0.447,0.539,0.879,1.082,1.295,1.637c0.654,0.053,1.318,0.084,1.996,0.086
		c5.424-0.006,11.486-1.527,15.077-2.822c0.792-0.287,1.601-0.613,2.419-0.955c0.231-0.098,0.458-0.195,0.689-0.297
		c0.696-0.301,1.401-0.619,2.12-0.957c0.133-0.064,0.271-0.125,0.433-0.201c0.837-0.4,1.69-0.826,2.556-1.271
		c0.265-0.137,0.53-0.275,0.795-0.414c0.675-0.35,1.354-0.715,2.045-1.088c0.242-0.129,0.484-0.26,0.738-0.4
		c0.865-0.473,1.739-0.961,2.624-1.463c0.326-0.188,0.661-0.377,0.989-0.566c0.62-0.354,1.246-0.717,1.875-1.08
		c0.38-0.223,0.755-0.438,1.135-0.662c0.629-0.365,1.263-0.738,1.895-1.113c13.766-8.125,29.194-17.709,42.43-20.075l0.334-0.062
		c0.545-0.09,1.095-0.168,1.647-0.237c0.126-0.019,0.231-0.036,0.304-0.044c0.627-0.073,1.254-0.124,1.879-0.16
		c0.142-0.008,0.245-0.021,0.315-0.021c0.409-0.022,0.821-0.031,1.234-0.031c0.164,0,0.331,0.004,0.499,0.004l0.07,0.004
		l0.016-0.004c0.105-0.001,0.197-0.006,0.271-0.006c0,0,0.009,0,0.049,0.002c0.698,0.02,1.388,0.063,2.065,0.137
		c6.283,0.65,12.634,4.287,13.358,8.673c0.392-0.795,0.634-1.574,0.74-2.328C115.174,240.631,109.115,237.833,103.378,237.178z"/>
</g>
<g>
	
		<linearGradient id="SVGID_24_" gradientUnits="userSpaceOnUse" x1="43.7275" y1="414.9258" x2="239.7023" y2="449.4815" gradientTransform="matrix(1 0 0 1 0 -291)">
		<stop  offset="0.21" style="stop-color:#1E2145"/>
		<stop  offset="0.89" style="stop-color:#5E618F"/>
	</linearGradient>
	<path fill="url(#SVGID_24_)" stroke="#262666" stroke-width="2" d="M249.426,65.42c0-0.004,0-0.009-0.002-0.013
		c-0.168-5.193-0.447-9.773-0.752-13.615c-22.258-2.027-37.052-3.981-48.728-6.408c-11.022-2.278-18.821-5.009-26.2-8.063
		c0,0,0,0-0.002-0.001c-1.869-0.773-3.714-1.567-5.572-2.379l-2.305-1.008c-3.98-1.74-8.423-3.682-13.792-5.833
		c-1.033,0.397-2.051,0.781-3.069,1.166c-0.001,0-0.002,0.001-0.004,0.001c-9.68,3.656-18.722,6.757-27.127,9.386
		c-0.016,0.005-0.03,0.01-0.047,0.015c-6.984,2.186-13.532,4.046-19.634,5.626c-0.025,0.008-0.051,0.015-0.076,0.021
		c-6.049,1.564-11.668,2.86-16.844,3.925c-5.727,1.177-10.914,2.076-15.569,2.76c0,0-0.002,0-0.003,0.001
		c-5.105,0.751-9.573,1.243-13.39,1.56c-0.358,4.675-0.704,10.812-0.82,17.971v0.001c-0.027,1.66-0.042,3.373-0.041,5.137
		c-0.003,4.34,0.088,9.042,0.311,14.021c0.252,5.692,0.679,11.755,1.342,18.085c0,0.003,0,0.006,0,0.008
		c0.582,5.562,1.343,11.323,2.334,17.224c0,0,0,0.002,0.001,0.004c0.92,5.479,2.035,11.073,3.379,16.726h0.001
		c1.27,5.339,2.746,10.729,4.453,16.121c0.001,0.002,0.003,0.004,0.004,0.007c1.683,5.313,3.596,10.627,5.76,15.896
		c0.001,0.002,0.002,0.006,0.003,0.009c0.212,0.517,0.418,1.032,0.635,1.548c2.075,4.914,4.299,9.639,6.674,14.178
		c0.002,0.004,0.004,0.01,0.007,0.014c2.913,5.568,6.052,10.855,9.425,15.869c3.901,5.802,8.121,11.229,12.653,16.299
		c0.014,0.017,0.026,0.031,0.042,0.048c5.691,6.362,11.885,12.166,18.6,17.411c9.428,7.367,19.878,13.65,31.397,18.892
		c18.673-8.48,34.533-19.699,47.79-33.834c9.697-10.339,17.995-22.239,24.965-35.78c0.014-0.025,0.027-0.052,0.041-0.076
		c2.156-4.195,4.191-8.541,6.098-13.054c3.482-8.271,6.32-16.667,8.643-25.001c3.926-14.119,6.344-28.068,7.766-40.966
		c0.002-0.021,0.004-0.046,0.006-0.067c1.371-12.454,1.818-23.929,1.814-33.625C249.588,72.006,249.527,68.599,249.426,65.42z"/>
</g>
<defs>
	<filter id="Adobe_OpacityMaskFilter" filterUnits="userSpaceOnUse" x="54.45" y="27.026" width="196.144" height="232.102">
		<feColorMatrix  type="matrix" values="1 0 0 0 0  0 1 0 0 0  0 0 1 0 0  0 0 0 1 0"/>
	</filter>
</defs>
<mask maskUnits="userSpaceOnUse" x="54.45" y="27.026" width="196.144" height="232.102" id="SVGID_27_">
	<g filter="url(#Adobe_OpacityMaskFilter)">
		
			<image overflow="visible" enable-background="new    " width="832" height="982" xlink:href="557301F8.jpg"  transform="matrix(0.2382 0 0 0.2383 53.4507 26.1001)">
		</image>
	</g>
</mask>
<g opacity="0.98" mask="url(#SVGID_27_)">
	
		<linearGradient id="SVGID_25_" gradientUnits="userSpaceOnUse" x1="55.4497" y1="357.9355" x2="249.5938" y2="357.9355" gradientTransform="matrix(1 0 0 -1 0 501)">
		<stop  offset="0.21" style="stop-color:#191C3B"/>
		<stop  offset="0.89" style="stop-color:#2B2C40"/>
	</linearGradient>
	<path fill="url(#SVGID_25_)" stroke="#262666" stroke-width="2" d="M249.426,65.42c0-0.004,0-0.009-0.002-0.013
		c-0.168-5.193-0.447-9.773-0.752-13.615c-22.258-2.027-37.052-3.981-48.728-6.408c-11.022-2.278-18.821-5.009-26.2-8.063
		c0,0,0,0-0.002-0.001c-1.869-0.773-3.714-1.567-5.572-2.379l-2.305-1.008c-3.98-1.74-8.423-3.682-13.792-5.833
		c-1.033,0.397-2.051,0.781-3.069,1.166c-0.001,0-0.002,0.001-0.004,0.001c-9.68,3.656-18.722,6.757-27.127,9.386
		c-0.016,0.005-0.03,0.01-0.047,0.015c-6.984,2.186-13.532,4.046-19.634,5.626c-0.025,0.008-0.051,0.015-0.076,0.021
		c-6.049,1.564-11.668,2.86-16.844,3.925c-5.727,1.177-10.914,2.076-15.569,2.76c0,0-0.002,0-0.003,0.001
		c-5.105,0.751-9.573,1.243-13.39,1.56c-0.358,4.675-0.704,10.812-0.82,17.971v0.001c-0.027,1.66-0.042,3.373-0.041,5.137
		c-0.003,4.34,0.088,9.042,0.311,14.021c0.252,5.692,0.679,11.755,1.342,18.085c0,0.003,0,0.006,0,0.008
		c0.582,5.562,1.343,11.323,2.334,17.224c0,0,0,0.002,0.001,0.004c0.92,5.479,2.035,11.073,3.379,16.726h0.001
		c1.27,5.339,2.746,10.729,4.453,16.121c0.001,0.002,0.003,0.004,0.004,0.007c1.683,5.313,3.596,10.627,5.76,15.896
		c0.001,0.002,0.002,0.006,0.003,0.009c0.212,0.517,0.418,1.032,0.635,1.548c2.075,4.914,4.299,9.639,6.674,14.178
		c0.002,0.004,0.004,0.01,0.007,0.014c2.913,5.568,6.052,10.855,9.425,15.869c3.901,5.802,8.121,11.229,12.653,16.299
		c0.014,0.017,0.026,0.031,0.042,0.048c5.691,6.362,11.885,12.166,18.6,17.411c9.428,7.367,19.878,13.65,31.397,18.892
		c18.673-8.48,34.533-19.699,47.79-33.834c9.697-10.339,17.995-22.239,24.965-35.78c0.014-0.025,0.027-0.052,0.041-0.076
		c2.156-4.195,4.191-8.541,6.098-13.054c3.482-8.271,6.32-16.667,8.643-25.001c3.926-14.119,6.344-28.068,7.766-40.966
		c0.002-0.021,0.004-0.046,0.006-0.067c1.371-12.454,1.818-23.929,1.814-33.625C249.588,72.006,249.527,68.599,249.426,65.42z"/>
</g>
<g>
	
		<linearGradient id="SVGID_26_" gradientUnits="userSpaceOnUse" x1="100.792" y1="432.8057" x2="204.748" y2="432.8057" gradientTransform="matrix(1 0 0 1 0 -291)">
		<stop  offset="0" style="stop-color:#FFD10A"/>
		<stop  offset="0.9555" style="stop-color:#FFB21A"/>
		<stop  offset="1" style="stop-color:#FFB01B"/>
	</linearGradient>
	<path fill="url(#SVGID_26_)" d="M151.635,242.551c-8.851,0-16.051-5.972-16.051-13.312c0-4.716,3.067-9.133,8.004-11.526
		l1.691-0.82v-46.434l-2.307-0.548c-10.005-2.376-18.784-8.041-24.718-15.949c-5.923-7.889-9.489-18.151-10.314-29.679l-0.112-1.568
		l-1.354-0.8c-3.558-2.103-5.683-5.484-5.683-9.043c0-6.119,6.027-11.098,13.436-11.098c7.396,0,13.413,4.979,13.413,11.098
		c0,3.502-2.055,6.85-5.496,8.954l-1.585,0.97l0.162,1.852c0.828,9.462,3.724,17.74,8.375,23.938
		c3.378,4.499,7.298,7.676,11.986,9.716l4.197,1.826V64.699l-9.124,0.051c-0.384,0-0.68-0.194-0.796-0.386
		c-0.078-0.129-0.073-0.258,0.017-0.392L150.67,41.42c0.146-0.215,0.456-0.357,0.788-0.359c0.336,0,0.646,0.138,0.794,0.351
		l15.637,22.394c0.092,0.132,0.099,0.263,0.019,0.398c-0.109,0.187-0.404,0.382-0.807,0.385l-9.113,0.048v68.56l3.672-0.845
		c5.794-1.333,10.423-3.663,14.153-7.125c4.473-4.148,7.675-9.845,9.517-16.933c1.008-3.86,1.602-8.147,1.762-12.736l0.109-3.105
		h-4.167c-0.496,0-0.866-0.301-0.866-0.569V74.37c0-0.268,0.371-0.567,0.866-0.567h20.847c0.495,0,0.865,0.3,0.865,0.567v17.514
		c0,0.269-0.37,0.569-0.865,0.569h-3.981l-0.08,2.918c-0.146,5.323-0.836,10.384-2.053,15.044
		c-2.312,8.858-6.483,16.132-12.399,21.621c-6.23,5.783-14.819,9.662-24.839,11.217l-2.54,0.394v73.272l1.69,0.82
		c4.94,2.398,8.009,6.806,8.009,11.504C167.687,236.581,160.485,242.551,151.635,242.551z"/>
</g>
<g>
	<g>
		
			<linearGradient id="SVGID_28_" gradientUnits="userSpaceOnUse" x1="108.7915" y1="362.2363" x2="192.7776" y2="443.0227" gradientTransform="matrix(1 0 0 1 0 -291)">
			<stop  offset="0" style="stop-color:#B3B3B3"/>
			<stop  offset="1" style="stop-color:#4D4D4D"/>
		</linearGradient>
		<path fill="url(#SVGID_28_)" d="M255.545,44.947c-25.895-2.24-42.043-4.332-54.086-6.834c-13.029-2.692-21.25-6.021-30.303-9.978
			c-5.408-2.354-11.212-4.951-19.055-8.013C98.578,41.023,64.008,44.948,49.437,45.553c-0.096,0.936-0.193,1.958-0.292,3.063
			c-0.583,6.493-1.169,15.842-1.167,27.094c-0.017,27.478,3.541,66.282,18.81,102.557c14.992,35.51,40.646,68.489,85.679,87.977
			c45.098-19.48,70.777-52.486,85.787-88.02c15.266-36.275,18.823-75.078,18.809-102.558
			C257.063,62.109,256.211,51.318,255.545,44.947z M231.363,175.325c-16.48,39.027-42.307,66.13-78.893,82.744
			c-36.535-16.621-62.331-43.705-78.797-82.707c-15.087-35.846-18.235-73.975-18.221-99.646c-0.003-9.374,0.42-17.35,0.861-23.11
			c17.852-1.477,49.837-6.802,95.763-24.458c5.369,2.152,9.811,4.093,13.79,5.834l2.307,1.008
			c9.205,4.02,17.957,7.588,31.774,10.442c11.676,2.427,26.469,4.381,48.728,6.407c0.488,6.196,0.916,14.31,0.916,23.825
			C249.604,101.342,246.453,139.472,231.363,175.325z"/>
	</g>
</g>
<g id="Arrow_21">
</g>
<g>
	<g>
		
			<linearGradient id="SVGID_29_" gradientUnits="userSpaceOnUse" x1="150.2319" y1="462.709" x2="163.0816" y2="252.6194" gradientTransform="matrix(1 0 0 -1 0 501)">
			<stop  offset="0" style="stop-color:#1F1F1F"/>
			<stop  offset="0.2418" style="stop-color:#CCCCCC"/>
			<stop  offset="0.4011" style="stop-color:#6D6D6D"/>
			<stop  offset="0.5549" style="stop-color:#D2D2D2"/>
			<stop  offset="0.7033" style="stop-color:#272727"/>
			<stop  offset="0.967" style="stop-color:#060707"/>
		</linearGradient>
		<path fill="url(#SVGID_29_)" d="M271.005,36.042l-1.004-6.388l-6.443-0.53c-39.449-3.233-57.063-6.094-69.044-9.671
			c-6.023-1.793-10.84-3.798-16.793-6.391c-5.938-2.584-12.922-5.722-22.736-9.446L152,2.484l-2.965,1.178
			C88.978,27.501,53.914,29.206,45,29.211c-0.848,0-1.459-0.017-1.834-0.029c-0.188-0.006-0.314-0.013-0.383-0.019
			c-0.031-0.001-0.051-0.001-0.059-0.003c-0.002,0-0.002,0-0.002,0v0.002l-7.516-0.546l-1.172,7.47
			c-0.047,0.316-2.494,15.985-2.498,39.625c0.018,28.859,3.607,69.633,20.092,108.926c16.418,39.248,46.283,77.13,97.729,98.138
			c1.02,0.418,2.074,0.615,3.114,0.615c1.178,0,2.334-0.256,3.391-0.734c51.334-21.021,81.152-58.863,97.549-98.062
			c16.483-39.293,20.075-80.067,20.095-108.927C273.501,52.027,271.054,36.356,271.005,36.042z M238.253,178.223
			c-15.008,35.533-40.689,68.539-85.787,88.021c-45.034-19.488-70.686-52.468-85.678-87.978
			c-15.27-36.274-18.826-75.079-18.811-102.556c-0.002-11.252,0.584-20.601,1.168-27.094c0.098-1.105,0.195-2.128,0.291-3.063
			c14.572-0.604,49.141-4.529,102.667-25.431c7.844,3.062,13.646,5.658,19.055,8.013c9.053,3.956,17.271,7.285,30.303,9.978
			c12.042,2.502,28.191,4.594,54.086,6.834c0.666,6.371,1.518,17.162,1.518,30.719C257.078,103.146,253.52,141.948,238.253,178.223z
			"/>
	</g>
</g>
<g>
	<path fill="#FFE6A1" d="M100.635,261.635c3.099,12.318,26.37,17.721,49.826,17.924v0.045c23.452-0.197,46.725-5.605,49.821-17.92
		c0.983,8.529,1.967,17.064,2.946,25.594c0.685,5.988,1.549,8.996-4.315,12.863c-10.052,6.633-33.015,11.869-48.452,11.201v-0.051
		c-15.44,0.672-38.401-4.564-48.457-11.195c-5.863-3.867-4.999-6.875-4.312-12.867C98.676,278.703,99.649,270.166,100.635,261.635
		L100.635,261.635z"/>
	
		<linearGradient id="SVGID_30_" gradientUnits="userSpaceOnUse" x1="97.2002" y1="214.4824" x2="203.7158" y2="214.4824" gradientTransform="matrix(1 0 0 -1 0 501)">
		<stop  offset="0.1978" style="stop-color:#84181F"/>
		<stop  offset="0.3132" style="stop-color:#952338"/>
		<stop  offset="0.6593" style="stop-color:#952338"/>
		<stop  offset="0.8681" style="stop-color:#85191D"/>
	</linearGradient>
	<path fill="url(#SVGID_30_)" d="M169.031,278.266c-5.914,0.846-12.234,1.287-18.572,1.338v-0.045
		c-7.59-0.066-15.158-0.68-22.031-1.893c-3.674,8.369-8.634,16.6-9.515,25.93c-0.09,0.922-0.164,2.102-0.199,3.426
		c10.323,2.918,22.408,4.676,31.745,4.27v0.051c6.976,0.305,15.487-0.604,23.649-2.297c-1.051-9.908-3.598-19.822-4.965-29.564
		C169.1,279.133,169.062,278.719,169.031,278.266z M200.281,261.684c-2.259,8.986-15.271,14.291-31.25,16.582
		c0.03,0.453,0.065,0.867,0.112,1.215c1.367,9.74,3.914,19.654,4.965,29.563c9.904-2.053,19.293-5.268,24.802-8.902
		c5.866-3.867,5.002-6.875,4.315-12.863C202.248,278.748,201.266,270.213,200.281,261.684z M128.429,277.666
		c-14.369-2.535-25.698-7.699-27.794-16.031c-0.984,8.531-1.958,17.066-2.943,25.594c-0.687,5.992-1.552,9,4.312,12.867
		c3.974,2.619,9.968,5.02,16.712,6.926c0.036-1.324,0.109-2.504,0.199-3.426C119.794,294.266,124.754,286.037,128.429,277.666z"/>
	<g>
		
			<linearGradient id="SVGID_31_" gradientUnits="userSpaceOnUse" x1="207.9082" y1="572.1279" x2="134.0802" y2="560.3154" gradientTransform="matrix(1 0 0 1 0 -291)">
			<stop  offset="0.1264" style="stop-color:#D8E9F4"/>
			<stop  offset="0.1978" style="stop-color:#B2B7C8"/>
			<stop  offset="0.2418" style="stop-color:#8692AB"/>
			<stop  offset="0.3407" style="stop-color:#B2B7C8"/>
			<stop  offset="0.5275" style="stop-color:#EDF5FA"/>
			<stop  offset="0.8571" style="stop-color:#D8E9F4"/>
		</linearGradient>
		<path fill="url(#SVGID_31_)" d="M116.968,280.037c9.254,2.887,20.954,4.289,32.748,4.443v0.059l0.751-0.002
			c12.043-0.102,24.038-1.504,33.483-4.453c8.112-2.543,14.434-6.225,17.137-11.414c-0.115-0.988-0.229-1.977-0.342-2.967
			l-0.08-0.02c-1.435,5.715-7.902,10.096-17.162,12.977c-9.039,2.824-20.619,4.227-32.296,4.373V283l-0.739-0.006
			c-11.935-0.098-23.818-1.5-33.055-4.379c-9.26-2.883-15.724-7.262-17.162-12.98l-0.078,0.021c-0.113,0.992-0.228,1.979-0.34,2.971
			C102.534,273.813,108.853,277.494,116.968,280.037z"/>
	</g>
	
		<linearGradient id="SVGID_32_" gradientUnits="userSpaceOnUse" x1="215.356" y1="596.5879" x2="126.7628" y2="582.8064" gradientTransform="matrix(1 0 0 1 0 -291)">
		<stop  offset="0.1264" style="stop-color:#D8E9F4"/>
		<stop  offset="0.1978" style="stop-color:#B2B7C8"/>
		<stop  offset="0.2418" style="stop-color:#8692AB"/>
		<stop  offset="0.3407" style="stop-color:#B2B7C8"/>
		<stop  offset="0.5275" style="stop-color:#EDF5FA"/>
		<stop  offset="0.8571" style="stop-color:#D8E9F4"/>
	</linearGradient>
	<path fill="url(#SVGID_32_)" d="M198.504,295.34c-9.223,6.113-30.148,11.148-45.283,11.133c-0.687,0-1.364-0.012-2.021-0.031
		v-0.107l-0.769,0.035c-0.886,0.039-1.797,0.057-2.731,0.057c-15.141,0.02-36.061-5.021-45.288-11.135
		c-2.749-1.836-4.231-3.721-4.981-5.861c-0.119,1.021-0.207,1.955-0.222,2.82c0.987,1.539,2.391,2.975,4.389,4.273
		c9.71,6.379,30.633,11.361,46.102,11.379c0.727,0,1.442-0.012,2.142-0.033l0.589,0.023c0.902,0.039,1.837,0.059,2.792,0.059
		c15.459-0.02,36.387-4.998,46.098-11.379c1.951-1.27,3.371-2.617,4.393-4.055c0-0.824-0.071-1.707-0.184-2.672
		C202.709,291.799,201.199,293.535,198.504,295.34z"/>
</g>
</svg>
