<?xml version="1.0" encoding="utf-8"?>
<!-- Generator: Adobe Illustrator 16.0.0, SVG Export Plug-In . SVG Version: 6.00 Build 0)  -->
<!DOCTYPE svg PUBLIC "-//W3C//DTD SVG 1.1//EN" "http://www.w3.org/Graphics/SVG/1.1/DTD/svg11.dtd">
<svg version="1.1" id="Layer_1" xmlns="http://www.w3.org/2000/svg" xmlns:xlink="http://www.w3.org/1999/xlink" x="0px" y="0px"
	 width="109px" height="109px" viewBox="109.096 109.094 109 109" enable-background="new 109.096 109.094 109 109"
	 xml:space="preserve">
<g>
	
		<linearGradient id="SVGID_1_" gradientUnits="userSpaceOnUse" x1="-979.2896" y1="1214.6604" x2="-922.082" y2="1214.6604" gradientTransform="matrix(0.3697 -0.5276 0.8189 0.5739 -444.1511 -1074.0203)">
		<stop  offset="0.0056" style="stop-color:#080A0C"/>
		<stop  offset="0.073" style="stop-color:#0B0F17"/>
		<stop  offset="0.5" style="stop-color:#828790"/>
		<stop  offset="0.618" style="stop-color:#697485"/>
		<stop  offset="0.6744" style="stop-color:#667183"/>
		<stop  offset="0.7305" style="stop-color:#5B6A7E"/>
		<stop  offset="0.7863" style="stop-color:#4A5D76"/>
		<stop  offset="0.809" style="stop-color:#415772"/>
		<stop  offset="1" style="stop-color:#030406"/>
	</linearGradient>
	<polyline fill="url(#SVGID_1_)" stroke="#000000" stroke-width="0.25" stroke-miterlimit="10" points="188.062,139.444 
		203.656,117.191 199.338,117.593 209.705,109.608 205.613,121.991 204.72,118.291 189.292,140.307 	"/>
	
		<linearGradient id="SVGID_2_" gradientUnits="userSpaceOnUse" x1="-797.9775" y1="1215.0208" x2="-735.4165" y2="1215.0208" gradientTransform="matrix(0.4578 -0.6533 0.8189 0.5739 -493.7167 -1003.1052)">
		<stop  offset="0.0056" style="stop-color:#080A0C"/>
		<stop  offset="0.073" style="stop-color:#0B0F17"/>
		<stop  offset="0.5" style="stop-color:#828790"/>
		<stop  offset="0.618" style="stop-color:#697485"/>
		<stop  offset="0.6744" style="stop-color:#667183"/>
		<stop  offset="0.7305" style="stop-color:#5B6A7E"/>
		<stop  offset="0.7863" style="stop-color:#4A5D76"/>
		<stop  offset="0.809" style="stop-color:#415772"/>
		<stop  offset="1" style="stop-color:#030406"/>
	</linearGradient>
	<polyline fill="url(#SVGID_2_)" stroke="#000000" stroke-width="0.25" stroke-miterlimit="10" points="165.02,174.945 
		150.208,196.082 150.464,202.264 147.449,206.567 146.964,203.684 146.84,203.861 146.771,203.959 146.758,203.978 
		146.634,204.156 146.624,204.168 146.578,204.235 146.564,204.253 146.454,204.411 146.417,204.463 146.385,204.51 146.372,204.53 
		146.248,204.705 146.238,204.719 146.179,204.805 146.031,205.014 146.459,207.978 144.984,210.083 144.557,207.119 
		144.432,207.297 144.363,207.396 144.281,207.512 144.216,207.604 144.171,207.67 144.157,207.69 144.088,207.787 144.046,207.847 
		143.977,207.946 143.94,207.997 143.895,208.063 143.83,208.156 143.771,208.24 143.702,208.339 143.555,208.547 143.983,211.512 
		142.771,213.242 142.286,210.36 142.161,210.537 142.092,210.635 142.079,210.655 141.955,210.831 141.946,210.844 141.9,210.91 
		141.886,210.93 141.775,211.087 141.739,211.139 141.707,211.186 141.693,211.204 141.569,211.382 141.56,211.395 141.5,211.481 
		141.354,211.69 141.782,214.654 139.731,217.58 138.855,212.281 137.625,211.418 132.441,213.056 134.686,209.854 137.561,209.324 
		137.707,209.115 137.776,209.016 137.835,208.932 137.9,208.839 137.946,208.774 137.981,208.723 138.051,208.624 138.093,208.564 
		138.162,208.466 138.175,208.447 138.221,208.381 138.286,208.289 138.368,208.171 138.437,208.073 138.562,207.896 
		135.63,208.506 136.899,206.695 139.83,206.084 139.978,205.875 140.047,205.778 140.105,205.692 140.17,205.6 140.216,205.534 
		140.253,205.483 140.321,205.384 140.363,205.324 140.433,205.226 140.446,205.206 140.491,205.141 140.557,205.048 
		140.639,204.931 140.708,204.833 140.832,204.656 137.9,205.266 139.445,203.062 142.376,202.451 142.522,202.242 142.582,202.157 
		142.592,202.144 142.716,201.967 142.729,201.948 142.762,201.901 142.798,201.85 142.909,201.692 142.923,201.672 
		142.969,201.607 142.978,201.594 143.102,201.416 143.115,201.397 143.185,201.299 143.308,201.121 140.377,201.732 
		143.449,197.348 149.114,195.024 163.789,174.081 	"/>
</g>
<g>
	
		<linearGradient id="SVGID_3_" gradientUnits="userSpaceOnUse" x1="-1899.3496" y1="368.8264" x2="-1842.1426" y2="368.8264" gradientTransform="matrix(-0.3697 -0.5276 -0.8189 0.5739 -260.5833 -1074.0203)">
		<stop  offset="0.0056" style="stop-color:#080A0C"/>
		<stop  offset="0.073" style="stop-color:#0B0F17"/>
		<stop  offset="0.5" style="stop-color:#828790"/>
		<stop  offset="0.618" style="stop-color:#697485"/>
		<stop  offset="0.6744" style="stop-color:#667183"/>
		<stop  offset="0.7305" style="stop-color:#5B6A7E"/>
		<stop  offset="0.7863" style="stop-color:#4A5D76"/>
		<stop  offset="0.809" style="stop-color:#415772"/>
		<stop  offset="1" style="stop-color:#030406"/>
	</linearGradient>
	<polyline fill="url(#SVGID_3_)" stroke="#000000" stroke-width="0.25" stroke-miterlimit="10" points="140.005,139.444 
		124.41,117.191 128.729,117.593 118.362,109.608 122.453,121.991 123.347,118.291 138.774,140.307 	"/>
	
		<linearGradient id="SVGID_4_" gradientUnits="userSpaceOnUse" x1="-1541" y1="369.1995" x2="-1478.4375" y2="369.1995" gradientTransform="matrix(-0.4578 -0.6533 -0.8189 0.5739 -211.0157 -1003.1052)">
		<stop  offset="0.0056" style="stop-color:#080A0C"/>
		<stop  offset="0.073" style="stop-color:#0B0F17"/>
		<stop  offset="0.5" style="stop-color:#828790"/>
		<stop  offset="0.618" style="stop-color:#697485"/>
		<stop  offset="0.6744" style="stop-color:#667183"/>
		<stop  offset="0.7305" style="stop-color:#5B6A7E"/>
		<stop  offset="0.7863" style="stop-color:#4A5D76"/>
		<stop  offset="0.809" style="stop-color:#415772"/>
		<stop  offset="1" style="stop-color:#030406"/>
	</linearGradient>
	<polyline fill="url(#SVGID_4_)" stroke="#000000" stroke-width="0.25" stroke-miterlimit="10" points="163.046,174.945 
		177.859,196.082 177.602,202.264 180.617,206.567 181.102,203.684 181.226,203.861 181.295,203.959 181.309,203.978 
		181.433,204.156 181.441,204.168 181.488,204.235 181.502,204.253 181.611,204.411 181.648,204.463 181.682,204.51 181.694,204.53 
		181.818,204.705 181.828,204.719 181.888,204.805 182.034,205.014 181.606,207.978 183.081,210.083 183.51,207.119 
		183.635,207.297 183.703,207.396 183.785,207.512 183.85,207.604 183.896,207.67 183.909,207.69 183.979,207.787 184.02,207.847 
		184.089,207.946 184.125,207.997 184.172,208.063 184.235,208.156 184.295,208.24 184.364,208.339 184.511,208.547 
		184.082,211.512 185.295,213.242 185.78,210.36 185.904,210.537 185.974,210.635 185.987,210.655 186.111,210.831 186.119,210.844 
		186.166,210.91 186.18,210.93 186.291,211.087 186.326,211.139 186.359,211.186 186.373,211.204 186.497,211.382 186.506,211.395 
		186.565,211.481 186.713,211.69 186.284,214.654 188.335,217.58 189.211,212.281 190.441,211.418 195.625,213.056 193.38,209.854 
		190.506,209.324 190.359,209.115 190.29,209.016 190.23,208.932 190.166,208.839 190.12,208.774 190.084,208.723 190.015,208.624 
		189.973,208.564 189.904,208.466 189.891,208.447 189.845,208.381 189.78,208.289 189.698,208.171 189.629,208.073 
		189.505,207.896 192.437,208.506 191.166,206.695 188.235,206.084 188.089,205.875 188.02,205.778 187.96,205.692 187.896,205.6 
		187.85,205.534 187.813,205.483 187.744,205.384 187.703,205.324 187.634,205.226 187.62,205.206 187.574,205.141 187.51,205.048 
		187.428,204.931 187.358,204.833 187.234,204.656 190.166,205.266 188.621,203.062 185.689,202.451 185.543,202.242 
		185.483,202.157 185.474,202.144 185.35,201.967 185.337,201.948 185.304,201.901 185.268,201.85 185.157,201.692 185.144,201.672 
		185.097,201.607 185.088,201.594 184.964,201.416 184.951,201.397 184.881,201.299 184.758,201.121 187.689,201.732 
		184.617,197.348 178.952,195.024 164.276,174.081 	"/>
</g>
<g>
	<g>
		
			<linearGradient id="SVGID_5_" gradientUnits="userSpaceOnUse" x1="174.3643" y1="-625.0857" x2="179.8887" y2="-625.0857" gradientTransform="matrix(1 0 0 -1 0 -426.6245)">
			<stop  offset="0.0165" style="stop-color:#621312"/>
			<stop  offset="1" style="stop-color:#220A0A"/>
		</linearGradient>
		<path fill="url(#SVGID_5_)" d="M174.371,193.452h-0.007l0.565,10.018l0.015-0.007l0.832-0.328c2.166-0.93,3.683-2.193,4.112-3.832
			c-0.198-2.06-2.524-1.979-4.107-3.361C174.774,195.06,174.364,194.213,174.371,193.452L174.371,193.452z"/>
		
			<linearGradient id="SVGID_6_" gradientUnits="userSpaceOnUse" x1="204.3281" y1="-625.9373" x2="210.8896" y2="-625.9373" gradientTransform="matrix(1 0 0 -1 0 -426.6245)">
			<stop  offset="0.0165" style="stop-color:#621312"/>
			<stop  offset="1" style="stop-color:#220A0A"/>
		</linearGradient>
		<path fill="url(#SVGID_6_)" d="M207.049,194.5c-1.1,2.269-1.65,7.373-2.721,9.563c2.038,0.533,4.578-2.479,5.934-3.54
			c0.104-0.098,0.211-0.2,0.318-0.31C212.096,197.43,207.574,196.397,207.049,194.5L207.049,194.5z"/>
		
			<linearGradient id="SVGID_7_" gradientUnits="userSpaceOnUse" x1="-2697.417" y1="-620.5872" x2="-2718.9734" y2="-625.6516" gradientTransform="matrix(-1 0 0 -1 -2528.5518 -426.6245)">
			<stop  offset="0" style="stop-color:#85171C"/>
			<stop  offset="0.6593" style="stop-color:#391110"/>
		</linearGradient>
		<path fill="url(#SVGID_7_)" d="M178.955,190.038c4.457-0.487,10.03,2.664,15.136,5.684c-1.231,1.814-2.521,3.617-3.491,5.585
			c-0.437,0.887-0.86,1.798-1.135,2.75c-0.147,0.512-0.182,1.037-0.229,1.559c-2.914-1.76-5.512-3.358-7.544-3.808
			c-0.572-0.126-1.097-0.162-1.572-0.089l-0.283-2.47l-0.011,0.04c-0.199-2.061-2.525-1.979-4.107-3.361
			C172.315,192.953,175.73,190.39,178.955,190.038z"/>
		<path fill="#391110" d="M178.955,190.038c0.935-0.103,1.919-0.042,2.936,0.14c-0.783,3.784-0.626,7.83-1.693,11.533
			c-0.025,0.002-0.052,0.002-0.076,0.007l-0.284-2.47l-0.011,0.04c-0.199-2.062-2.525-1.979-4.107-3.361
			C172.315,192.953,175.73,190.39,178.955,190.038z"/>
		
			<linearGradient id="SVGID_8_" gradientUnits="userSpaceOnUse" x1="183.8223" y1="-623.7341" x2="198.3585" y2="-629.5771" gradientTransform="matrix(1 0 0 -1 0 -426.6245)">
			<stop  offset="0.2418" style="stop-color:#391110"/>
			<stop  offset="0.4121" style="stop-color:#621312"/>
			<stop  offset="0.5385" style="stop-color:#85171C"/>
			<stop  offset="0.7692" style="stop-color:#85171C"/>
		</linearGradient>
		<path fill="url(#SVGID_8_)" d="M202.701,200.286c-3.791-1.369-8.928-5.031-13.986-7.595c-0.625,3.819-1.832,7.556-1.905,11.447
			c4.208,2.455,9.36,6.002,14.543,6.945c3.084,0.56,4.358,0.086,4.669-2.323c0.555-4.34,2.083-6.015,4.34-8.327
			C208.742,201.876,204.605,200.974,202.701,200.286z"/>
		
			<linearGradient id="SVGID_9_" gradientUnits="userSpaceOnUse" x1="207.2725" y1="-633.0237" x2="198.1526" y2="-629.7463" gradientTransform="matrix(1 0 0 -1 0 -426.6245)">
			<stop  offset="0.1264" style="stop-color:#942436"/>
			<stop  offset="0.1978" style="stop-color:#621312"/>
			<stop  offset="0.2418" style="stop-color:#391110"/>
			<stop  offset="0.4176" style="stop-color:#621312"/>
			<stop  offset="0.5824" style="stop-color:#85171C"/>
		</linearGradient>
		<path fill="url(#SVGID_9_)" d="M202.701,200.286c-0.978-0.354-2.046-0.86-3.179-1.462l-3.962,10.284
			c1.895,0.896,3.841,1.62,5.791,1.975c3.085,0.56,4.359,0.086,4.669-2.322c0.556-4.341,2.083-6.016,4.34-8.327
			C208.742,201.876,204.605,200.974,202.701,200.286z"/>
		
			<linearGradient id="SVGID_10_" gradientUnits="userSpaceOnUse" x1="174.9932" y1="-623.1423" x2="203.6835" y2="-621.6223" gradientTransform="matrix(1 0 0 -1 0 -426.6245)">
			<stop  offset="0.1264" style="stop-color:#952438"/>
			<stop  offset="0.1978" style="stop-color:#621312"/>
			<stop  offset="0.2418" style="stop-color:#391110"/>
			<stop  offset="0.4176" style="stop-color:#621312"/>
			<stop  offset="0.5824" style="stop-color:#85171C"/>
		</linearGradient>
		<path fill="url(#SVGID_10_)" d="M179.021,190.053c7.207-0.787,17.332,7.941,23.681,10.234c1.739,0.627,5.347,1.437,7.19,0.472
			c0.154-0.159,0.31-0.321,0.47-0.485c-1.619,1.441-5.756,0.539-7.66-0.148c-6.348-2.292-16.473-11.021-23.68-10.233
			c-2.326,0.255-4.747,1.657-4.646,3.531C174.417,191.629,176.763,190.3,179.021,190.053z"/>
		
			<linearGradient id="SVGID_11_" gradientUnits="userSpaceOnUse" x1="204.0068" y1="-626.7361" x2="210.8877" y2="-626.7361" gradientTransform="matrix(1 0 0 -1 0 -426.6245)">
			<stop  offset="0.1264" style="stop-color:#952438"/>
			<stop  offset="0.1978" style="stop-color:#621312"/>
			<stop  offset="0.2418" style="stop-color:#391110"/>
			<stop  offset="0.4176" style="stop-color:#621312"/>
			<stop  offset="0.5824" style="stop-color:#85171C"/>
		</linearGradient>
		<path fill="url(#SVGID_11_)" d="M210.58,200.05c-0.108,0.109-0.214,0.212-0.318,0.31c-1.341,1.052-4.15,0.707-6.185,0.184
			c-0.023,0.049-0.047,0.095-0.07,0.145c2.039,0.534,4.9,0.898,6.255-0.165c0.104-0.098,0.211-0.2,0.318-0.31
			c0.239-0.439,0.327-0.833,0.305-1.196C210.876,199.333,210.783,199.675,210.58,200.05z"/>
		
			<linearGradient id="SVGID_12_" gradientUnits="userSpaceOnUse" x1="177.0879" y1="-623.3435" x2="175.7888" y2="-634.3863" gradientTransform="matrix(1 0 0 -1 0 -426.6245)">
			<stop  offset="0.1264" style="stop-color:#952438"/>
			<stop  offset="0.1978" style="stop-color:#621312"/>
			<stop  offset="0.2418" style="stop-color:#391110"/>
			<stop  offset="0.4176" style="stop-color:#621312"/>
			<stop  offset="0.5824" style="stop-color:#85171C"/>
		</linearGradient>
		<path fill="url(#SVGID_12_)" d="M175.781,196.102c1.554,1.359,3.821,1.312,4.09,3.26c0.007-0.021,0.012-0.04,0.02-0.059
			c-0.2-2.059-2.525-1.979-4.107-3.361c-1.008-0.882-1.417-1.728-1.41-2.49h-0.007l0.026,0.459
			C174.479,194.593,174.903,195.334,175.781,196.102z"/>
		<g>
			
				<linearGradient id="SVGID_13_" gradientUnits="userSpaceOnUse" x1="179.9912" y1="-631.7366" x2="206.043" y2="-631.7366" gradientTransform="matrix(1 0 0 -1 0 -426.6245)">
				<stop  offset="0.1264" style="stop-color:#D8E9F4"/>
				<stop  offset="0.1978" style="stop-color:#B2B7C8"/>
				<stop  offset="0.2418" style="stop-color:#8692AB"/>
				<stop  offset="0.3407" style="stop-color:#B2B7C8"/>
				<stop  offset="0.5275" style="stop-color:#EDF5FA"/>
				<stop  offset="0.8571" style="stop-color:#D8E9F4"/>
			</linearGradient>
			<path fill="url(#SVGID_13_)" d="M203.408,209.672c-0.594,0-1.268-0.074-2.012-0.209c-4.881-0.883-9.789-4.142-13.895-6.578
				c-0.153-0.091-0.307-0.182-0.459-0.27c0-0.008-0.002-0.017-0.006-0.028c-0.023-0.005-0.296-0.169-0.316-0.161
				c-0.24-0.138-0.475-0.272-0.709-0.402c-1.55-0.868-2.962-1.543-4.204-1.819c-0.186-0.041-0.362-0.07-0.534-0.091
				c-0.03-0.004-0.049-0.005-0.056-0.006c-0.166-0.02-0.327-0.031-0.485-0.032c-0.021-0.001-0.045-0.001-0.064-0.001
				c-0.049,0-0.377-0.006-0.677-0.01l0.063,0.553l0.165-0.025c0.139-0.021,0.29-0.03,0.447-0.03c0.021,0,0.037,0.001,0.052,0.001
				c0.146,0.002,0.292,0.012,0.44,0.028c0.026,0.003,0.045,0.004,0.052,0.005c0.159,0.021,0.322,0.048,0.488,0.084
				c1.354,0.297,3.014,1.143,4.866,2.221l0,0l0.117,0.068c4.199,2.446,9.364,6.016,14.623,6.974c0.765,0.14,1.467,0.215,2.099,0.215
				c0.034,0.001,0.066,0.002,0.101,0.002c0.958,0,1.773-0.22,2.374-0.684c0.058-0.218,0.104-0.452,0.138-0.713
				c0.008-0.063,0.02-0.12,0.027-0.183C205.559,209.343,204.699,209.652,203.408,209.672z"/>
		</g>
	</g>
	<g>
		
			<linearGradient id="SVGID_14_" gradientUnits="userSpaceOnUse" x1="155.4341" y1="-627.219" x2="144.7855" y2="-620.596" gradientTransform="matrix(1 0 0 -1 0 -426.6245)">
			<stop  offset="0.0165" style="stop-color:#621312"/>
			<stop  offset="1" style="stop-color:#220A0A"/>
		</linearGradient>
		<path fill="url(#SVGID_14_)" d="M152.546,193.436l0.007,0.001l-0.563,10.017l-0.016-0.003l-0.831-0.331
			c-2.166-0.93-3.683-2.193-4.114-3.831c0.199-2.061,2.525-1.979,4.108-3.362C152.143,195.045,152.553,194.199,152.546,193.436
			L152.546,193.436z"/>
		
			<linearGradient id="SVGID_15_" gradientUnits="userSpaceOnUse" x1="116.0288" y1="-626.1394" x2="122.9585" y2="-626.1394" gradientTransform="matrix(1 0 0 -1 0 -426.6245)">
			<stop  offset="0.0165" style="stop-color:#621312"/>
			<stop  offset="1" style="stop-color:#220A0A"/>
		</linearGradient>
		<path fill="url(#SVGID_15_)" d="M119.868,194.485c1.102,2.268,2.019,7.817,3.09,10.005c-2.039,0.535-4.948-2.922-6.303-3.985
			c-0.104-0.097-0.21-0.197-0.318-0.309C114.822,197.413,119.344,196.379,119.868,194.485L119.868,194.485z"/>
		<path fill="#85171C" d="M147.896,190.038c-7.206-0.788-17.333,7.94-23.68,10.231c-0.075,0.027-0.156,0.055-0.238,0.083
			c0.817,1.892,1.39,3.871,2.476,5.651c0.623,1.02,1.417,2.088,1.767,3.246c0.103,0.341,0.19,0.685,0.275,1.027
			c6.497-2.269,12.668-7.585,16.666-8.471c0.571-0.125,1.096-0.162,1.57-0.089l0.284-2.47l0.011,0.04
			c0.199-2.061,2.525-1.979,4.108-3.362C154.536,192.953,151.122,190.39,147.896,190.038z"/>
		
			<linearGradient id="SVGID_16_" gradientUnits="userSpaceOnUse" x1="119.771" y1="-633.0256" x2="134.445" y2="-627.4417" gradientTransform="matrix(1 0 0 -1 0 -426.6245)">
			<stop  offset="0.1264" style="stop-color:#952438"/>
			<stop  offset="0.1978" style="stop-color:#621312"/>
			<stop  offset="0.2418" style="stop-color:#391110"/>
			<stop  offset="0.4176" style="stop-color:#621312"/>
			<stop  offset="0.5824" style="stop-color:#85171C"/>
		</linearGradient>
		<path fill="url(#SVGID_16_)" d="M136.837,204.206c-0.396-1.208-0.909-2.371-1.538-3.476c-0.926-1.629-1.984-3.169-3.03-4.718
			c-2.966,1.757-5.757,3.429-8.053,4.256c-1.904,0.688-6.043,1.59-7.662,0.148c2.257,2.313,3.785,3.987,4.343,8.327
			c0.31,2.41,1.584,2.882,4.667,2.323c4.002-0.726,7.985-3.007,11.53-5.139C137.043,205.353,137.022,204.772,136.837,204.206z"/>
		
			<linearGradient id="SVGID_17_" gradientUnits="userSpaceOnUse" x1="157.9863" y1="-620.5876" x2="136.4308" y2="-625.6519" gradientTransform="matrix(1 0 0 -1 0 -426.6245)">
			<stop  offset="0.1264" style="stop-color:#621312"/>
			<stop  offset="0.1978" style="stop-color:#621312"/>
			<stop  offset="0.2418" style="stop-color:#391110"/>
			<stop  offset="0.4121" style="stop-color:#621312"/>
			<stop  offset="0.6154" style="stop-color:#621312"/>
			<stop  offset="0.7692" style="stop-color:#85171C"/>
		</linearGradient>
		<path fill="url(#SVGID_17_)" d="M147.896,190.038c-4.457-0.487-10.029,2.664-15.135,5.684c1.232,1.814,2.521,3.617,3.491,5.585
			c0.437,0.887,0.859,1.798,1.135,2.75c0.147,0.512,0.181,1.037,0.229,1.559c2.916-1.76,5.512-3.358,7.546-3.808
			c0.571-0.126,1.096-0.162,1.57-0.089l0.284-2.47l0.011,0.04c0.199-2.061,2.525-1.979,4.108-3.361
			C154.536,192.953,151.122,190.39,147.896,190.038z"/>
		
			<linearGradient id="SVGID_18_" gradientUnits="userSpaceOnUse" x1="157.9717" y1="-621.9592" x2="141.0912" y2="-622.7382" gradientTransform="matrix(1 0 0 -1 0 -426.6245)">
			<stop  offset="0.1264" style="stop-color:#952438"/>
			<stop  offset="0.1978" style="stop-color:#621312"/>
			<stop  offset="0.2418" style="stop-color:#391110"/>
			<stop  offset="0.7857" style="stop-color:#621312"/>
		</linearGradient>
		<path fill="url(#SVGID_18_)" d="M147.896,190.038c-0.934-0.103-1.917-0.042-2.935,0.14c0.784,3.784,0.628,7.83,1.693,11.533
			c0.025,0.002,0.052,0.002,0.077,0.007l0.284-2.47l0.011,0.04c0.199-2.062,2.525-1.979,4.108-3.361
			C154.536,192.953,151.122,190.39,147.896,190.038z"/>
		
			<linearGradient id="SVGID_19_" gradientUnits="userSpaceOnUse" x1="116.5547" y1="-622.1316" x2="152.5449" y2="-622.1316" gradientTransform="matrix(1 0 0 -1 0 -426.6245)">
			<stop  offset="0.1264" style="stop-color:#952438"/>
			<stop  offset="0.1978" style="stop-color:#621312"/>
			<stop  offset="0.2418" style="stop-color:#391110"/>
			<stop  offset="0.4176" style="stop-color:#621312"/>
			<stop  offset="0.5824" style="stop-color:#85171C"/>
		</linearGradient>
		<path fill="url(#SVGID_19_)" d="M147.896,189.877c-7.206-0.789-17.333,7.938-23.68,10.23c-1.904,0.688-6.043,1.59-7.662,0.148
			c0.161,0.164,0.316,0.325,0.47,0.485c1.844,0.965,5.452,0.157,7.192-0.473c6.347-2.291,16.474-11.019,23.68-10.231
			c2.256,0.246,4.603,1.576,4.646,3.369C152.643,191.531,150.221,190.13,147.896,189.877z"/>
		
			<linearGradient id="SVGID_20_" gradientUnits="userSpaceOnUse" x1="116.0288" y1="-626.7195" x2="122.9121" y2="-626.7195" gradientTransform="matrix(1 0 0 -1 0 -426.6245)">
			<stop  offset="0.1264" style="stop-color:#952438"/>
			<stop  offset="0.1978" style="stop-color:#621312"/>
			<stop  offset="0.2418" style="stop-color:#391110"/>
			<stop  offset="0.4176" style="stop-color:#621312"/>
			<stop  offset="0.5824" style="stop-color:#85171C"/>
		</linearGradient>
		<path fill="url(#SVGID_20_)" d="M116.337,200.196c0.108,0.112,0.213,0.213,0.318,0.311c1.355,1.063,4.217,0.699,6.257,0.164
			c-0.024-0.049-0.047-0.094-0.071-0.145c-2.034,0.526-4.846,0.869-6.186-0.182c-0.104-0.097-0.21-0.199-0.318-0.31
			c-0.204-0.376-0.296-0.717-0.305-1.034C116.009,199.362,116.099,199.758,116.337,200.196z"/>
		
			<linearGradient id="SVGID_21_" gradientUnits="userSpaceOnUse" x1="156.3276" y1="-614.3743" x2="148.9266" y2="-624.372" gradientTransform="matrix(1 0 0 -1 0 -426.6245)">
			<stop  offset="0.1264" style="stop-color:#952438"/>
			<stop  offset="0.1978" style="stop-color:#621312"/>
			<stop  offset="0.2418" style="stop-color:#391110"/>
			<stop  offset="0.4176" style="stop-color:#621312"/>
			<stop  offset="0.5824" style="stop-color:#85171C"/>
		</linearGradient>
		<path fill="url(#SVGID_21_)" d="M152.546,193.436c0.007,0.764-0.403,1.609-1.41,2.49c-1.582,1.382-3.909,1.301-4.107,3.361
			c0.005,0.021,0.014,0.039,0.018,0.058c0.269-1.946,2.537-1.899,4.089-3.257c0.877-0.768,1.301-1.507,1.391-2.19l0.026-0.461
			L152.546,193.436z"/>
		<g>
			
				<linearGradient id="SVGID_22_" gradientUnits="userSpaceOnUse" x1="120.8721" y1="-631.7253" x2="146.9077" y2="-631.7253" gradientTransform="matrix(1 0 0 -1 0 -426.6245)">
				<stop  offset="0.1264" style="stop-color:#D8E9F4"/>
				<stop  offset="0.1978" style="stop-color:#B2B7C8"/>
				<stop  offset="0.2418" style="stop-color:#8692AB"/>
				<stop  offset="0.3407" style="stop-color:#B2B7C8"/>
				<stop  offset="0.5275" style="stop-color:#EDF5FA"/>
				<stop  offset="0.8571" style="stop-color:#D8E9F4"/>
			</linearGradient>
			<path fill="url(#SVGID_22_)" d="M145.109,200.187c-2.228,0.499-5.014,2.274-8.141,4.15l-0.137,0.081l0,0.003
				c-1.18,0.708-2.406,1.429-3.661,2.1l-0.013,0.008c-1.149,0.613-2.322,1.185-3.509,1.669c-0.02,0.007-0.041,0.017-0.066,0.027
				c-1.345,0.543-2.706,0.978-4.063,1.223c-0.745,0.135-1.418,0.208-2.011,0.208c-1.291-0.021-2.15-0.327-2.638-1.09
				c0.008,0.062,0.018,0.116,0.025,0.179c0.034,0.264,0.082,0.499,0.139,0.717c0.602,0.461,1.417,0.682,2.378,0.682
				c0.032,0,0.063,0,0.095-0.001c0.632,0,1.333-0.076,2.098-0.215c1.4-0.255,2.792-0.696,4.16-1.251
				c0.021-0.009,0.043-0.02,0.068-0.027c1.205-0.491,2.393-1.07,3.551-1.689l0.015-0.008c1.315-0.704,2.594-1.458,3.817-2.193
				l0.136-0.082v-0.001c3.071-1.853,5.811-3.563,7.86-4.012c0.356-0.078,0.689-0.119,0.999-0.118c0.089,0,0.175,0.004,0.259,0.01
				l0.001,0.003l0.158,0.015c0.042,0.004,0.062,0.004,0.062,0.004l0.168,0.029l0.047-0.413c-0.267-0.056-0.627-0.134-0.695-0.134
				C145.862,200.058,145.495,200.104,145.109,200.187z"/>
		</g>
	</g>
	
		<linearGradient id="SVGID_23_" gradientUnits="userSpaceOnUse" x1="118.2373" y1="-623.6008" x2="208.6758" y2="-623.6008" gradientTransform="matrix(1 0 0 -1 0 -426.6245)">
		<stop  offset="0.1264" style="stop-color:#D8E9F4"/>
		<stop  offset="0.1978" style="stop-color:#B2B7C8"/>
		<stop  offset="0.2418" style="stop-color:#8692AB"/>
		<stop  offset="0.3407" style="stop-color:#B2B7C8"/>
		<stop  offset="0.5275" style="stop-color:#EDF5FA"/>
		<stop  offset="0.8571" style="stop-color:#D8E9F4"/>
	</linearGradient>
	<path fill="url(#SVGID_23_)" d="M207.591,202.34c-1.698,0.002-3.674-0.492-4.807-0.902c-3.548-1.278-8.373-4.645-13.198-7.184
		v-0.004l-0.171-0.088c-0.09-0.048-0.176-0.09-0.26-0.135c-0.107-0.055-0.218-0.113-0.331-0.171l-0.286-0.146v0.005
		c-1.725-0.859-3.439-1.581-5.097-2.042v-0.006l-0.181-0.049c-0.094-0.025-0.181-0.045-0.267-0.066l-0.009-0.003l-0.308-0.083v0.01
		c-0.934-0.215-1.848-0.338-2.73-0.338c-0.323,0-0.641,0.017-0.955,0.051c-1.892,0.217-3.891,1.141-4.598,2.578
		c0.033,0.249,0.113,0.505,0.242,0.768c0.24-1.447,2.334-2.646,4.407-2.861c0.295-0.033,0.595-0.048,0.901-0.048
		c0.928,0,1.904,0.143,2.916,0.395l0.09,0.022v0.003l0.181,0.048c1.757,0.467,3.606,1.253,5.469,2.197l0.228,0.115
		c0.034,0.018,0.068,0.034,0.102,0.053c0.036,0.018,0.069,0.034,0.104,0.052l0.155,0.08c4.851,2.529,9.729,5.962,13.428,7.303
		c1.185,0.424,3.185,0.929,4.973,0.931c0.225-0.001,0.444-0.012,0.66-0.028c0.137-0.185,0.28-0.363,0.427-0.541
		C208.339,202.314,207.975,202.341,207.591,202.34z M147.922,191.176c-0.237-0.025-0.478-0.04-0.72-0.047
		c-0.001,0-0.011-0.001-0.03-0.001c-0.042,0-0.077,0.001-0.105,0.001c-0.007,0-0.014,0-0.021,0.001
		c-0.051-0.001-0.104-0.001-0.156-0.001c-0.143,0-0.287,0.002-0.434,0.009c-0.045,0.002-0.082,0.007-0.107,0.007
		c-0.212,0.014-0.428,0.031-0.647,0.056c-0.044,0.007-0.079,0.012-0.104,0.015c-0.214,0.027-0.432,0.06-0.652,0.099
		c-0.003,0.001-0.004,0-0.029,0.004l-0.242,0.048l0,0c-4.456,0.885-9.458,4.014-13.919,6.64c-0.208,0.123-0.417,0.246-0.623,0.366
		c-0.125,0.073-0.249,0.145-0.373,0.217c-0.207,0.119-0.413,0.239-0.618,0.355c-0.108,0.062-0.218,0.123-0.325,0.185
		c-0.29,0.165-0.577,0.324-0.859,0.48c-0.079,0.046-0.16,0.088-0.242,0.131c-0.225,0.122-0.447,0.24-0.667,0.355
		c-0.087,0.047-0.174,0.091-0.259,0.136c-0.282,0.145-0.56,0.282-0.831,0.412c-0.043,0.021-0.09,0.041-0.141,0.065
		c-0.232,0.109-0.46,0.213-0.685,0.31c-0.074,0.033-0.15,0.064-0.224,0.096c-0.265,0.111-0.524,0.217-0.774,0.307
		c-1.135,0.41-3.111,0.904-4.811,0.903c-0.382,0-0.747-0.027-1.086-0.082c0.148,0.178,0.291,0.357,0.428,0.54
		c0.216,0.018,0.435,0.027,0.658,0.028c1.79-0.002,3.791-0.503,4.976-0.931c0.262-0.094,0.528-0.202,0.798-0.314
		c0.077-0.033,0.151-0.064,0.228-0.1c0.23-0.099,0.462-0.203,0.7-0.315c0.044-0.021,0.089-0.041,0.143-0.065
		c0.276-0.132,0.558-0.272,0.844-0.42c0.087-0.045,0.175-0.09,0.262-0.137c0.223-0.115,0.447-0.235,0.675-0.358
		c0.079-0.043,0.159-0.086,0.243-0.132c0.285-0.156,0.574-0.317,0.866-0.483c0.107-0.062,0.218-0.124,0.326-0.186
		c0.204-0.117,0.411-0.237,0.619-0.356c0.125-0.074,0.25-0.145,0.375-0.219c0.208-0.121,0.417-0.244,0.625-0.367
		c4.543-2.682,9.634-5.844,14.002-6.624l0.11-0.021c0.18-0.029,0.361-0.056,0.544-0.078c0.041-0.006,0.076-0.012,0.1-0.015
		c0.207-0.023,0.414-0.041,0.62-0.053c0.046-0.002,0.081-0.007,0.104-0.007c0.135-0.007,0.271-0.011,0.407-0.011
		c0.054,0,0.109,0.002,0.165,0.002l0.023,0.001l0.005-0.001c0.035,0,0.065-0.002,0.089-0.002c0,0,0.003,0,0.016,0
		c0.23,0.008,0.458,0.021,0.682,0.046c2.074,0.214,4.169,1.415,4.408,2.862c0.129-0.262,0.209-0.52,0.244-0.768
		C151.814,192.316,149.815,191.393,147.922,191.176z"/>
</g>
<g>
	<g>
		
			<linearGradient id="SVGID_24_" gradientUnits="userSpaceOnUse" x1="128.2358" y1="-580.4304" x2="192.909" y2="-591.8341" gradientTransform="matrix(1 0 0 -1 0 -426.6245)">
			<stop  offset="0.21" style="stop-color:#1E2145"/>
			<stop  offset="0.89" style="stop-color:#5E618F"/>
		</linearGradient>
		<path fill="url(#SVGID_24_)" stroke="#262666" stroke-width="2" d="M196.117,134.496c0-0.001,0-0.003,0-0.004
			c-0.056-1.714-0.147-3.226-0.248-4.493c-7.346-0.669-12.227-1.314-16.08-2.115c-3.638-0.752-6.211-1.653-8.646-2.661
			c0,0,0,0-0.001-0.001c-0.616-0.254-1.226-0.516-1.839-0.785l-0.761-0.333c-1.313-0.574-2.779-1.215-4.551-1.925
			c-0.341,0.131-0.677,0.258-1.013,0.385c0,0,0,0-0.001,0c-3.194,1.207-6.178,2.23-8.952,3.098c-0.005,0.002-0.01,0.004-0.016,0.006
			c-2.305,0.721-4.465,1.335-6.479,1.856c-0.009,0.002-0.017,0.005-0.025,0.007c-1.996,0.516-3.851,0.943-5.559,1.296
			c-1.89,0.389-3.602,0.685-5.138,0.911h-0.001c-1.685,0.248-3.159,0.41-4.419,0.515c-0.118,1.543-0.232,3.568-0.271,5.931v0
			c-0.009,0.547-0.014,1.113-0.014,1.695c-0.001,1.432,0.029,2.983,0.103,4.627c0.083,1.878,0.224,3.879,0.443,5.968
			c0,0.001,0,0.003,0,0.003c0.192,1.835,0.443,3.736,0.771,5.684c0,0,0,0,0,0.001c0.304,1.808,0.671,3.654,1.115,5.52l0,0
			c0.419,1.762,0.906,3.541,1.47,5.32c0,0.001,0.001,0.002,0.001,0.003c0.556,1.753,1.187,3.507,1.901,5.245
			c0,0.001,0.001,0.002,0.001,0.004c0.07,0.171,0.138,0.34,0.209,0.511c0.685,1.622,1.419,3.181,2.203,4.679
			c0,0.002,0.001,0.004,0.002,0.005c0.961,1.837,1.997,3.582,3.11,5.236c1.287,1.915,2.68,3.706,4.175,5.379
			c0.004,0.006,0.008,0.011,0.014,0.017c1.878,2.099,3.922,4.015,6.138,5.745c3.111,2.431,6.56,4.505,10.361,6.235
			c6.162-2.799,11.396-6.501,15.771-11.166c3.199-3.412,5.938-7.339,8.239-11.807c0.004-0.009,0.008-0.018,0.013-0.025
			c0.711-1.385,1.383-2.818,2.013-4.308c1.149-2.729,2.086-5.501,2.853-8.251c1.296-4.659,2.094-9.262,2.563-13.519
			c0.001-0.007,0.002-0.016,0.002-0.022c0.453-4.11,0.601-7.896,0.599-11.096C196.171,136.67,196.151,135.545,196.117,134.496z"/>
	</g>
	<defs>
		<filter id="Adobe_OpacityMaskFilter" filterUnits="userSpaceOnUse" x="131.104" y="121.107" width="66.068" height="78.055">
			<feColorMatrix  type="matrix" values="1 0 0 0 0  0 1 0 0 0  0 0 1 0 0  0 0 0 1 0"/>
		</filter>
	</defs>
	<mask maskUnits="userSpaceOnUse" x="131.104" y="121.107" width="66.068" height="78.055" id="SVGID_27_">
		<g filter="url(#Adobe_OpacityMaskFilter)">
		</g>
	</mask>
	<g opacity="0.98" mask="url(#SVGID_27_)">
		
			<linearGradient id="SVGID_25_" gradientUnits="userSpaceOnUse" x1="132.1045" y1="914.9338" x2="196.1729" y2="914.9338" gradientTransform="matrix(1 0 0 1 0 -754.8125)">
			<stop  offset="0.21" style="stop-color:#1E2145"/>
			<stop  offset="0.89" style="stop-color:#5E618F"/>
		</linearGradient>
		<path fill="url(#SVGID_25_)" stroke="#262666" stroke-width="2" d="M196.117,134.496c0-0.001,0-0.003,0-0.004
			c-0.056-1.714-0.147-3.226-0.248-4.493c-7.346-0.669-12.227-1.314-16.08-2.115c-3.638-0.752-6.211-1.653-8.646-2.661
			c0,0,0,0-0.001-0.001c-0.616-0.254-1.226-0.516-1.839-0.785l-0.761-0.333c-1.313-0.574-2.779-1.215-4.551-1.925
			c-0.341,0.131-0.677,0.258-1.013,0.385c0,0,0,0-0.001,0c-3.194,1.207-6.178,2.23-8.952,3.098c-0.005,0.002-0.01,0.004-0.016,0.006
			c-2.305,0.721-4.465,1.335-6.479,1.856c-0.009,0.002-0.017,0.005-0.025,0.007c-1.996,0.516-3.851,0.943-5.559,1.296
			c-1.89,0.389-3.602,0.685-5.138,0.911h-0.001c-1.685,0.248-3.159,0.41-4.419,0.515c-0.118,1.543-0.232,3.568-0.271,5.931v0
			c-0.009,0.547-0.014,1.113-0.014,1.695c-0.001,1.432,0.029,2.983,0.103,4.627c0.083,1.878,0.224,3.879,0.443,5.968
			c0,0.001,0,0.003,0,0.003c0.192,1.835,0.443,3.736,0.771,5.684c0,0,0,0,0,0.001c0.304,1.808,0.671,3.654,1.115,5.52l0,0
			c0.419,1.762,0.906,3.541,1.47,5.32c0,0.001,0.001,0.002,0.001,0.003c0.556,1.753,1.187,3.507,1.901,5.245
			c0,0.001,0.001,0.002,0.001,0.004c0.07,0.171,0.138,0.34,0.209,0.511c0.685,1.622,1.419,3.181,2.203,4.679
			c0,0.002,0.001,0.004,0.002,0.005c0.961,1.837,1.997,3.582,3.11,5.236c1.287,1.915,2.68,3.706,4.175,5.379
			c0.004,0.006,0.008,0.011,0.014,0.017c1.878,2.099,3.922,4.015,6.138,5.745c3.111,2.431,6.56,4.505,10.361,6.235
			c6.162-2.799,11.396-6.501,15.771-11.166c3.199-3.412,5.938-7.339,8.239-11.807c0.004-0.009,0.008-0.018,0.013-0.025
			c0.711-1.385,1.383-2.818,2.013-4.308c1.149-2.729,2.086-5.501,2.853-8.251c1.296-4.659,2.094-9.262,2.563-13.519
			c0.001-0.007,0.002-0.016,0.002-0.022c0.453-4.11,0.601-7.896,0.599-11.096C196.171,136.67,196.151,135.545,196.117,134.496z"/>
	</g>
</g>
<g>
	<g>
		
			<linearGradient id="SVGID_26_" gradientUnits="userSpaceOnUse" x1="149.7075" y1="-563.0398" x2="177.4226" y2="-589.699" gradientTransform="matrix(1 0 0 -1 0 -426.6245)">
			<stop  offset="0" style="stop-color:#B3B3B3"/>
			<stop  offset="1" style="stop-color:#4D4D4D"/>
		</linearGradient>
		<path fill="url(#SVGID_26_)" d="M198.137,127.74c-8.545-0.739-13.874-1.429-17.848-2.256c-4.3-0.888-7.014-1.987-10.001-3.293
			c-1.784-0.776-3.699-1.634-6.288-2.644c-17.663,6.896-29.071,8.192-33.879,8.392c-0.031,0.31-0.063,0.646-0.096,1.011
			c-0.192,2.142-0.386,5.228-0.385,8.94c-0.006,9.068,1.169,21.874,6.208,33.844c4.947,11.719,13.413,22.602,28.274,29.033
			c14.883-6.429,23.356-17.32,28.31-29.047c5.038-11.97,6.212-24.775,6.207-33.844C198.638,133.404,198.356,129.843,198.137,127.74z
			 M190.157,170.765c-5.438,12.878-13.961,21.823-26.034,27.305c-12.057-5.483-20.57-14.422-26.004-27.293
			c-4.979-11.829-6.018-24.412-6.013-32.883c-0.001-3.093,0.139-5.725,0.284-7.626c5.891-0.487,16.446-2.244,31.602-8.071
			c1.772,0.711,3.238,1.352,4.551,1.926l0.762,0.333c3.037,1.327,5.926,2.504,10.485,3.445c3.853,0.801,8.734,1.445,16.08,2.114
			c0.161,2.045,0.303,4.722,0.303,7.862C196.177,146.351,195.137,158.934,190.157,170.765z"/>
	</g>
</g>
<g id="Arrow_21">
</g>
<g>
	<g>
		
			<linearGradient id="SVGID_28_" gradientUnits="userSpaceOnUse" x1="163.3838" y1="880.3557" x2="167.6242" y2="949.6854" gradientTransform="matrix(1 0 0 1 0 -754.8125)">
			<stop  offset="0" style="stop-color:#1F1F1F"/>
			<stop  offset="0.2418" style="stop-color:#CCCCCC"/>
			<stop  offset="0.4011" style="stop-color:#6D6D6D"/>
			<stop  offset="0.5549" style="stop-color:#D2D2D2"/>
			<stop  offset="0.7033" style="stop-color:#272727"/>
			<stop  offset="0.967" style="stop-color:#060707"/>
		</linearGradient>
		<path fill="url(#SVGID_28_)" d="M203.239,124.802l-0.331-2.109l-2.127-0.174c-13.018-1.067-18.83-2.011-22.784-3.191
			c-1.987-0.592-3.577-1.253-5.542-2.11c-1.959-0.853-4.265-1.888-7.503-3.116l-0.985-0.374l-0.978,0.39
			c-19.819,7.866-31.391,8.429-34.332,8.43c-0.28,0-0.481-0.006-0.605-0.009c-0.062-0.002-0.104-0.004-0.126-0.006
			c-0.01,0-0.017,0-0.02-0.001c0,0,0,0,0,0v0.001l-2.48-0.18l-0.387,2.465c-0.016,0.104-0.823,5.274-0.824,13.077
			c0.006,9.522,1.19,22.979,6.63,35.945c5.418,12.951,15.273,25.453,32.25,32.385c0.336,0.139,0.684,0.203,1.028,0.203
			c0.389,0,0.77-0.084,1.119-0.242c16.939-6.937,26.779-19.424,32.191-32.36c5.439-12.966,6.624-26.422,6.631-35.945
			C204.063,130.076,203.256,124.906,203.239,124.802z M192.431,171.721c-4.952,11.727-13.427,22.618-28.31,29.047
			c-14.861-6.431-23.327-17.314-28.274-29.033c-5.039-11.969-6.212-24.775-6.208-33.843c-0.001-3.713,0.192-6.799,0.385-8.941
			c0.033-0.365,0.064-0.703,0.096-1.011c4.809-0.199,16.216-1.494,33.88-8.392c2.589,1.01,4.503,1.866,6.288,2.644
			c2.987,1.306,5.699,2.404,10,3.294c3.975,0.825,9.303,1.516,17.849,2.255c0.22,2.102,0.501,5.663,0.501,10.137
			C198.643,146.946,197.469,159.751,192.431,171.721z"/>
	</g>
</g>
<g id="path2588_2_">
	
		<linearGradient id="SVGID_29_" gradientUnits="userSpaceOnUse" x1="150.2651" y1="-295.3289" x2="178.1777" y2="-295.3289" gradientTransform="matrix(1 0 0 -1 0 -135.6245)">
		<stop  offset="0" style="stop-color:#CCB982"/>
		<stop  offset="0.5" style="stop-color:#CCA208"/>
		<stop  offset="1" style="stop-color:#CC8D16"/>
	</linearGradient>
	<path fill="url(#SVGID_29_)" stroke="#010202" stroke-width="2" d="M163.933,188.234c-2.666,0-4.835-2.012-4.835-4.485
		c0-1.629,0.965-3.127,2.461-3.912v-11.601c-2.721-0.7-5.081-2.345-6.708-4.694c-1.596-2.303-2.549-5.266-2.769-8.598
		c-1.12-0.717-1.817-1.918-1.817-3.197c0-2.138,1.872-3.877,4.172-3.877c2.297,0,4.167,1.74,4.167,3.877
		c0,1.265-0.672,2.446-1.759,3.167c0.198,2.452,0.876,4.572,1.977,6.16c0.771,1.113,1.673,1.909,2.737,2.411v-24.154
		c0,0-1.549,0.009-1.551,0.009c-0.356,0-0.683-0.192-0.857-0.503c-0.174-0.312-0.165-0.694,0.025-0.998l3.883-6.203
		c0.178-0.284,0.489-0.459,0.825-0.46c0.002,0,0.004,0,0.007,0c0.333,0,0.644,0.169,0.825,0.45l3.968,6.158
		c0.194,0.301,0.209,0.683,0.039,0.998c-0.172,0.315-0.5,0.513-0.858,0.515l-1.557,0.008V156.3c1.335-0.333,2.403-0.914,3.245-1.76
		c1.027-1.032,1.768-2.466,2.197-4.259c0.283-1.176,0.392-2.357,0.423-3.324h-0.269c-0.542,0-0.981-0.439-0.981-0.981v-4.817
		c0-0.542,0.439-0.98,0.981-0.98h5.292c0.542,0,0.981,0.439,0.981,0.98v4.817c0,0.542-0.439,0.981-0.981,0.981h-0.271
		c-0.038,1.53-0.221,2.979-0.545,4.323c-0.624,2.59-1.756,4.723-3.366,6.342c-1.702,1.712-4.009,2.841-6.706,3.295v18.927
		c1.496,0.787,2.463,2.283,2.463,3.906C168.77,186.222,166.6,188.234,163.933,188.234z"/>
</g>
<g>
	<path fill="#FFE6A1" d="M147.017,199.247c1.023,4.065,8.702,5.848,16.443,5.915v0.015c7.74-0.064,15.419-1.849,16.441-5.913
		c0.324,2.814,0.649,5.631,0.973,8.445c0.226,1.977,0.511,2.969-1.424,4.245c-3.317,2.188-10.896,3.917-15.99,3.696v-0.017
		c-5.095,0.222-12.672-1.507-15.991-3.694c-1.935-1.276-1.65-2.27-1.423-4.246C146.37,204.88,146.691,202.063,147.017,199.247
		L147.017,199.247z"/>
	
		<linearGradient id="SVGID_30_" gradientUnits="userSpaceOnUse" x1="145.8838" y1="962.2708" x2="181.0332" y2="962.2708" gradientTransform="matrix(1 0 0 1 0 -754.8125)">
		<stop  offset="0.1978" style="stop-color:#84181F"/>
		<stop  offset="0.3132" style="stop-color:#952338"/>
		<stop  offset="0.6593" style="stop-color:#952338"/>
		<stop  offset="0.8681" style="stop-color:#85191D"/>
	</linearGradient>
	<path fill="url(#SVGID_30_)" d="M169.588,204.736c-1.952,0.279-4.037,0.425-6.129,0.441v-0.015
		c-2.505-0.021-5.002-0.225-7.271-0.625c-1.212,2.762-2.849,5.479-3.14,8.557c-0.03,0.305-0.054,0.693-0.066,1.131
		c3.407,0.963,7.395,1.543,10.476,1.41v0.017c2.302,0.101,5.11-0.2,7.804-0.759c-0.347-3.27-1.188-6.541-1.638-9.756
		C169.61,205.022,169.598,204.885,169.588,204.736z M179.9,199.264c-0.746,2.965-5.04,4.716-10.313,5.472
		c0.01,0.149,0.021,0.286,0.037,0.401c0.45,3.214,1.291,6.485,1.638,9.756c3.269-0.678,6.366-1.74,8.185-2.938
		c1.936-1.276,1.651-2.269,1.424-4.245C180.549,204.895,180.225,202.078,179.9,199.264z M156.189,204.537
		c-4.742-0.836-8.48-2.541-9.172-5.29c-0.324,2.815-0.646,5.632-0.971,8.446c-0.227,1.977-0.512,2.97,1.423,4.246
		c1.312,0.864,3.289,1.656,5.515,2.285c0.012-0.438,0.036-0.826,0.066-1.131C153.339,210.016,154.976,207.3,156.189,204.537z"/>
	<g>
		
			<linearGradient id="SVGID_31_" gradientUnits="userSpaceOnUse" x1="182.418" y1="-632.304" x2="158.0547" y2="-628.4058" gradientTransform="matrix(1 0 0 -1 0 -426.6245)">
			<stop  offset="0.1264" style="stop-color:#D8E9F4"/>
			<stop  offset="0.1978" style="stop-color:#B2B7C8"/>
			<stop  offset="0.2418" style="stop-color:#8692AB"/>
			<stop  offset="0.3407" style="stop-color:#B2B7C8"/>
			<stop  offset="0.5275" style="stop-color:#EDF5FA"/>
			<stop  offset="0.8571" style="stop-color:#D8E9F4"/>
		</linearGradient>
		<path fill="url(#SVGID_31_)" d="M152.407,205.321c3.054,0.952,6.915,1.415,10.807,1.465v0.021l0.248-0.001
			c3.974-0.034,7.933-0.496,11.05-1.47c2.676-0.839,4.763-2.055,5.654-3.767c-0.037-0.326-0.075-0.652-0.112-0.979l-0.026-0.008
			c-0.474,1.887-2.607,3.332-5.664,4.283c-2.982,0.932-6.804,1.396-10.657,1.443v-0.011l-0.244-0.002
			c-3.938-0.033-7.86-0.495-10.908-1.445c-3.056-0.952-5.188-2.397-5.663-4.283l-0.026,0.007c-0.038,0.326-0.075,0.652-0.112,0.98
			C147.644,203.266,149.729,204.481,152.407,205.321z"/>
	</g>
	
		<linearGradient id="SVGID_32_" gradientUnits="userSpaceOnUse" x1="184.875" y1="-640.3752" x2="155.6394" y2="-635.8274" gradientTransform="matrix(1 0 0 -1 0 -426.6245)">
		<stop  offset="0.1264" style="stop-color:#D8E9F4"/>
		<stop  offset="0.1978" style="stop-color:#B2B7C8"/>
		<stop  offset="0.2418" style="stop-color:#8692AB"/>
		<stop  offset="0.3407" style="stop-color:#B2B7C8"/>
		<stop  offset="0.5275" style="stop-color:#EDF5FA"/>
		<stop  offset="0.8571" style="stop-color:#D8E9F4"/>
	</linearGradient>
	<path fill="url(#SVGID_32_)" d="M179.313,210.37c-3.044,2.017-9.948,3.678-14.943,3.674c-0.227,0-0.45-0.004-0.667-0.011v-0.034
		l-0.253,0.012c-0.292,0.013-0.593,0.019-0.901,0.019c-4.997,0.007-11.9-1.657-14.945-3.675c-0.907-0.605-1.396-1.229-1.644-1.935
		c-0.04,0.338-0.068,0.646-0.074,0.932c0.326,0.508,0.789,0.981,1.449,1.408c3.204,2.105,10.108,3.75,15.213,3.756
		c0.24,0,0.476-0.004,0.707-0.01l0.195,0.006c0.297,0.014,0.606,0.021,0.921,0.021c5.102-0.007,12.008-1.649,15.212-3.755
		c0.644-0.42,1.112-0.863,1.45-1.339c0-0.272-0.023-0.563-0.062-0.882C180.701,209.201,180.203,209.775,179.313,210.37z"/>
</g>
</svg>
