<?xml version="1.0" encoding="utf-8"?>
<!-- Generator: Adobe Illustrator 16.0.0, SVG Export Plug-In . SVG Version: 6.00 Build 0)  -->
<!DOCTYPE svg PUBLIC "-//W3C//DTD SVG 1.1//EN" "http://www.w3.org/Graphics/SVG/1.1/DTD/svg11.dtd">
<svg version="1.1" id="Layer_1" xmlns="http://www.w3.org/2000/svg" xmlns:xlink="http://www.w3.org/1999/xlink" x="0px" y="0px"
	 width="327.191px" height="327.188px" viewBox="0 0 327.191 327.188" enable-background="new 0 0 327.191 327.188"
	 xml:space="preserve">
<g>
	
		<linearGradient id="SVGID_1_" gradientUnits="userSpaceOnUse" x1="-564.8613" y1="-416.6536" x2="-391.5068" y2="-416.6536" gradientTransform="matrix(0.3697 -0.5276 -0.8189 -0.5739 103.9521 -445.8075)">
		<stop  offset="0.0056" style="stop-color:#080A0C"/>
		<stop  offset="0.073" style="stop-color:#0B0F17"/>
		<stop  offset="0.5" style="stop-color:#828790"/>
		<stop  offset="0.618" style="stop-color:#697485"/>
		<stop  offset="0.6744" style="stop-color:#667183"/>
		<stop  offset="0.7305" style="stop-color:#5B6A7E"/>
		<stop  offset="0.7863" style="stop-color:#4A5D76"/>
		<stop  offset="0.809" style="stop-color:#415772"/>
		<stop  offset="1" style="stop-color:#030406"/>
	</linearGradient>
	<polyline fill="url(#SVGID_1_)" stroke="#000000" stroke-width="0.5" stroke-miterlimit="10" points="235.012,90.413 
		282.268,22.978 269.182,24.198 300.598,0 288.201,37.525 285.492,26.313 238.742,93.027 	"/>
	
		<linearGradient id="SVGID_2_" gradientUnits="userSpaceOnUse" x1="-670.6558" y1="-417.9221" x2="-481.0732" y2="-417.9221" gradientTransform="matrix(0.4578 -0.6533 -0.8189 -0.5739 41.8843 -357.0551)">
		<stop  offset="0.0056" style="stop-color:#080A0C"/>
		<stop  offset="0.073" style="stop-color:#0B0F17"/>
		<stop  offset="0.5" style="stop-color:#828790"/>
		<stop  offset="0.618" style="stop-color:#697485"/>
		<stop  offset="0.6744" style="stop-color:#667183"/>
		<stop  offset="0.7305" style="stop-color:#5B6A7E"/>
		<stop  offset="0.7863" style="stop-color:#4A5D76"/>
		<stop  offset="0.809" style="stop-color:#415772"/>
		<stop  offset="1" style="stop-color:#030406"/>
	</linearGradient>
	<polyline fill="url(#SVGID_2_)" stroke="#000000" stroke-width="0.5" stroke-miterlimit="10" points="165.189,197.99 
		120.304,262.045 121.08,280.775 111.944,293.814 110.476,285.078 110.099,285.615 109.89,285.912 109.85,285.969 109.473,286.508 
		109.444,286.547 109.306,286.746 109.264,286.805 108.929,287.283 108.819,287.439 108.72,287.582 108.68,287.641 108.304,288.176 
		108.274,288.215 108.094,288.475 107.649,289.109 108.946,298.09 104.476,304.471 103.179,295.49 102.801,296.027 102.593,296.326 
		102.345,296.68 102.147,296.959 102.01,297.158 101.968,297.217 101.76,297.514 101.631,297.695 101.422,297.994 101.313,298.15 
		101.174,298.35 100.979,298.629 100.797,298.887 100.589,299.186 100.145,299.818 101.442,308.801 97.769,314.043 96.298,305.307 
		95.921,305.846 95.712,306.143 95.672,306.201 95.296,306.738 95.269,306.777 95.129,306.977 95.087,307.035 94.751,307.514 
		94.642,307.67 94.543,307.813 94.502,307.869 94.126,308.406 94.099,308.445 93.918,308.705 93.473,309.34 94.771,318.32 
		88.558,327.188 85.903,311.133 82.174,308.518 66.466,313.48 73.269,303.775 81.979,302.17 82.422,301.535 82.632,301.238 
		82.812,300.982 83.008,300.701 83.147,300.502 83.256,300.348 83.465,300.049 83.593,299.867 83.802,299.57 83.841,299.512 
		83.981,299.313 84.178,299.033 84.427,298.678 84.635,298.381 85.012,297.842 76.128,299.691 79.977,294.201 88.857,292.354 
		89.303,291.719 89.513,291.422 89.692,291.164 89.888,290.885 90.027,290.686 90.137,290.529 90.346,290.232 90.473,290.051 
		90.682,289.752 90.723,289.693 90.861,289.494 91.058,289.213 91.308,288.859 91.516,288.563 91.892,288.023 83.008,289.873 
		87.689,283.195 96.571,281.346 97.016,280.711 97.196,280.453 97.226,280.412 97.602,279.877 97.642,279.818 97.742,279.676 
		97.851,279.521 98.186,279.041 98.228,278.982 98.368,278.785 98.395,278.744 98.771,278.207 98.811,278.148 99.021,277.852 
		99.396,277.314 90.515,279.164 99.823,265.879 116.99,258.836 161.459,195.374 	"/>
</g>
<g>
	
		<linearGradient id="SVGID_3_" gradientUnits="userSpaceOnUse" x1="-1228.8262" y1="193.7444" x2="-1055.4727" y2="193.7444" gradientTransform="matrix(-0.3697 -0.5276 0.8189 -0.5739 -524.8769 -445.8075)">
		<stop  offset="0.0056" style="stop-color:#080A0C"/>
		<stop  offset="0.073" style="stop-color:#0B0F17"/>
		<stop  offset="0.5" style="stop-color:#828790"/>
		<stop  offset="0.618" style="stop-color:#697485"/>
		<stop  offset="0.6744" style="stop-color:#667183"/>
		<stop  offset="0.7305" style="stop-color:#5B6A7E"/>
		<stop  offset="0.7863" style="stop-color:#4A5D76"/>
		<stop  offset="0.809" style="stop-color:#415772"/>
		<stop  offset="1" style="stop-color:#030406"/>
	</linearGradient>
	<polyline fill="url(#SVGID_3_)" stroke="#000000" stroke-width="0.5" stroke-miterlimit="10" points="89.387,90.413 42.129,22.978 
		55.215,24.198 23.802,0 36.198,37.525 38.907,26.313 85.657,93.027 	"/>
	
		<linearGradient id="SVGID_4_" gradientUnits="userSpaceOnUse" x1="-1206.8613" y1="192.467" x2="-1017.2773" y2="192.467" gradientTransform="matrix(-0.4578 -0.6533 0.8189 -0.5739 -462.8091 -357.0551)">
		<stop  offset="0.0056" style="stop-color:#080A0C"/>
		<stop  offset="0.073" style="stop-color:#0B0F17"/>
		<stop  offset="0.5" style="stop-color:#828790"/>
		<stop  offset="0.618" style="stop-color:#697485"/>
		<stop  offset="0.6744" style="stop-color:#667183"/>
		<stop  offset="0.7305" style="stop-color:#5B6A7E"/>
		<stop  offset="0.7863" style="stop-color:#4A5D76"/>
		<stop  offset="0.809" style="stop-color:#415772"/>
		<stop  offset="1" style="stop-color:#030406"/>
	</linearGradient>
	<polyline fill="url(#SVGID_4_)" stroke="#000000" stroke-width="0.5" stroke-miterlimit="10" points="159.208,197.99 
		204.096,262.045 203.316,280.775 212.453,293.814 213.921,285.078 214.298,285.615 214.507,285.912 214.548,285.969 
		214.925,286.508 214.953,286.547 215.093,286.746 215.134,286.805 215.468,287.283 215.578,287.439 215.68,287.582 
		215.718,287.641 216.096,288.176 216.123,288.215 216.305,288.475 216.748,289.109 215.451,298.09 219.921,304.471 221.218,295.49 
		221.598,296.027 221.805,296.326 222.055,296.68 222.25,296.959 222.389,297.158 222.43,297.217 222.639,297.514 222.766,297.695 
		222.975,297.994 223.083,298.15 223.225,298.35 223.419,298.629 223.6,298.887 223.809,299.186 224.253,299.818 222.955,308.801 
		226.63,314.043 228.1,305.307 228.477,305.846 228.686,306.143 228.727,306.201 229.102,306.738 229.128,306.777 229.27,306.977 
		229.311,307.035 229.646,307.514 229.755,307.67 229.854,307.813 229.895,307.869 230.271,308.406 230.298,308.445 
		230.479,308.705 230.925,309.34 229.626,318.32 235.841,327.188 238.494,311.133 242.225,308.518 257.932,313.48 251.13,303.775 
		242.419,302.17 241.977,301.535 241.766,301.238 241.585,300.982 241.389,300.701 241.25,300.502 241.143,300.348 240.932,300.049 
		240.805,299.867 240.598,299.57 240.557,299.512 240.416,299.313 240.221,299.033 239.973,298.678 239.764,298.381 
		239.387,297.842 248.27,299.691 244.421,294.201 235.539,292.354 235.096,291.719 234.887,291.422 234.705,291.164 
		234.509,290.885 234.371,290.686 234.262,290.529 234.052,290.232 233.925,290.051 233.716,289.752 233.675,289.693 
		233.535,289.494 233.341,289.213 233.091,288.859 232.882,288.563 232.507,288.023 241.389,289.873 236.707,283.195 
		227.826,281.346 227.382,280.711 227.201,280.453 227.171,280.412 226.796,279.877 226.757,279.818 226.656,279.676 
		226.546,279.521 226.212,279.041 226.171,278.982 226.029,278.785 226.003,278.744 225.626,278.207 225.587,278.148 
		225.376,277.852 225.001,277.314 233.884,279.164 224.576,265.879 207.408,258.836 162.937,195.374 	"/>
</g>
<g>
	<g>
		
			<linearGradient id="SVGID_5_" gradientUnits="userSpaceOnUse" x1="193.5059" y1="1024.0657" x2="210.2471" y2="1024.0657" gradientTransform="matrix(1 0 0 1 0 -754.8125)">
			<stop  offset="0.0165" style="stop-color:#621312"/>
			<stop  offset="1" style="stop-color:#220A0A"/>
		</linearGradient>
		<path fill="url(#SVGID_5_)" d="M193.527,254.074h-0.021l1.713,30.357l0.045-0.021l2.521-0.994
			c6.565-2.816,11.159-6.648,12.463-11.611c-0.601-6.242-7.651-5.996-12.447-10.188
			C194.748,258.945,193.505,256.381,193.527,254.074L193.527,254.074z"/>
		
			<linearGradient id="SVGID_6_" gradientUnits="userSpaceOnUse" x1="284.3066" y1="1026.6467" x2="304.1875" y2="1026.6467" gradientTransform="matrix(1 0 0 1 0 -754.8125)">
			<stop  offset="0.0165" style="stop-color:#621312"/>
			<stop  offset="1" style="stop-color:#220A0A"/>
		</linearGradient>
		<path fill="url(#SVGID_6_)" d="M292.55,257.25c-3.332,6.873-5,22.344-8.243,28.979c6.176,1.615,13.873-7.512,17.979-10.73
			c0.318-0.295,0.639-0.604,0.965-0.938C307.843,266.127,294.143,262.996,292.55,257.25L292.55,257.25z"/>
		
			<linearGradient id="SVGID_7_" gradientUnits="userSpaceOnUse" x1="-2421.585" y1="1010.4338" x2="-2486.9082" y2="1025.7805" gradientTransform="matrix(-1 0 0 1 -2244.7432 -754.8125)">
			<stop  offset="0" style="stop-color:#85171C"/>
			<stop  offset="0.6593" style="stop-color:#391110"/>
		</linearGradient>
		<path fill="url(#SVGID_7_)" d="M207.419,243.729c13.506-1.477,30.394,8.074,45.865,17.222c-3.734,5.498-7.64,10.961-10.582,16.926
			c-1.32,2.686-2.604,5.446-3.438,8.332c-0.445,1.551-0.55,3.143-0.693,4.725c-8.831-5.334-16.703-10.178-22.863-11.539
			c-1.734-0.381-3.322-0.492-4.762-0.271l-0.859-7.484l-0.033,0.123c-0.604-6.244-7.654-6-12.447-10.188
			C187.298,252.561,197.646,244.793,207.419,243.729z"/>
		<path fill="#391110" d="M207.419,243.729c2.83-0.311,5.813-0.127,8.896,0.423c-2.375,11.467-1.9,23.729-5.133,34.948
			c-0.076,0.008-0.156,0.008-0.23,0.021l-0.863-7.484l-0.031,0.123c-0.604-6.246-7.654-6-12.447-10.188
			C187.298,252.561,197.646,244.793,207.419,243.729z"/>
		
			<linearGradient id="SVGID_8_" gradientUnits="userSpaceOnUse" x1="222.167" y1="1019.9729" x2="266.2137" y2="1037.6779" gradientTransform="matrix(1 0 0 1 0 -754.8125)">
			<stop  offset="0.2418" style="stop-color:#391110"/>
			<stop  offset="0.4121" style="stop-color:#621312"/>
			<stop  offset="0.5385" style="stop-color:#85171C"/>
			<stop  offset="0.7692" style="stop-color:#85171C"/>
		</linearGradient>
		<path fill="url(#SVGID_8_)" d="M279.375,274.783c-11.486-4.148-27.053-15.246-42.381-23.012
			c-1.895,11.572-5.553,22.895-5.775,34.688c12.75,7.438,28.363,18.188,44.07,21.045c9.344,1.695,13.207,0.262,14.146-7.039
			c1.684-13.152,6.313-18.227,13.153-25.234C297.682,279.602,285.145,276.867,279.375,274.783z"/>
		
			<linearGradient id="SVGID_9_" gradientUnits="userSpaceOnUse" x1="293.2246" y1="1048.1204" x2="265.5895" y2="1038.1891" gradientTransform="matrix(1 0 0 1 0 -754.8125)">
			<stop  offset="0.1264" style="stop-color:#942436"/>
			<stop  offset="0.1978" style="stop-color:#621312"/>
			<stop  offset="0.2418" style="stop-color:#391110"/>
			<stop  offset="0.4176" style="stop-color:#621312"/>
			<stop  offset="0.5824" style="stop-color:#85171C"/>
		</linearGradient>
		<path fill="url(#SVGID_9_)" d="M279.375,274.783c-2.963-1.074-6.199-2.607-9.633-4.428l-12.004,31.162
			c5.74,2.715,11.637,4.912,17.549,5.984c9.346,1.697,13.209,0.262,14.146-7.037c1.685-13.152,6.313-18.228,13.152-25.234
			C297.682,279.602,285.145,276.867,279.375,274.783z"/>
		
			<linearGradient id="SVGID_10_" gradientUnits="userSpaceOnUse" x1="195.4102" y1="1018.175" x2="282.3492" y2="1013.5688" gradientTransform="matrix(1 0 0 1 0 -754.8125)">
			<stop  offset="0.1264" style="stop-color:#952438"/>
			<stop  offset="0.1978" style="stop-color:#621312"/>
			<stop  offset="0.2418" style="stop-color:#391110"/>
			<stop  offset="0.4176" style="stop-color:#621312"/>
			<stop  offset="0.5824" style="stop-color:#85171C"/>
		</linearGradient>
		<path fill="url(#SVGID_10_)" d="M207.615,243.774c21.84-2.384,52.521,24.063,71.76,31.011c5.271,1.9,16.201,4.354,21.789,1.43
			c0.467-0.482,0.938-0.973,1.424-1.469c-4.906,4.368-17.441,1.631-23.211-0.451c-19.236-6.945-49.92-33.395-71.76-31.01
			c-7.047,0.771-14.383,5.021-14.076,10.702C193.666,248.551,200.773,244.522,207.615,243.774z"/>
		
			<linearGradient id="SVGID_11_" gradientUnits="userSpaceOnUse" x1="283.332" y1="1029.0667" x2="304.1855" y2="1029.0667" gradientTransform="matrix(1 0 0 1 0 -754.8125)">
			<stop  offset="0.1264" style="stop-color:#952438"/>
			<stop  offset="0.1978" style="stop-color:#621312"/>
			<stop  offset="0.2418" style="stop-color:#391110"/>
			<stop  offset="0.4176" style="stop-color:#621312"/>
			<stop  offset="0.5824" style="stop-color:#85171C"/>
		</linearGradient>
		<path fill="url(#SVGID_11_)" d="M303.25,274.068c-0.328,0.332-0.646,0.641-0.965,0.938c-4.063,3.186-12.576,2.143-18.74,0.557
			c-0.07,0.146-0.143,0.287-0.213,0.438c6.178,1.617,14.85,2.721,18.955-0.502c0.316-0.295,0.637-0.604,0.965-0.938
			c0.723-1.332,0.99-2.523,0.924-3.625C304.146,271.896,303.867,272.932,303.25,274.068z"/>
		
			<linearGradient id="SVGID_12_" gradientUnits="userSpaceOnUse" x1="201.7588" y1="1018.7893" x2="197.8237" y2="1052.2394" gradientTransform="matrix(1 0 0 1 0 -754.8125)">
			<stop  offset="0.1264" style="stop-color:#952438"/>
			<stop  offset="0.1978" style="stop-color:#621312"/>
			<stop  offset="0.2418" style="stop-color:#391110"/>
			<stop  offset="0.4176" style="stop-color:#621312"/>
			<stop  offset="0.5824" style="stop-color:#85171C"/>
		</linearGradient>
		<path fill="url(#SVGID_12_)" d="M197.798,262.105c4.711,4.119,11.582,3.971,12.394,9.875c0.021-0.061,0.039-0.119,0.059-0.176
			c-0.604-6.24-7.652-5.996-12.447-10.188c-3.051-2.67-4.293-5.234-4.271-7.543h-0.021l0.079,1.389
			C193.855,257.531,195.139,259.777,197.798,262.105z"/>
		<g>
			
				<linearGradient id="SVGID_13_" gradientUnits="userSpaceOnUse" x1="210.5566" y1="1044.219" x2="289.5049" y2="1044.219" gradientTransform="matrix(1 0 0 1 0 -754.8125)">
				<stop  offset="0.1264" style="stop-color:#D8E9F4"/>
				<stop  offset="0.1978" style="stop-color:#B2B7C8"/>
				<stop  offset="0.2418" style="stop-color:#8692AB"/>
				<stop  offset="0.3407" style="stop-color:#B2B7C8"/>
				<stop  offset="0.5275" style="stop-color:#EDF5FA"/>
				<stop  offset="0.8571" style="stop-color:#D8E9F4"/>
			</linearGradient>
			<path fill="url(#SVGID_13_)" d="M281.518,303.225c-1.8,0-3.843-0.225-6.097-0.633c-14.789-2.676-29.662-12.551-42.103-19.934
				c-0.467-0.275-0.93-0.551-1.391-0.818c-0.002-0.021-0.008-0.049-0.02-0.084c-0.068-0.016-0.895-0.512-0.959-0.488
				c-0.727-0.418-1.438-0.826-2.146-1.221c-4.697-2.629-8.976-4.674-12.742-5.512c-0.56-0.125-1.095-0.213-1.619-0.277
				c-0.09-0.01-0.146-0.014-0.168-0.018c-0.502-0.057-0.99-0.092-1.469-0.096c-0.062-0.004-0.136-0.002-0.195-0.002
				c-0.148,0-1.142-0.02-2.053-0.031l0.19,1.676l0.5-0.076c0.422-0.066,0.879-0.094,1.358-0.094c0.063,0,0.109,0.004,0.156,0.004
				c0.441,0.006,0.883,0.035,1.332,0.086c0.082,0.008,0.139,0.012,0.158,0.016c0.482,0.063,0.977,0.143,1.48,0.252
				c4.102,0.9,9.131,3.463,14.746,6.729v0.002l0.356,0.207c12.722,7.412,28.375,18.229,44.312,21.131
				c2.317,0.424,4.444,0.652,6.36,0.652c0.101,0.004,0.199,0.006,0.302,0.006c2.905,0,5.375-0.668,7.196-2.072
				c0.175-0.658,0.313-1.369,0.418-2.16c0.022-0.191,0.056-0.365,0.082-0.555C288.035,302.229,285.432,303.162,281.518,303.225z"/>
		</g>
	</g>
	<g>
		
			<linearGradient id="SVGID_14_" gradientUnits="userSpaceOnUse" x1="136.1431" y1="1030.5295" x2="103.8744" y2="1010.4598" gradientTransform="matrix(1 0 0 1 0 -754.8125)">
			<stop  offset="0.0165" style="stop-color:#621312"/>
			<stop  offset="1" style="stop-color:#220A0A"/>
		</linearGradient>
		<path fill="url(#SVGID_14_)" d="M127.389,254.025l0.021,0.002l-1.708,30.354l-0.048-0.01l-2.517-1.002
			c-6.564-2.816-11.161-6.646-12.467-11.609c0.603-6.244,7.653-6,12.448-10.188C126.167,258.9,127.409,256.338,127.389,254.025
			L127.389,254.025z"/>
		
			<linearGradient id="SVGID_15_" gradientUnits="userSpaceOnUse" x1="16.7314" y1="1027.26" x2="37.731" y2="1027.26" gradientTransform="matrix(1 0 0 1 0 -754.8125)">
			<stop  offset="0.0165" style="stop-color:#621312"/>
			<stop  offset="1" style="stop-color:#220A0A"/>
		</linearGradient>
		<path fill="url(#SVGID_15_)" d="M28.367,257.203c3.337,6.871,6.117,23.688,9.364,30.318c-6.177,1.621-14.993-8.855-19.099-12.078
			c-0.316-0.293-0.637-0.598-0.963-0.936C13.075,266.078,26.777,262.945,28.367,257.203L28.367,257.203z"/>
		<path fill="#85171C" d="M113.301,243.729c-21.836-2.387-52.523,24.06-71.758,31.003c-0.228,0.084-0.472,0.168-0.721,0.254
			c2.475,5.732,4.21,11.729,7.503,17.125c1.887,3.09,4.292,6.328,5.353,9.836c0.311,1.033,0.577,2.074,0.835,3.115
			c19.686-6.877,38.388-22.986,50.502-25.67c1.731-0.381,3.321-0.492,4.758-0.271l0.86-7.484l0.034,0.123
			c0.603-6.244,7.653-6,12.448-10.188C133.42,252.561,123.073,244.793,113.301,243.729z"/>
		
			<linearGradient id="SVGID_16_" gradientUnits="userSpaceOnUse" x1="28.0742" y1="1048.1252" x2="72.5391" y2="1031.205" gradientTransform="matrix(1 0 0 1 0 -754.8125)">
			<stop  offset="0.1264" style="stop-color:#952438"/>
			<stop  offset="0.1978" style="stop-color:#621312"/>
			<stop  offset="0.2418" style="stop-color:#391110"/>
			<stop  offset="0.4176" style="stop-color:#621312"/>
			<stop  offset="0.5824" style="stop-color:#85171C"/>
		</linearGradient>
		<path fill="url(#SVGID_16_)" d="M79.787,286.662c-1.199-3.66-2.754-7.184-4.66-10.533c-2.806-4.936-6.011-9.602-9.182-14.295
			c-8.989,5.324-17.447,10.391-24.403,12.896c-5.769,2.086-18.313,4.818-23.218,0.451c6.839,7.008,11.472,12.082,13.162,25.232
			c0.937,7.305,4.799,8.734,14.14,7.041c12.127-2.199,24.197-9.113,34.939-15.572C80.411,290.137,80.349,288.377,79.787,286.662z"/>
		
			<linearGradient id="SVGID_17_" gradientUnits="userSpaceOnUse" x1="143.877" y1="1010.4348" x2="78.5544" y2="1025.7815" gradientTransform="matrix(1 0 0 1 0 -754.8125)">
			<stop  offset="0.1264" style="stop-color:#621312"/>
			<stop  offset="0.1978" style="stop-color:#621312"/>
			<stop  offset="0.2418" style="stop-color:#391110"/>
			<stop  offset="0.4121" style="stop-color:#621312"/>
			<stop  offset="0.6154" style="stop-color:#621312"/>
			<stop  offset="0.7692" style="stop-color:#85171C"/>
		</linearGradient>
		<path fill="url(#SVGID_17_)" d="M113.301,243.729c-13.505-1.477-30.393,8.074-45.864,17.222
			c3.734,5.498,7.639,10.961,10.58,16.926c1.322,2.686,2.604,5.446,3.438,8.332c0.447,1.551,0.549,3.143,0.692,4.725
			c8.836-5.334,16.705-10.178,22.869-11.539c1.731-0.381,3.321-0.492,4.758-0.271l0.86-7.484l0.034,0.123
			c0.603-6.244,7.653-6,12.448-10.188C133.42,252.561,123.073,244.793,113.301,243.729z"/>
		
			<linearGradient id="SVGID_18_" gradientUnits="userSpaceOnUse" x1="143.8296" y1="1014.5911" x2="92.6755" y2="1016.9517" gradientTransform="matrix(1 0 0 1 0 -754.8125)">
			<stop  offset="0.1264" style="stop-color:#952438"/>
			<stop  offset="0.1978" style="stop-color:#621312"/>
			<stop  offset="0.2418" style="stop-color:#391110"/>
			<stop  offset="0.7857" style="stop-color:#621312"/>
		</linearGradient>
		<path fill="url(#SVGID_18_)" d="M113.301,243.729c-2.829-0.311-5.811-0.127-8.894,0.423c2.377,11.467,1.903,23.729,5.131,34.948
			c0.077,0.008,0.158,0.008,0.236,0.021l0.86-7.484l0.034,0.123c0.603-6.246,7.653-6,12.448-10.188
			C133.42,252.561,123.073,244.793,113.301,243.729z"/>
		
			<linearGradient id="SVGID_19_" gradientUnits="userSpaceOnUse" x1="18.3252" y1="1015.1135" x2="127.3872" y2="1015.1135" gradientTransform="matrix(1 0 0 1 0 -754.8125)">
			<stop  offset="0.1264" style="stop-color:#952438"/>
			<stop  offset="0.1978" style="stop-color:#621312"/>
			<stop  offset="0.2418" style="stop-color:#391110"/>
			<stop  offset="0.4176" style="stop-color:#621312"/>
			<stop  offset="0.5824" style="stop-color:#85171C"/>
		</linearGradient>
		<path fill="url(#SVGID_19_)" d="M113.301,243.24c-21.836-2.389-52.523,24.057-71.758,31.002
			c-5.769,2.084-18.313,4.818-23.218,0.449c0.488,0.498,0.96,0.986,1.425,1.471c5.589,2.924,16.521,0.477,21.793-1.432
			c19.235-6.943,49.922-33.39,71.758-31.004c6.837,0.746,13.948,4.776,14.077,10.211
			C127.683,248.254,120.343,244.006,113.301,243.24z"/>
		
			<linearGradient id="SVGID_20_" gradientUnits="userSpaceOnUse" x1="16.731" y1="1029.0149" x2="37.5898" y2="1029.0149" gradientTransform="matrix(1 0 0 1 0 -754.8125)">
			<stop  offset="0.1264" style="stop-color:#952438"/>
			<stop  offset="0.1978" style="stop-color:#621312"/>
			<stop  offset="0.2418" style="stop-color:#391110"/>
			<stop  offset="0.4176" style="stop-color:#621312"/>
			<stop  offset="0.5824" style="stop-color:#85171C"/>
		</linearGradient>
		<path fill="url(#SVGID_20_)" d="M17.667,274.51c0.327,0.338,0.647,0.643,0.963,0.938c4.106,3.221,12.779,2.121,18.96,0.5
			c-0.074-0.15-0.143-0.287-0.215-0.438c-6.166,1.594-14.685,2.631-18.745-0.551c-0.316-0.293-0.637-0.604-0.963-0.938
			c-0.617-1.139-0.897-2.172-0.926-3.135C16.673,271.982,16.943,273.182,17.667,274.51z"/>
		
			<linearGradient id="SVGID_21_" gradientUnits="userSpaceOnUse" x1="138.8506" y1="991.6028" x2="116.4215" y2="1021.9015" gradientTransform="matrix(1 0 0 1 0 -754.8125)">
			<stop  offset="0.1264" style="stop-color:#952438"/>
			<stop  offset="0.1978" style="stop-color:#621312"/>
			<stop  offset="0.2418" style="stop-color:#391110"/>
			<stop  offset="0.4176" style="stop-color:#621312"/>
			<stop  offset="0.5824" style="stop-color:#85171C"/>
		</linearGradient>
		<path fill="url(#SVGID_21_)" d="M127.389,254.025c0.021,2.313-1.222,4.875-4.272,7.545c-4.795,4.188-11.845,3.943-12.448,10.188
			c0.017,0.063,0.041,0.117,0.055,0.174c0.815-5.9,7.686-5.758,12.393-9.871c2.658-2.324,3.941-4.566,4.215-6.637l0.078-1.396
			L127.389,254.025z"/>
		<g>
			
				<linearGradient id="SVGID_22_" gradientUnits="userSpaceOnUse" x1="31.4072" y1="1044.1848" x2="110.3042" y2="1044.1848" gradientTransform="matrix(1 0 0 1 0 -754.8125)">
				<stop  offset="0.1264" style="stop-color:#D8E9F4"/>
				<stop  offset="0.1978" style="stop-color:#B2B7C8"/>
				<stop  offset="0.2418" style="stop-color:#8692AB"/>
				<stop  offset="0.3407" style="stop-color:#B2B7C8"/>
				<stop  offset="0.5275" style="stop-color:#EDF5FA"/>
				<stop  offset="0.8571" style="stop-color:#D8E9F4"/>
			</linearGradient>
			<path fill="url(#SVGID_22_)" d="M104.854,274.482c-6.749,1.512-15.192,6.891-24.668,12.578l-0.416,0.246l0.001,0.008
				c-3.574,2.146-7.289,4.328-11.092,6.361l-0.04,0.023c-3.483,1.859-7.037,3.592-10.633,5.059c-0.06,0.021-0.125,0.051-0.2,0.082
				c-4.074,1.646-8.198,2.963-12.31,3.707c-2.258,0.406-4.299,0.629-6.094,0.629c-3.912-0.063-6.517-0.992-7.995-3.303
				c0.024,0.188,0.056,0.354,0.079,0.543c0.104,0.797,0.246,1.512,0.421,2.17c1.825,1.4,4.295,2.066,7.206,2.066
				c0.096,0,0.192,0,0.289-0.002c1.915,0,4.037-0.232,6.355-0.652c4.243-0.771,8.462-2.111,12.606-3.791
				c0.063-0.025,0.13-0.057,0.205-0.084c3.652-1.486,7.25-3.24,10.762-5.119l0.046-0.023c3.985-2.133,7.861-4.418,11.567-6.646
				l0.412-0.25v-0.002c9.307-5.613,17.609-10.795,23.818-12.156c1.078-0.236,2.087-0.361,3.025-0.357
				c0.269-0.002,0.531,0.01,0.786,0.029l0.003,0.008l0.479,0.045c0.127,0.01,0.185,0.012,0.185,0.012l0.509,0.088l0.144-1.252
				c-0.808-0.168-1.901-0.404-2.106-0.404C107.136,274.09,106.022,274.229,104.854,274.482z"/>
		</g>
	</g>
	
		<linearGradient id="SVGID_23_" gradientUnits="userSpaceOnUse" x1="23.4248" y1="1019.5657" x2="297.4824" y2="1019.5657" gradientTransform="matrix(1 0 0 1 0 -754.8125)">
		<stop  offset="0.1264" style="stop-color:#D8E9F4"/>
		<stop  offset="0.1978" style="stop-color:#B2B7C8"/>
		<stop  offset="0.2418" style="stop-color:#8692AB"/>
		<stop  offset="0.3407" style="stop-color:#B2B7C8"/>
		<stop  offset="0.5275" style="stop-color:#EDF5FA"/>
		<stop  offset="0.8571" style="stop-color:#D8E9F4"/>
	</linearGradient>
	<path fill="url(#SVGID_23_)" d="M294.193,281.006c-5.146,0.006-11.133-1.49-14.566-2.732
		c-10.752-3.875-25.373-14.076-39.996-21.771l0.002-0.01l-0.519-0.268c-0.271-0.145-0.532-0.271-0.786-0.406
		c-0.326-0.166-0.662-0.344-1.004-0.52l-0.867-0.438v0.012c-5.227-2.604-10.422-4.792-15.445-6.186v-0.021l-0.547-0.146
		c-0.283-0.077-0.549-0.137-0.807-0.202l-0.027-0.009l-0.934-0.251v0.028c-2.828-0.648-5.6-1.021-8.273-1.021
		c-0.979,0-1.939,0.049-2.894,0.154c-5.733,0.656-11.791,3.455-13.935,7.812c0.104,0.754,0.346,1.529,0.735,2.324
		c0.729-4.383,7.074-8.015,13.358-8.669c0.892-0.1,1.802-0.146,2.729-0.146c2.813,0,5.772,0.434,8.838,1.197l0.271,0.066v0.01
		l0.548,0.146c5.323,1.414,10.928,3.796,16.573,6.656l0.689,0.35c0.104,0.055,0.205,0.105,0.309,0.16
		c0.107,0.055,0.209,0.104,0.313,0.158l0.47,0.243c14.698,7.665,29.483,18.067,40.69,22.128c3.59,1.285,9.651,2.814,15.069,2.82
		c0.679-0.002,1.347-0.035,2-0.086c0.414-0.557,0.849-1.1,1.293-1.639C296.46,280.928,295.354,281.01,294.193,281.006z
		 M113.378,247.178c-0.721-0.078-1.448-0.123-2.183-0.144c-0.003,0-0.035-0.004-0.09-0.004c-0.127,0-0.233,0.004-0.319,0.004
		c-0.021,0-0.043,0-0.064,0.003c-0.153-0.003-0.313-0.003-0.473-0.003c-0.431,0-0.868,0.007-1.315,0.027
		c-0.136,0.006-0.249,0.021-0.323,0.022c-0.643,0.039-1.298,0.092-1.964,0.168c-0.133,0.019-0.239,0.035-0.314,0.045
		c-0.651,0.082-1.31,0.179-1.975,0.297c-0.011,0.004-0.012,0-0.09,0.013l-0.732,0.144v0.002
		c-13.502,2.678-28.66,12.16-42.179,20.119c-0.632,0.373-1.263,0.744-1.889,1.109c-0.378,0.221-0.755,0.438-1.13,0.656
		c-0.628,0.363-1.251,0.727-1.872,1.078c-0.329,0.188-0.66,0.375-0.983,0.561c-0.879,0.5-1.748,0.982-2.604,1.455
		c-0.242,0.137-0.486,0.266-0.735,0.396c-0.681,0.371-1.355,0.729-2.023,1.078c-0.264,0.141-0.527,0.275-0.786,0.41
		c-0.854,0.438-1.695,0.857-2.518,1.25c-0.131,0.063-0.271,0.125-0.427,0.199c-0.704,0.33-1.393,0.643-2.074,0.938
		c-0.225,0.1-0.454,0.195-0.677,0.289c-0.802,0.338-1.59,0.656-2.346,0.928c-3.439,1.246-9.429,2.74-14.577,2.738
		c-1.158,0-2.264-0.082-3.291-0.248c0.447,0.539,0.879,1.082,1.295,1.637c0.654,0.053,1.318,0.084,1.996,0.086
		c5.424-0.006,11.486-1.525,15.077-2.822c0.792-0.285,1.601-0.611,2.419-0.953c0.231-0.1,0.458-0.195,0.689-0.299
		c0.696-0.301,1.401-0.617,2.12-0.957c0.133-0.063,0.271-0.125,0.433-0.199c0.837-0.4,1.69-0.826,2.556-1.271
		c0.265-0.137,0.53-0.273,0.795-0.414c0.675-0.35,1.354-0.715,2.045-1.088c0.242-0.129,0.484-0.26,0.738-0.398
		c0.865-0.475,1.739-0.963,2.624-1.465c0.326-0.188,0.661-0.377,0.989-0.564c0.62-0.354,1.246-0.717,1.875-1.08
		c0.38-0.223,0.755-0.438,1.135-0.662c0.629-0.365,1.263-0.738,1.895-1.113c13.766-8.125,29.194-17.709,42.43-20.074l0.334-0.063
		c0.545-0.09,1.095-0.168,1.647-0.237c0.126-0.019,0.231-0.036,0.304-0.044c0.627-0.071,1.254-0.124,1.879-0.16
		c0.142-0.008,0.245-0.021,0.315-0.021c0.409-0.022,0.821-0.031,1.234-0.031c0.164,0,0.331,0.004,0.499,0.004l0.07,0.004
		l0.016-0.004c0.105-0.001,0.197-0.006,0.271-0.006c0,0,0.009,0,0.049,0.002c0.698,0.021,1.388,0.063,2.065,0.137
		c6.283,0.65,12.634,4.287,13.358,8.675c0.392-0.795,0.634-1.574,0.74-2.328C125.174,250.631,119.115,247.833,113.378,247.178z"/>
</g>
<g>
	<g>
		
			<linearGradient id="SVGID_24_" gradientUnits="userSpaceOnUse" x1="53.7256" y1="888.7405" x2="249.7033" y2="923.2968" gradientTransform="matrix(1 0 0 1 0 -754.8125)">
			<stop  offset="0.21" style="stop-color:#1E2145"/>
			<stop  offset="0.89" style="stop-color:#5E618F"/>
		</linearGradient>
		<path fill="url(#SVGID_24_)" stroke="#262666" stroke-width="2" d="M259.425,75.42c0-0.004,0-0.009-0.002-0.013
			c-0.168-5.193-0.446-9.773-0.752-13.615c-22.258-2.027-37.051-3.981-48.728-6.408c-11.022-2.278-18.821-5.009-26.2-8.063
			c0,0,0,0-0.002-0.001c-1.869-0.771-3.714-1.565-5.572-2.379l-2.306-1.008c-3.979-1.74-8.422-3.682-13.792-5.833
			c-1.033,0.397-2.051,0.781-3.069,1.166c-0.001,0-0.002,0.001-0.004,0.001c-9.68,3.656-18.722,6.757-27.127,9.386
			c-0.016,0.007-0.03,0.012-0.047,0.017c-6.984,2.186-13.532,4.046-19.634,5.626c-0.025,0.008-0.051,0.015-0.076,0.021
			c-6.049,1.564-11.668,2.86-16.844,3.927c-5.727,1.177-10.914,2.074-15.569,2.76c0,0-0.002,0-0.003,0.001
			c-5.105,0.751-9.573,1.243-13.39,1.56c-0.358,4.675-0.704,10.813-0.82,17.973v0.001c-0.027,1.658-0.042,3.373-0.041,5.137
			c-0.003,4.34,0.088,9.042,0.311,14.021c0.252,5.692,0.679,11.756,1.342,18.085c0,0.004,0,0.008,0,0.01
			c0.582,5.562,1.343,11.321,2.334,17.224c0,0,0,0.002,0.001,0.004c0.92,5.479,2.035,11.073,3.379,16.727h0.001
			c1.27,5.34,2.746,10.729,4.453,16.121c0.001,0.002,0.003,0.004,0.004,0.008c1.683,5.313,3.596,10.627,5.76,15.896
			c0.001,0.002,0.002,0.006,0.003,0.009c0.212,0.519,0.418,1.032,0.635,1.549c2.075,4.914,4.299,9.64,6.674,14.179
			c0.002,0.004,0.004,0.01,0.007,0.014c2.913,5.568,6.052,10.855,9.425,15.869c3.901,5.802,8.121,11.229,12.653,16.299
			c0.014,0.018,0.026,0.031,0.042,0.048c5.691,6.362,11.885,12.166,18.6,17.411c9.428,7.367,19.878,13.65,31.397,18.894
			c18.674-8.48,34.533-19.699,47.789-33.835c9.697-10.339,17.996-22.238,24.967-35.779c0.014-0.025,0.025-0.052,0.041-0.076
			c2.154-4.195,4.189-8.541,6.098-13.054c3.482-8.271,6.32-16.667,8.644-25.001c3.927-14.119,6.345-28.068,7.767-40.967
			c0.002-0.021,0.004-0.046,0.006-0.066c1.371-12.454,1.818-23.929,1.813-33.625C259.587,82.006,259.527,78.599,259.425,75.42z"/>
	</g>
	<defs>
		<filter id="Adobe_OpacityMaskFilter" filterUnits="userSpaceOnUse" x="64.448" y="37.026" width="196.145" height="232.11">
			<feColorMatrix  type="matrix" values="1 0 0 0 0  0 1 0 0 0  0 0 1 0 0  0 0 0 1 0"/>
		</filter>
	</defs>
	<mask maskUnits="userSpaceOnUse" x="64.448" y="37.026" width="196.145" height="232.11" id="SVGID_27_">
		<g filter="url(#Adobe_OpacityMaskFilter)">
		</g>
	</mask>
	<g opacity="0.98" mask="url(#SVGID_27_)">
		
			<linearGradient id="SVGID_25_" gradientUnits="userSpaceOnUse" x1="65.4478" y1="-115.8806" x2="259.5928" y2="-115.8806" gradientTransform="matrix(1 0 0 -1 0 37.188)">
			<stop  offset="0.21" style="stop-color:#1E2145"/>
			<stop  offset="0.89" style="stop-color:#5E618F"/>
		</linearGradient>
		<path fill="url(#SVGID_25_)" stroke="#262666" stroke-width="2" d="M259.425,75.42c0-0.004,0-0.009-0.002-0.013
			c-0.168-5.193-0.446-9.773-0.752-13.615c-22.258-2.027-37.051-3.981-48.728-6.408c-11.022-2.278-18.821-5.009-26.2-8.063
			c0,0,0,0-0.002-0.001c-1.869-0.771-3.714-1.565-5.572-2.379l-2.306-1.008c-3.979-1.74-8.422-3.682-13.792-5.833
			c-1.033,0.397-2.051,0.781-3.069,1.166c-0.001,0-0.002,0.001-0.004,0.001c-9.68,3.656-18.722,6.757-27.127,9.386
			c-0.016,0.007-0.03,0.012-0.047,0.017c-6.984,2.186-13.532,4.046-19.634,5.626c-0.025,0.008-0.051,0.015-0.076,0.021
			c-6.049,1.564-11.668,2.86-16.844,3.927c-5.727,1.177-10.914,2.074-15.569,2.76c0,0-0.002,0-0.003,0.001
			c-5.105,0.751-9.573,1.243-13.39,1.56c-0.358,4.675-0.704,10.813-0.82,17.973v0.001c-0.027,1.658-0.042,3.373-0.041,5.137
			c-0.003,4.34,0.088,9.042,0.311,14.021c0.252,5.692,0.679,11.756,1.342,18.085c0,0.004,0,0.008,0,0.01
			c0.582,5.562,1.343,11.321,2.334,17.224c0,0,0,0.002,0.001,0.004c0.92,5.479,2.035,11.073,3.379,16.727h0.001
			c1.27,5.34,2.746,10.729,4.453,16.121c0.001,0.002,0.003,0.004,0.004,0.008c1.683,5.313,3.596,10.627,5.76,15.896
			c0.001,0.002,0.002,0.006,0.003,0.009c0.212,0.519,0.418,1.032,0.635,1.549c2.075,4.914,4.299,9.64,6.674,14.179
			c0.002,0.004,0.004,0.01,0.007,0.014c2.913,5.568,6.052,10.855,9.425,15.869c3.901,5.802,8.121,11.229,12.653,16.299
			c0.014,0.018,0.026,0.031,0.042,0.048c5.691,6.362,11.885,12.166,18.6,17.411c9.428,7.367,19.878,13.65,31.397,18.894
			c18.674-8.48,34.533-19.699,47.789-33.835c9.697-10.339,17.996-22.238,24.967-35.779c0.014-0.025,0.025-0.052,0.041-0.076
			c2.154-4.195,4.189-8.541,6.098-13.054c3.482-8.271,6.32-16.667,8.644-25.001c3.927-14.119,6.345-28.068,7.767-40.967
			c0.002-0.021,0.004-0.046,0.006-0.066c1.371-12.454,1.818-23.929,1.813-33.625C259.587,82.006,259.527,78.599,259.425,75.42z"/>
	</g>
</g>
<g>
	<g>
		
			<linearGradient id="SVGID_26_" gradientUnits="userSpaceOnUse" x1="118.7905" y1="836.0491" x2="202.776" y2="916.8349" gradientTransform="matrix(1 0 0 1 0 -754.8125)">
			<stop  offset="0" style="stop-color:#B3B3B3"/>
			<stop  offset="1" style="stop-color:#4D4D4D"/>
		</linearGradient>
		<path fill="url(#SVGID_26_)" d="M265.544,54.948c-25.896-2.24-42.043-4.332-54.086-6.836c-13.028-2.69-21.25-6.021-30.304-9.978
			c-5.407-2.354-11.211-4.951-19.054-8.013C108.577,51.022,74.007,54.948,59.436,55.553c-0.096,0.938-0.193,1.958-0.292,3.063
			c-0.583,6.491-1.169,15.842-1.167,27.094c-0.017,27.478,3.541,66.282,18.81,102.557c14.992,35.51,40.646,68.489,85.679,87.979
			c45.099-19.48,70.777-52.486,85.787-88.021c15.267-36.273,18.824-75.078,18.81-102.558
			C267.063,72.109,266.21,61.318,265.544,54.948z M241.363,185.325c-16.48,39.025-42.307,66.13-78.893,82.742
			c-36.535-16.619-62.331-43.703-78.797-82.707c-15.087-35.846-18.235-73.975-18.221-99.646c-0.003-9.374,0.42-17.35,0.861-23.11
			c17.852-1.477,49.837-6.802,95.763-24.458c5.369,2.152,9.811,4.095,13.791,5.834l2.307,1.01c9.205,4.02,17.957,7.588,31.773,10.44
			c11.676,2.427,26.469,4.381,48.729,6.407c0.488,6.196,0.916,14.31,0.916,23.825C259.604,111.342,256.453,149.472,241.363,185.325z
			"/>
	</g>
</g>
<g id="Arrow_21">
</g>
<g>
	<g>
		
			<linearGradient id="SVGID_28_" gradientUnits="userSpaceOnUse" x1="160.231" y1="-11.1033" x2="173.0807" y2="-221.1929" gradientTransform="matrix(1 0 0 -1 0 37.188)">
			<stop  offset="0" style="stop-color:#1F1F1F"/>
			<stop  offset="0.2418" style="stop-color:#CCCCCC"/>
			<stop  offset="0.4011" style="stop-color:#6D6D6D"/>
			<stop  offset="0.5549" style="stop-color:#D2D2D2"/>
			<stop  offset="0.7033" style="stop-color:#272727"/>
			<stop  offset="0.967" style="stop-color:#060707"/>
		</linearGradient>
		<path fill="url(#SVGID_28_)" d="M281.005,46.042l-1.004-6.39l-6.442-0.528c-39.449-3.233-57.063-6.094-69.045-9.671
			c-6.021-1.793-10.841-3.798-16.793-6.393c-5.938-2.584-12.923-5.722-22.736-9.444L162,12.484l-2.965,1.18
			C98.978,37.501,63.914,39.206,55,39.211c-0.848,0-1.459-0.019-1.834-0.029c-0.188-0.006-0.314-0.013-0.383-0.019
			c-0.031-0.001-0.051-0.001-0.059-0.003c-0.002,0-0.002,0-0.002,0v0.002l-7.516-0.546l-1.172,7.47
			c-0.047,0.314-2.494,15.983-2.498,39.625c0.018,28.857,3.607,69.633,20.092,108.926c16.418,39.248,46.283,77.13,97.729,98.138
			c1.02,0.418,2.074,0.615,3.114,0.615c1.178,0,2.333-0.256,3.39-0.734c51.334-21.021,81.152-58.861,97.551-98.062
			c16.482-39.293,20.074-80.067,20.094-108.927C283.501,62.027,281.055,46.356,281.005,46.042z M248.253,188.223
			c-15.008,35.533-40.688,68.539-85.788,88.021c-45.034-19.488-70.686-52.47-85.678-87.979
			c-15.27-36.272-18.826-75.079-18.811-102.556c-0.002-11.252,0.584-20.603,1.168-27.094c0.098-1.105,0.195-2.129,0.291-3.063
			c14.572-0.604,49.141-4.529,102.667-25.431c7.843,3.062,13.646,5.657,19.055,8.013c9.053,3.956,17.271,7.285,30.303,9.979
			c12.043,2.502,28.19,4.594,54.086,6.834c0.666,6.369,1.519,17.16,1.519,30.719C267.078,113.146,263.52,151.948,248.253,188.223z"
			/>
	</g>
</g>
<g id="path2588_2_">
	
		<linearGradient id="SVGID_29_" gradientUnits="userSpaceOnUse" x1="120.4775" y1="615.6184" x2="205.0605" y2="615.6184" gradientTransform="matrix(1 0 0 1 0 -463.8125)">
		<stop  offset="0" style="stop-color:#CCB982"/>
		<stop  offset="0.5" style="stop-color:#CCA208"/>
		<stop  offset="1" style="stop-color:#CC8D16"/>
	</linearGradient>
	<path fill="url(#SVGID_29_)" stroke="#010202" stroke-width="7" d="M161.895,238.261c-8.08,0-14.653-6.098-14.653-13.594
		c0-4.933,2.924-9.474,7.458-11.854v-35.153c-8.244-2.121-15.396-7.104-20.326-14.224c-4.836-6.979-7.724-15.958-8.391-26.054
		c-3.394-2.173-5.505-5.812-5.505-9.689c0-6.478,5.672-11.748,12.644-11.748c6.961,0,12.625,5.271,12.625,11.748
		c0,3.833-2.038,7.414-5.331,9.597c0.601,7.431,2.655,13.854,5.989,18.665c2.337,3.371,5.07,5.785,8.295,7.305V90.065
		c0,0-4.693,0.028-4.699,0.028c-1.078,0-2.07-0.584-2.598-1.525c-0.527-0.945-0.498-2.104,0.076-3.023l11.766-18.795
		c0.54-0.862,1.482-1.391,2.501-1.396c0.006,0,0.013,0,0.021,0c1.01,0,1.951,0.514,2.5,1.362l12.026,18.66
		c0.588,0.912,0.632,2.069,0.115,3.024c-0.519,0.954-1.513,1.552-2.599,1.56l-4.717,0.025v51.507c4.047-1.01,7.284-2.77,9.834-5.333
		c3.112-3.127,5.354-7.471,6.658-12.906c0.859-3.563,1.188-7.142,1.282-10.073h-0.815c-1.642,0-2.973-1.331-2.973-2.974V95.609
		c0-1.642,1.331-2.973,2.973-2.973h16.036c1.642,0,2.974,1.331,2.974,2.973v14.597c0,1.643-1.332,2.974-2.974,2.974h-0.817
		c-0.117,4.636-0.672,9.029-1.653,13.1c-1.89,7.848-5.32,14.313-10.201,19.219c-5.158,5.188-12.146,8.61-20.322,9.985v57.353
		c4.535,2.385,7.462,6.918,7.462,11.836C176.551,232.163,169.977,238.261,161.895,238.261z"/>
</g>
<g>
	<path fill="#FFE6A1" d="M110.635,271.635c3.099,12.318,26.37,17.721,49.826,17.924v0.045c23.453-0.195,46.725-5.604,49.822-17.92
		c0.982,8.529,1.967,17.064,2.945,25.594c0.686,5.988,1.549,8.996-4.314,12.863c-10.053,6.633-33.016,11.869-48.453,11.201v-0.051
		c-15.44,0.672-38.401-4.564-48.457-11.195c-5.863-3.867-4.999-6.875-4.312-12.867C108.676,288.703,109.649,280.166,110.635,271.635
		L110.635,271.635z"/>
	
		<linearGradient id="SVGID_30_" gradientUnits="userSpaceOnUse" x1="107.2007" y1="-259.3308" x2="213.7158" y2="-259.3308" gradientTransform="matrix(1 0 0 -1 0 37.188)">
		<stop  offset="0.1978" style="stop-color:#84181F"/>
		<stop  offset="0.3132" style="stop-color:#952338"/>
		<stop  offset="0.6593" style="stop-color:#952338"/>
		<stop  offset="0.8681" style="stop-color:#85191D"/>
	</linearGradient>
	<path fill="url(#SVGID_30_)" d="M179.031,288.266c-5.914,0.846-12.234,1.287-18.572,1.338v-0.045
		c-7.59-0.064-15.158-0.68-22.031-1.893c-3.674,8.369-8.634,16.6-9.515,25.93c-0.09,0.922-0.164,2.102-0.199,3.426
		c10.323,2.918,22.408,4.676,31.745,4.271v0.051c6.977,0.305,15.486-0.604,23.648-2.297c-1.051-9.908-3.599-19.822-4.965-29.564
		C179.1,289.133,179.063,288.719,179.031,288.266z M210.281,271.684c-2.26,8.986-15.271,14.291-31.25,16.582
		c0.029,0.453,0.064,0.867,0.111,1.215c1.366,9.74,3.914,19.654,4.965,29.563c9.904-2.053,19.293-5.27,24.803-8.902
		c5.865-3.867,5.002-6.875,4.314-12.863C212.248,288.748,211.266,280.213,210.281,271.684z M138.429,287.666
		c-14.369-2.535-25.698-7.699-27.794-16.031c-0.984,8.531-1.958,17.066-2.943,25.594c-0.687,5.992-1.552,9,4.312,12.867
		c3.974,2.619,9.968,5.021,16.712,6.926c0.036-1.324,0.109-2.504,0.199-3.426C129.794,304.266,134.754,296.037,138.429,287.666z"/>
	<g>
		
			<linearGradient id="SVGID_31_" gradientUnits="userSpaceOnUse" x1="217.9082" y1="1045.9397" x2="144.0809" y2="1034.1273" gradientTransform="matrix(1 0 0 1 0 -754.8125)">
			<stop  offset="0.1264" style="stop-color:#D8E9F4"/>
			<stop  offset="0.1978" style="stop-color:#B2B7C8"/>
			<stop  offset="0.2418" style="stop-color:#8692AB"/>
			<stop  offset="0.3407" style="stop-color:#B2B7C8"/>
			<stop  offset="0.5275" style="stop-color:#EDF5FA"/>
			<stop  offset="0.8571" style="stop-color:#D8E9F4"/>
		</linearGradient>
		<path fill="url(#SVGID_31_)" d="M126.968,290.037c9.254,2.887,20.954,4.289,32.748,4.441v0.061l0.751-0.002
			c12.042-0.104,24.039-1.504,33.484-4.453c8.111-2.543,14.434-6.227,17.137-11.414c-0.115-0.988-0.229-1.979-0.342-2.967
			l-0.08-0.021c-1.436,5.715-7.902,10.096-17.162,12.979c-9.039,2.822-20.619,4.227-32.296,4.371V293l-0.739-0.006
			c-11.935-0.1-23.818-1.5-33.055-4.379c-9.26-2.885-15.724-7.264-17.162-12.98l-0.078,0.021c-0.113,0.99-0.228,1.979-0.34,2.971
			C112.534,283.813,118.853,287.494,126.968,290.037z"/>
	</g>
	
		<linearGradient id="SVGID_32_" gradientUnits="userSpaceOnUse" x1="225.3555" y1="1070.4016" x2="136.7631" y2="1056.6202" gradientTransform="matrix(1 0 0 1 0 -754.8125)">
		<stop  offset="0.1264" style="stop-color:#D8E9F4"/>
		<stop  offset="0.1978" style="stop-color:#B2B7C8"/>
		<stop  offset="0.2418" style="stop-color:#8692AB"/>
		<stop  offset="0.3407" style="stop-color:#B2B7C8"/>
		<stop  offset="0.5275" style="stop-color:#EDF5FA"/>
		<stop  offset="0.8571" style="stop-color:#D8E9F4"/>
	</linearGradient>
	<path fill="url(#SVGID_32_)" d="M208.503,305.34c-9.224,6.113-30.147,11.146-45.282,11.133c-0.687,0-1.364-0.012-2.021-0.031
		v-0.105l-0.769,0.035c-0.886,0.039-1.797,0.057-2.731,0.057c-15.141,0.021-36.061-5.021-45.288-11.135
		c-2.749-1.836-4.231-3.723-4.981-5.861c-0.119,1.021-0.207,1.955-0.222,2.82c0.987,1.539,2.391,2.975,4.389,4.271
		c9.71,6.379,30.633,11.361,46.102,11.379c0.727,0,1.442-0.012,2.142-0.031l0.589,0.021c0.902,0.039,1.837,0.061,2.792,0.061
		c15.458-0.021,36.386-4.998,46.097-11.379c1.951-1.271,3.371-2.617,4.395-4.057c0-0.824-0.07-1.707-0.186-2.672
		C212.708,301.799,211.199,303.535,208.503,305.34z"/>
</g>
</svg>
